<svg xmlns="http://www.w3.org/2000/svg" viewBox="0 0 256 256"><defs><style>.cls-1{fill:#f2f1ed;}.cls-2{fill:#ea8642;}.cls-3{fill:#665950;}.cls-4{fill:#231f20;}</style></defs><g id="cat01"><path class="cls-1" d="M224.58,41.16,202.84,70s-13.05-5.93-22.93-5.14a81.42,81.42,0,0,0-16.21,2.77S142,37.21,136.42,42.74s-7.11,37.95-7.11,37.95S117.45,69.62,93.73,72,52.61,92.55,52.61,92.55,34,115.48,27.31,122.6.82,151.46,3.2,169.64s16.2,28.86,21.34,32.82S60.91,220.25,84.24,225s49,7.51,58.9,1.19,8.31-11.07,8.31-11.07,15.41,2,25.3.79,13-3.17,13-3.17,19.37,3.56,31.23,1.19S245.93,204,249.49,193s3.95-22.54.39-30.05A123.74,123.74,0,0,0,240,146.71s12.25-15.81,11.46-28.85S240,80.3,240,80.3s-3.56-35.58-6.72-37.95S224.58,41.16,224.58,41.16Z"/><path class="cls-2" d="M190.45,65.67s-7.91,26.09-.26,43.22S206,130.24,220,132.09s31.63-4,31.63-4-2.12-24.2-6.07-31.36c-5.27-9.56-7.38-56.14-15.55-56.14s-25.82,29.26-25.82,29.26Z"/><path class="cls-2" d="M99.49,74.61a52,52,0,0,1,4.37,11.73c.81,4.11.56,8.58-1.56,12.19-3.11,5.27-9.45,7.66-15.46,8.78s-12.32,1.38-17.83,4a24.81,24.81,0,0,0-7.43,5.59c-2.36,2.58-4.53,5.78-7.94,6.54-3,.67-6.08-.85-8.65-2.56a11,11,0,0,1-4-4c-1.86-3.77.47-8.22,3-11.62C57,87.48,76.56,73.75,98.64,73.77Z"/><path class="cls-2" d="M100.43,74.63c-.37-.54-.21.48-.34-.3C100.29,74.33,100.47,74.38,100.43,74.63Z"/><path class="cls-2" d="M96.49,73.27a7.71,7.71,0,0,1-3.43.78,8,8,0,0,0-3.53.68c-.25.1,0-.65-.6-.38a11.4,11.4,0,0,1-3.8,1.28c-.72.13-1.48.22-2.23.28s-1.47.17-2.17.21l.1-.23c-.53,0-.93.82-1.47.91,0-.11.11-.22-.07-.33,0,.39-.88.47-1,.83-.25,0-.34-.33-.66-.37l-.13.5c-.42,1.26-2,.72-2.83,1.69,0-.11.08-.23,0-.28a13.41,13.41,0,0,1-2.55,1.81c-.95.53-1.87,1.16-2.73,1.76a.6.6,0,0,0-.26-.53c.13.44-.38.85-.82,1.2-.46-.27-.59.87-1.27,1V84c-.15.66-.75.17-.77.85l-.46-.13c.18.65-.77.11-.93.6l.09.1c-.23.33-.56.2-.79.49l-.07,0c-.56.62-1.16.61-.85,1-.46-.15.54-.61-.16-.82-1,1-2,1.89-3,2.81s-2.13,1.74-3.13,2.68c-.36.06-.55.14-.73,0-.13.26-.7.76-.71,1.11.06-.07-.31-.07-.43,0-.5.2,0,.77-.56,1,.06-.25,0-.42-.17-.5-.07.61-.55,1-.85,1.48,0-.12.06-.25-.07-.35-.11.74-.84.71-1,1.28l-.06-.34c-.85.36.24.58-.41,1,.05-.2-.07-.23-.13-.33-.09.86-1,1.56-1.29,2.18,0-.06-.07-.1-.07-.1A8.86,8.86,0,0,0,49,99.79c-.29.15-.47-.53-.9.15.46.35-.68,1.17.12,1.23-.49.46-1.36,1.12-1.47,1.61,0-.38-.75-.18-.45-.66l-.53.12c-.14-.19.33-.29,0-.37-.16.24-.48,1-.7,1.17a3.88,3.88,0,0,1-.26,2.12c.06-.45-.64-.2-.56-.47.06.52.11,1,.2,1.58-.14.23-.41-.22-.51.19.13.07.11.27.15.44-.12,0-.49,1-1,.82-.25,0,.13-.45-.2-.29-.25.44-.11.55-.34,1l-.07,0c-.24.26-.24,1,.2.8.12-.19-.35-.08,0-.3a1.81,1.81,0,0,1-.17,1.34c0-.19-.17-.23-.29-.36a11.06,11.06,0,0,1,0,2.14c.26.09-.4-.37-.23-.43a1.64,1.64,0,0,0-.24,1.29c0,.44.12.81-.16,1.16-.06-.11.38-.06.3-.06,0,.38-.4.4-.24.64-.22,0,.13.31.23.54s-.1.09-.15-.13l.26.39c.09.17.22.37.35.57a7.13,7.13,0,0,1,.67,1.28,1.16,1.16,0,0,1,.87.16l-.3.19c0,.28.5.44.33.69.31,0-.08-.22-.44-.43s-.68-.43-.36-.32c-.13.33,1,.19.53.44.32.29.88.24,1,.75-.06-.12-.59.16-.29.36.55.34.25,0,.73.19l.36.07c.21-.27.45.36.46-.09-.09.28.88.36.51.8l-.31.34c.26.12.64-.16.93-.22,0,0,0,.17,0,.22.38-.57.54.38,1.07.06.39.48,1.24.61,1.32,1.09.47,0,.88-.18,1.27.08-.1,0-.23,0-.29.16.23.28.35.11.62,0-.08.09.48.5.8.75.41-.17.27-.57.32-.79.16.34.43.23.68.08s.46-.31.73-.07c-.09.14-.46.44-.11.55.25.29.41.11.56-.1s.29-.5.61-.48l-.35-.46c.37.23.54-.64.77-.11.06-.26.67-.22.31-.63,1.06-.15,1.6-1.74,2.76-1.56,0-.18.37-.41.11-.54s-.08.42-.3.35c.08-.12,0-.24-.06-.3.32-.17.53-.34.65.2.78-.35-.18-1.2.64-1.82.15.18.26.18.43-.07l.08-.68c.52-.45.64.06.94.3.19-.31.51-.61.41-.93l.66,0c-.48,0,0-.38.09-.56l-.05.19c.16.06.39-.3.51-.48-.2-.14-.58.09-.8.21,0-.25.25-.43.3-.75.2.33.62-.21.87-.38s.07-.5.15-.56c.13.15.44-.33.42.05,0,.12-.33,0-.36.28.27,0,.46.24.65-.24s-.54-.52.13-.75c-.08.18,0,.32,0,.51l.6-.22-.19-.29c.12,0,.1.07.15.09-.07-.41.69-.65.57-1.06.24-.22.69-.18,1-.31l0,0a1.15,1.15,0,0,0,.91-.75l0,.08a1.56,1.56,0,0,0,.7-.66c.58,0,.75,1.07,1,.44.44-.24.45-.91.17-1,.93-.17,1.7-1.1,2.69-.87.08-.17,0-.23.21-.39,1.31-.3,2.62-1.2,3.8-.77-.34.23,0,.34.1.54.23-.37.43.23.43-.31-.1-.3-.1-.45-.49-.5a3.89,3.89,0,0,1,2.37-.34c-.23-.11-.09-.23.06-.35,0,.5.6.48,1,.23v-.31l.32.27c.15-.12.08-.66.55-.43a.61.61,0,0,0,.17.29c.39-.31.94-.81,1.45-.63l.44.38c.2-.08.49-.39.12-.46.84.14,1.35.1,1.66.44,1.22-1.12,3.13-1.47,4.6-1.73v.23c.44.12.11-.43.43-.34-.08.24.41.39.15.71.64.1.64-.56,1-.75,0-.3-.24.26-.27-.13,0-.11.83,0,.79-.44.19.13.18.48.15.68l.28-.31c.58.38-.7,1.18-.08,1.67l.31-.16c.45.36-.73.77.15.68.3-.32.41-1,0-1.13.69-.34,0-1.13.77-1.34.29.18-.58.26-.32.56.48.23.66-.42,1-.43-.41,0-.27-.56-.08-.72.44.06-.1.49.45.33,0-.27.39-.65-.08-.65,0-.62.59-.07.68-.6.34.3-.15,1.1.51,1.05-.24-.32.45-.81-.09-1.21.26,0,.42.27.37.57.42.07.41-1,.87-.36l-.1-.42c.16.07.34.09.6.2.27-.13.51-1,.82-.43.06-.09.62-.45.16-.65-.47,0-.22.51-.72.14.5.25.47-.35.55-.62l.17.18c.06-.16.34-.3.26-.55a.23.23,0,0,0,.26.25l-.11-.37c.3-.48.49.42.84,0l-.14.47c0-.1.39,0,.53-.21-.14-.32-.27-.75-.39-1,.11-.3.35.18.32-.26v.55c0,.12.58.23.86-.08.1-.28,0-.88-.4-.71.13-.15.47-.22.54.06.22-.41-.3-.19-.21-.61a9.41,9.41,0,0,0,1.24-.23,5.67,5.67,0,0,1,.2.67l.18-.23c.13.56.4,0,.65.49.18-.13.18-.44.19-.67-1,.08-.52-1.08-1.21-1.28.17-.69,1.71.36,1.08-.82-.22,0-.54-.49-.56,0,.27-.38-.51-.55,0-.91.12.47.81-.16,1,.53-.2-.12-.29.24-.26.36.31-.08.61.31.8-.17.06-.31.18-.73-.18-.78s-.11.45-.42.14c.07-.59.65-.54.05-1-.05.37-.46.34-.71.25l0-.44.23.15c.36-.59-.41-.31-.19-.9l.56-.19c.42.24-.4.88.33.94.13-.43-.19-.64.06-1,0,.1,0,.23.09.33,0-.14,1-.14.56-.88-.17-.37-.24-.12-.5-.17,0-.72-.27-1-.29-1.4.53.11.06-.82.6-.29a1.22,1.22,0,0,0,.12,1.57c.65-.19-.16.56.44.81.1-.59.7-.49,1.11-.55.06-.17-.1-.37-.15-.48-.37-.1-.39.13-.78.1a1.87,1.87,0,0,0-.39-1.73c.19-.22.57-.15.6.12a17.5,17.5,0,0,1-.08-2.5c-.55.57-.26-.85-.73-.43-.07.43-.48.82-.78.63,0-.25.27,0,.39-.14-.37-.27.47-.58-.1-.81.3.69.76,0,1.26.09-.35-.51.35,0,.26-.58a9.69,9.69,0,0,1-1-1.69c.26-.87-.52-1.9-.77-2.54.11-.43.71-.37.67-.78s-.44.52-.44-.22l.13,0c-.19-.15-.11-1.34-.92-1.24l.63,0c0-.14-.17-.21-.27-.28.18-.08.28-.29.48-.14.22-.56-.41-.82-.61-1.25l-.2.42c-.57-.64-.47-1.27-.91-1.94l.32-.12-.38-.34a.32.32,0,0,0,0-.63l1.28.77c0,.39-.53-.17-.76.16s.19.92.54.89c-.08-.27-.15-.25-.35-.4.4-.28.55.12.93.18-.08-.12,0-.37-.18-.34a1.53,1.53,0,0,1,.68.86c-.3-.22-.2.28-.37.22.4-.13.7.25.82.85-.29.58.71.93.83,1.65a2.65,2.65,0,0,1-1.26-.67c0,.48.19.45.14.93a1.74,1.74,0,0,1,1.25.54l-.29.13c.33.43.76.29.89,1,.19,1.14.47,2.28.61,3.16l-.31.09c.76.35.53,1.56.88,2.19-.18,1.14.42,2.48-.16,3.06a11.18,11.18,0,0,1-.87,5.85l-.29-.5c.17.48-.34.13-.41.49.5-.24.23.66.35,1a7,7,0,0,0-1.38,2.81l-.27-.17c-.09,1.07-1.23,1.51-2.08,2.13-.18,0-.52-.13-.73.09-.13.77-.41.9-.93,1.66a6.69,6.69,0,0,1-2.1.86c-1.74,1.7-4.14,2.09-6.29,3.07l-.26-.31c-2,1.34-4.91,1.05-6.66,1.72l.08-.65c-.6-.11-1.28.36-1.07.78-.6-.11-1.38.51-1.81,0-.6,0-.66.4-1.13.56a6.1,6.1,0,0,0-2.62.41l.27,0c.09-.16,0-.42-.22-.41-.36.25-1.48.15-.93.8-1.22-.18-2.41,1-3.58.77.15.17-.09.29-.15.46-.87.33-1.95.35-2.46,1-.17,0,.06-.42-.29-.26-.17.17.12.24-.07.47-1.11,1-2.81,1.28-3.84,2.28L63,119.32c-.87,1-1.81,2.08-2.83,3.15l-.08-.13c-.15.56-.69.87-1.21,1.16s-1,.56-1.16,1.17c-.29,0-.93.47-.89.12a2.77,2.77,0,0,1-1.64.76,9.82,9.82,0,0,0-2.11.56.61.61,0,0,0,.34-.12,19,19,0,0,0-2,0,4.15,4.15,0,0,1-1.88-.39c.14,0,.39,0,.46-.16-.41-.38-1.33.31-1.37-.48-.26-.08-.31.29-.13.32-1.29-.59-2.51-1.18-3.72-1.79a21,21,0,0,1-3.56-2.14c-.66-.89-.43-1.15-.29-1.25s.25-.08-.51-.54c0-.2-.29.1-.18,0-.6-.43,0-1.31-.51-1.5-.29.4-.37-.16-.62,0a6.31,6.31,0,0,1-.16-1.55,3.07,3.07,0,0,0-.33-1.21l.25,0a3.48,3.48,0,0,1-.58-1.91,5.52,5.52,0,0,0-.31-1.87,18.12,18.12,0,0,1,1.64-4.55,30.25,30.25,0,0,1,2.26-3.8c.79-1.13,1.56-2.29,2.39-3.39s1.69-2.19,2.58-3.25c3.74-4,7.44-8,12.12-11.15a3.39,3.39,0,0,0,2.5-1.41c0,.12-.05.19.08.21-.23-.46.79-.64.62-1.11.86-.59,1.72-1.1,2.54-1.68s1.65-1.16,2.59-1.67c-.27.21-.2.65.13.43l.2-.49.13.09c.2-.2.34-.57,0-.57,4.49-3.09,9.84-4.3,14.84-5.88a11,11,0,0,0,2.12-.48l1.1-.37,1-.3,3-.09c1,0,1.95,0,2.91,0l1.43-.07,1.45,0c1-.05,2-.14,3-.29A3.1,3.1,0,0,1,96.49,73.27Z"/><path class="cls-2" d="M100.8,75.31c-.17.23-.11.7-.57.52C100.43,75.69,100.57,75.36,100.8,75.31Z"/><path class="cls-2" d="M102.27,87.24c.08,0-.07.17-.11.21,0-.13-.28-.22-.16-.35C102,87.23,102.15,87.19,102.27,87.24Z"/><path class="cls-2" d="M102.4,90.05c-.23,0-.43-.62-.49-1C102.09,89.4,102.25,89.72,102.4,90.05Z"/><path class="cls-2" d="M101.36,92.5c-.21.18-.31.11-.27-.16C101.21,92.33,101.26,92.43,101.36,92.5Z"/><path class="cls-2" d="M101.85,92.74c0,.2-.16.28-.31.36C101.74,93.12,101.48,92.62,101.85,92.74Z"/><path class="cls-2" d="M99.59,97.27c0,.11,0,.43-.29.38C99.51,97.64,99.36,97,99.59,97.27Z"/><path class="cls-2" d="M98.45,99.29c-.06,0-.11,0-.14.14s-.18-.19-.11-.29Z"/><polygon class="cls-2" points="53.88 121.63 54.06 121.45 54.11 121.67 53.88 121.63"/><path class="cls-2" d="M42.72,110.66c0-.31.28-.1.32-.13C43,110.77,42.82,110.34,42.72,110.66Z"/><polygon class="cls-2" points="48.64 100.25 48.58 100.33 48.25 100 48.64 100.25"/><path class="cls-2" d="M29.77,165.14c-7.11,4.67-8.37,14.39-4,21.38,4.81,7.63,13.51,10.54,22,11.64,5.12.66,10.93-.32,13.65-5.25,1.11-2,.24-5.24-2.31-5.69a38.92,38.92,0,0,1-15.61-6.17,27.51,27.51,0,0,1-6-5.12c-.1-.11-.57-.72-.29-.33-.24-.33-.46-.66-.68-1s-.34-.57-.5-.86-.39-.81-.19-.32a9.41,9.41,0,0,1-.54-1.86c.13.69,0-.43,0-.51a11.5,11.5,0,0,1,.07-1.18H27.7a55.17,55.17,0,0,0,.12,8.43c.28,3.11.79,6,3,8.42,1.9,2.06,4.72,3.19,7.3,4.1a35.35,35.35,0,0,0,8.45,1.79c2,.21,4-1.93,3.87-3.87a4,4,0,0,0-3.87-3.87,29.09,29.09,0,0,1-6-1.37,11.39,11.39,0,0,1-4.31-2.25h0c-.21-.42-.26-.46-.14-.14a7.21,7.21,0,0,1-.42-1.53c-.25-1.21,0,.67-.08-.56-.07-.64-.13-1.28-.17-1.92a56.27,56.27,0,0,1,0-7.23A3.89,3.89,0,0,0,31.57,166a4,4,0,0,0-3.87,3.87c-.8,7.43,5.41,13.27,10.91,17.17a45.88,45.88,0,0,0,18.49,7.66L54.79,189a5,5,0,0,1-.38.63c.23-.3.2-.29-.1.05s-.37.33-.08.09a6.58,6.58,0,0,1-.63.38c-.66.41.25,0-.44.19-.24.07-.48.14-.72.19-.49.09-.59.12-.31.07a14.1,14.1,0,0,1-3.18,0c-1-.09-1.73-.22-2.94-.44a38.23,38.23,0,0,1-5.95-1.63,20.37,20.37,0,0,1-2.64-1.3q-.53-.3-1-.63c-.11-.08-1.24-.92-.75-.52a18.3,18.3,0,0,1-1.93-1.81c-.1-.1-1-1.2-.6-.68a12.89,12.89,0,0,1-.83-1.25c-.19-.32-.36-.66-.54-1s-.21-.45-.07-.1c-.09-.23-.18-.46-.26-.7-.16-.48-.25-1-.4-1.45-.23-.78,0,.54-.07-.35,0-.47-.05-.93,0-1.4,0-.18.22-1.57,0-.71a12.75,12.75,0,0,1,.67-2.34c-.32.75.21-.33.29-.47a8.34,8.34,0,0,1,.66-1c-.51.65.42-.39.53-.49l.52-.46c-.33.26-.31.26.06,0a4,4,0,0,0,1.39-5.3,3.92,3.92,0,0,0-5.3-1.39Z"/><path class="cls-2" d="M71.82,188.75a22.91,22.91,0,0,1,21.43-24,25.62,25.62,0,0,1,14.8,3.78c7.76,4.68,12.81,12.68,17.57,20.39.61,1,1.21,2.36.43,3.23a2.82,2.82,0,0,1-2.55.48,219.21,219.21,0,0,0-29.41-2c-7.22,0-14.57.32-21.5-1.7Z"/><path class="cls-2" d="M75.69,188.75A19.12,19.12,0,0,1,78,178.63a24.86,24.86,0,0,1,1.5-2.41s.43-.57.13-.18c.12-.16.25-.32.38-.47.35-.41.71-.8,1.08-1.18s1.5-1.42,1.82-1.68,1.53-1.07,2.22-1.47A18.65,18.65,0,0,1,95,168.59a22.09,22.09,0,0,1,10.76,3.08,31.45,31.45,0,0,1,8.33,7.27c.31.36.61.72.91,1.09l.52.66c.62.81,1.22,1.64,1.8,2.48,1.13,1.62,2.21,3.28,3.27,5,.5.8,1,1.61,1.5,2.42a9.61,9.61,0,0,1,.57,1c-.26-.57,0,0,0,.1v-1.06l1.56-1.65c.34-.29.45,0,0-.07-.07,0-.66,0-.15,0-.67-.07-1.33-.18-2-.27-1.3-.17-2.6-.32-3.91-.47q-7-.78-14-1.12c-5.24-.25-10.49-.22-15.74-.24s-9.93-.19-14.8-1.57a3.87,3.87,0,1,0-2.05,7.47c10.2,2.88,21.14,1.59,31.61,2,5.32.23,10.64.66,15.93,1.27,2.61.31,5.37,1.2,7.91.13,3.51-1.48,3.83-5.41,2.3-8.47a63.05,63.05,0,0,0-3.4-5.47c-1.23-1.89-2.5-3.74-3.87-5.53a47.64,47.64,0,0,0-10-10.08,28.75,28.75,0,0,0-28.2-3.32A26.92,26.92,0,0,0,68,188.75a3.87,3.87,0,0,0,7.74,0Z"/><path class="cls-3" d="M112.92,74.5c-3.22-.29-6.75-.49-9.37,1.41-3.15,2.29-3.73,6.68-4,10.57a14.56,14.56,0,0,0,.24,4.93c.51,1.84,1.72,3.46,2.06,5.35.47,2.54-.67,5.35.48,7.67a6.22,6.22,0,0,0,3.1,2.7,11.48,11.48,0,0,0,10.59-.68C120,104,120.85,98,122.65,93.74a29.53,29.53,0,0,0,2.57-7.91c.36-2.86-.53-4.51-2.37-6.72-2.36-2.83-4.72-3.91-8.36-4.48Z"/><path class="cls-3" d="M112.92,70.62c-3.81-.33-8-.36-11.32,1.95s-4.86,5.83-5.45,9.64a47.64,47.64,0,0,0-.54,5.85A15.2,15.2,0,0,0,97,94.9c.16.38.34.75.52,1.12,0,0,.27.59.14.29s.12.31.11.3c.09.26.17.51.24.78,0,0,.11.65.07.29s0,.3,0,.3c0,.28,0,.55,0,.83-.08,2-.39,4.09.28,6.09,1.52,4.55,6.19,6.64,10.67,7a14.37,14.37,0,0,0,11.06-3.82c2.46-2.47,3.68-5.85,4.76-9.09.24-.7.47-1.41.71-2.12l.33-.94c.07-.18.47-1.2.26-.7a54.65,54.65,0,0,0,2.25-5.82,14.83,14.83,0,0,0,.45-7.33,13.88,13.88,0,0,0-3.15-5.59,16.22,16.22,0,0,0-10.2-5.64c-2-.32-4.26.52-4.76,2.71-.43,1.86.57,4.41,2.7,4.76.73.12,1.46.26,2.18.45a8.54,8.54,0,0,1,.82.25c.19.06.88.35.15,0a13.14,13.14,0,0,1,1.56.86c.18.11.71.57.15.09a13.55,13.55,0,0,1,1,1c.22.22.43.46.64.7s.62.77.25.28c.38.5.63,1.14,1,1.61s-.14-.72,0,.12c0,.16.19,1.18.11.26,0,.36,0,.71,0,1.07,0,.7.09-.18-.07.65-.63,3.28-2,5.66-3.07,8.69-.4,1.13-.76,2.28-1.15,3.42q-.34,1-.72,2c.06-.14.31-.65,0,0-.19.4-.37.81-.59,1.2a12.11,12.11,0,0,1-.86,1.37c.52-.72-.1.08-.2.19a8.3,8.3,0,0,1-.69.64c.17-.14.59-.32,0-.06-.35.16-.68.4-1,.56.64-.29-.53.18-.54.19-.38.11-.76.2-1.14.29-1.1.26.59,0-.54.07-.39,0-.78,0-1.18,0s-.53,0-.79,0c.77.09-.48-.13-.52-.14a9.21,9.21,0,0,1-1.13-.35c.51.2-.07,0-.15-.07a8.33,8.33,0,0,1-1-.59c.64.48-.67-.9-.19-.23-.05,0-.34-.62-.09-.15l-.1-.38c0,.37,0,.32,0-.16,0-.69,0-1.37.08-2a13.65,13.65,0,0,0-.49-5.51c-.29-.83-.67-1.64-1-2.44-.17-.37-.37-.74-.52-1.12.24.61-.19-.65-.18-.61a4.2,4.2,0,0,1-.19-1.64c0-.88,0-1.75.11-2.62l.09-1.07c0-.15.21-1.62.08-.79.11-.71.25-1.42.43-2.12.1-.35.22-.68.32-1,.22-.76-.27.38.14-.37.17-.29.35-.59.51-.89.39-.7-.31.21.23-.29.06-.06.9-.82.26-.32.12-.09,1.36-.78.74-.51a6.08,6.08,0,0,1,.72-.24c.14,0,1.57-.32.85-.23a24.16,24.16,0,0,1,5.1.1,3.89,3.89,0,0,0,3.87-3.87,4,4,0,0,0-3.87-3.88Z"/><path class="cls-3" d="M11.15,145.75a41.77,41.77,0,0,0-6.69,19.17c-.6,6.18.29,14.39,6.05,18.1a6,6,0,0,0,6.28.4,6.41,6.41,0,0,0,3-4.57c.58-3.28-.44-6.25-1.58-9.28a22.89,22.89,0,0,1-1.05-3.45c.18.85,0-.2,0-.35s.09-1.24-.05-.36c0-.25.11-.48.16-.73.16-.44.17-.5,0-.18a7.67,7.67,0,0,1,.36-.7c1.53-2.68,3.73-4.86,5.07-7.67,1.63-3.45,2.44-7.37,1-11a10.41,10.41,0,0,0-8.71-7c-1.8-.23-3.15,1.39-3.74,2.84a38.45,38.45,0,0,0-2,6.8,3.94,3.94,0,0,0,2.7,4.76c1.92.44,4.34-.58,4.76-2.71a38.13,38.13,0,0,1,2-6.79L15,145.8c-.85-.11-.13,0,.08.1.58.21-.79-.43.09.07.15.09.55.42,0-.06.17.14.31.31.48.44.47.39.16.15,0,0a6.36,6.36,0,0,1,.46.69,6.59,6.59,0,0,1,.38.75c-.27-.63,0,.1.06.35s.09.44.15.66c-.18-.69,0-.26,0,0s0,.55,0,.83c0,.11-.11.87,0,.49A10,10,0,0,1,15.61,153c-1.26,2.36-3.09,4.3-4.48,6.57a11.79,11.79,0,0,0-1.54,8.28c.36,2.29,1.42,4.37,2.12,6.55.15.45.28.91.39,1.37.05.23.1.46.14.69-.13-.79,0,0,0,.17a8.14,8.14,0,0,1,0,.86c0-.2.16-.68,0,0-.26.84,0,0,0,0a2.25,2.25,0,0,1,2.34-1l.24.09c-.13.16-.51-.43-.13-.08a8.53,8.53,0,0,1-.65-.69c-.42-.5.38.7-.18-.27-.13-.22-.27-.43-.39-.65l-.35-.66c-.53-1.05.11.35-.12-.3a17.46,17.46,0,0,1-.53-1.84c-.07-.32-.13-.63-.19-1,0-.11-.09-.75,0-.13-.07-.58-.11-1.16-.13-1.74a31.54,31.54,0,0,1,.11-3.89,34.23,34.23,0,0,1,5.67-15.68,3.9,3.9,0,0,0-1.38-5.3,4,4,0,0,0-5.3,1.39Z"/><path class="cls-3" d="M246.5,187.93c.87.11.13,0-.09,0l-.79-.12-1.27-.21c-1.29-.21-2.59-.41-3.89-.52a17,17,0,0,0-5.86.49,11.84,11.84,0,0,0-8.32,8.55,25.69,25.69,0,0,0-.75,5.66c-.1,2.28,0,4.6,1.82,6.24,2.15,1.95,4.87,1.43,7.34.56a30.17,30.17,0,0,0,5.55-2.44,16.79,16.79,0,0,0,5.22-5.09c1.45-2.13,2.86-4.53,2.81-7.2s-3.31-5.05-5.82-3.34a54.32,54.32,0,0,1-5.53,3.32c-.91.47-1.83.92-2.76,1.34-.28.12-.57.28-.85.37.49-.16.32-.13-.07,0l-.71.28-.29.09q4.2,0,3,4.54a3.91,3.91,0,0,0-1.39-5.3,4,4,0,0,0-5.3,1.39c-1.73,2.7.12,6.22,3.07,6.9,2.23.52,4.43-.72,6.4-1.6a54.94,54.94,0,0,0,8.3-4.66l-5.83-3.35c0,.78.1-.1.09-.16a2.38,2.38,0,0,1-.14.57c0,.12-.25.49,0,.09s-.06.09-.12.21c-.35.67-.75,1.31-1.15,2-.22.34-.45.67-.68,1s-.07.39.05-.05c0,.1-.22.26-.29.34q-.35.39-.72.75l-.42.37c-.52.49.41-.25,0,0-.6.37-1.17.75-1.79,1.07l-.89.43a1.46,1.46,0,0,0-.38.17l.27-.12-.26.1c-.66.26-1.33.5-2,.73l-.87.29-.48.13c-.41.14.94,0,.19,0a2.53,2.53,0,0,1,2.13,1.38,1.38,1.38,0,0,1,.17.77,2.82,2.82,0,0,0,0-.5c0-.69,0-1.38.07-2.06s.14-1.22.15-1.83c0,1.1,0,.06.06-.25s.14-.67.23-1,.2-.64.31-1c.22-.65-.38.75,0-.1.14-.26.3-.5.44-.75.29-.53-.08.29-.17.18a4.16,4.16,0,0,1,.41-.47l.27-.26c.52-.54-.17.1-.18.1.08-.19.58-.38.77-.49s.31-.15.46-.24c.36-.2-.29.13-.32.13a5.26,5.26,0,0,0,1.13-.35c.17,0,.34-.08.52-.12s.75,0-.11,0a9.45,9.45,0,0,0,1.06-.08,18.28,18.28,0,0,1,2.56.11l.15,0c.39,0,.43,0,.13,0s-.27,0,0,0l.48.07,1.27.21c1.18.19,2.37.37,3.57.52a3.83,3.83,0,0,0,2.73-1.13,3.86,3.86,0,0,0,0-5.48,4.52,4.52,0,0,0-2.73-1.13Z"/><path class="cls-3" d="M136.7,48.05c2.75,4.9,5.54,9.78,8.31,14.67s5.43,10.32,8.91,14.92c2,2.61,4.59,5,8.07,5.12a7.48,7.48,0,0,0,7.4-4.92c1.1-3.58-1.17-6.44-3.59-8.77s-4.5-4.51-6.64-6.87c-4.7-5.19-9.08-10.66-13.45-16.12-1.31-1.64-4.11-1.37-5.47,0-1.62,1.61-1.32,3.84,0,5.47,3.4,4.25,6.8,8.51,10.36,12.63s7.31,7.82,11.06,11.67c.64.66.21.18.13.12l.2.32c-.09-.31-.1-.34,0-.08l0,.18a.84.84,0,0,1,0-.52,1.5,1.5,0,0,1,.32-.78l.13-.16c-.31.29-.27.28.11,0,0,0-.88.32.11,0l-.59.17.41-.06c-.45,0-.41,0,.11.08a3.69,3.69,0,0,1-.65-.18c.19.08.5.28-.09-.09s-.26-.17-.13-.06c-.19-.16-.38-.34-.55-.51s-.35-.38-.53-.57c-.82-.86.19.29-.23-.27s-.75-1-1.11-1.59c-2.79-4.17-5.1-8.66-7.57-13-2.77-4.89-5.56-9.77-8.31-14.66a3.87,3.87,0,0,0-6.69,3.9Z"/><path class="cls-3" d="M148.89,204.67c-3.33-4-8.55-4.66-13.19-6.25a3.65,3.65,0,0,0-1.79-1A82.61,82.61,0,0,0,113.49,195h-.36a3.07,3.07,0,0,0-1.44-.72A61,61,0,0,0,99,193.06a54,54,0,0,0-6.1.42,26,26,0,0,0-3.5.55,3.76,3.76,0,0,0-2-.57c-3.91,0-7.83-.08-11.75,0a9.63,9.63,0,0,0-6.05,1.79,6.33,6.33,0,0,0-2.33,6.41,6.23,6.23,0,0,0,1,2.2,15.35,15.35,0,0,0-.94,2.9,13,13,0,0,0,2.3,11.11c2.28,2.79,4.77,5.68,8.13,6.56,3.89,1,8.33,2.16,12.38,2.06a7.24,7.24,0,0,0,1.26.71c2.84,1.23,6.42,0,9.52.19,1.41.07,3.56,1.78,4.91,1.39a36.5,36.5,0,0,0,5.53,1.19,83,83,0,0,0,10.09.79c1.55.59,6.24.17,7.9.2,3.27.05,3.7-1.37,6.92-2,5.37-1.06,10.65-4,13.49-8.8S152.48,209,148.89,204.67Z"/><path class="cls-3" d="M190.82,69.63a10.94,10.94,0,0,1,0,1.28c0,.46,0,0,0-.12-.05.24-.1.47-.16.71s-.11.35-.17.52c-.19.58.25-.46,0,.09-.2.38-.42.75-.65,1.11-.42.64-.18.22-.07.1l-.38.41c-.12.12-.94.86-.47.49a7.81,7.81,0,0,1-1.1.69,4.52,4.52,0,0,1-.49.25c.45-.2-.33.09-.41.12a9.64,9.64,0,0,1-1.39.32c.09,0,.47,0,0,0l-.82,0c-.41,0-.82,0-1.23,0-.67,0,.48.1-.19,0-.27,0-.54-.1-.81-.17-.47-.11-.93-.26-1.39-.4,0,0-.69-.26-.22-.06a6.19,6.19,0,0,1-.58-.28c-1-.5-2-1.1-3-1.57a13.53,13.53,0,0,0-7.26-1.38,16.91,16.91,0,0,0-3.59.78l-.31.11c.16-.06-.43-.18,0,0,.15.08.37.06.53.16a2.51,2.51,0,0,1,1,2.36c0,.12-.2.35-.22.48s-.38.07.06,0c0,0,.81-.41.48-.26s.37-.15.33-.13a26.28,26.28,0,0,1,3.12-1,21.93,21.93,0,0,1,5.43-.73,45.17,45.17,0,0,1,13.62,1.77l-2.84-3.73a3.22,3.22,0,0,1,.53-1.44c.13-.21.4-.35,0-.07.26-.18.44-.12,0,0-.23.06-.46.13-.7.18s-.54.12-.82.16c.42-.07,0,0-.2,0a16.49,16.49,0,0,1-1.86,0,12,12,0,0,1-5.33-1.59,3.87,3.87,0,1,0-3.91,6.68,19.45,19.45,0,0,0,10.89,2.63c4.22-.29,8.67-1.75,9.12-6.58a3.87,3.87,0,0,0-2.84-3.73,54.73,54.73,0,0,0-16.34-2,33.93,33.93,0,0,0-8.3,1.4c-3,.93-6.5,2.27-7.58,5.55a5.76,5.76,0,0,0,5.29,7.56,10.61,10.61,0,0,0,3.74-.62,5.34,5.34,0,0,1,3.06-.21,11.42,11.42,0,0,1,3,1.33,23.43,23.43,0,0,0,4.24,1.84,17.09,17.09,0,0,0,8.55.3c5.94-1.33,10.87-7.08,10.35-13.32-.17-2-1.66-4-3.87-3.87-1.95.09-4.05,1.71-3.87,3.87Z"/><path class="cls-2" d="M62.88,190.63c-.08-.29-.4.13-.16-.19C62.9,190.48,63,190.54,62.88,190.63Z"/><path class="cls-2" d="M30.65,164.64c.15,1.43-1.48,1.23-1.67,2.4,0,.1-.4-.51-.48-.23-.06,1.27-1.37,1.77-2.63,2.22l-.1-.17c-.24.09.08.67-.12.79-.1-.07-.09-.16-.26-.21.26.26-.11.42.07.66-.17,0-.4-.18-.6-.17l.27.34c.65.82-.52.7-.29,1.38-.08-.07-.12-.14-.22-.15.18.95-.27,1.75-.28,2.62a1.48,1.48,0,0,0-.56-.18.71.71,0,0,1,.48.67c-.46,0,.31.46,0,.65l-.1,0c.43.27-.32.23.22.47l-.37.07c.62.17-.36.22-.06.42h.13c.13.16-.19.21-.09.35h-.08c.15.33-.22.5.28.51-.4.1-.16-.31-.75-.17a21,21,0,0,1,.72,3.21c-.17.16-.21.26-.38.33.13.08.21.37.48.39,0,0-.22.14-.23.21-.11.25.59,0,.45.3a.65.65,0,0,0-.48.08c.43.05.46.3.66.45a.49.49,0,0,0-.3,0c.5.06.08.44.42.53l-.3,0c-.18.45.59-.15.52.2-.11,0-.2,0-.31.08.58,0,.61.5.89.66l-.11.05c.19.23.19.58.55.76-.06.16-.63.3-.39.52.5-.29.47.35.95-.13,0,.27.08.74.33.8-.24,0-.53.47-.68.31l-.21.33c-.22.1,0-.2-.25,0,.08.09.45.25.42.39.41,0,1.07-.21,1.31,0-.27,0-.48.43-.62.39l1.18-.22c.08.08-.37.27-.15.32a.83.83,0,0,1,.36-.11c0,.07.38.3-.06.66-.15.17-.2-.08-.29.13.12.17.28.07.41.23l-.06,0c0,.16.43.19.6-.11,0-.09-.26.22-.21,0a.54.54,0,0,1,.66.2c-.11,0-.23.09-.38.16a2.09,2.09,0,0,1,1.14.27c.22-.16-.46.19-.38.07-.07.54.91.35.67.94-.08,0,.29-.25.23-.2s-.24.4-.05.41c-.18.15.15.09.29.15s-.08.09-.16,0c.26,0,1,.39.93.91.12-.1.6-.15.64-.07l-.31.19c-.11.2.21.22,0,.42.45-.11-.76-.37-.33-.36-.19.23.67-.06.25.19.13.14.55,0,.4.37,0-.07-.48.19-.36.29s.17,0,.4,0h.19c.27-.22.11.2.35-.12-.2.21.36.15-.08.51l-.36.28c.1.06.47-.18.68-.26a.59.59,0,0,1-.13.17c.52-.46.13.23.61,0,0,.33.37.4.15.78.26,0,.54-.12.58.11a.34.34,0,0,0-.23.11c0,.23.1.11.25.1-.08.06-.07.45-.11.73.27-.06.44-.39.59-.57-.28.65.6-.1.41.51-.09.05-.38.15-.36.37-.23.65.53-.26.57.14l.24-.52c-.09.36.46-.11.16.38.17-.14.17.3.4-.2.15.6,1,.16.85,1.16.09-.06.2.09.27-.19s-.21.15-.17-.05c.06,0,.13-.13.16-.2.08.16.16.24-.13.62.16.43.63-.76.91-.42-.1.2-.1.29,0,.3l.34-.29c.2.17,0,.53-.17.9.15,0,.3.06.46-.2v.52c0-.37.19-.18.28-.25l-.09.07c0,.16.15.11.24.1a.56.56,0,0,0-.12-.48c.12-.13.21-.06.37-.22-.16.35.11.32.2.39s.23-.28.26-.25c-.06.18.17.09,0,.32-.06.05,0-.21-.15-.07s-.08.49.15.3.2-.72.35-.42a1.88,1.88,0,0,0-.23.33l.15.25.11-.33a1.59,1.59,0,0,1,0,.17c.16-.33.35,0,.51-.39.11,0,.15.29.25.36l0,0c.07.23.27.14.43-.06l0,.08a.31.31,0,0,0,.37-.15c.11.3-.25,1.28,0,.91.19,0,.43-.56.4-.79.27.31.74-.17.93.41.07-.13.06-.22.17-.28.44.22,1-.24,1.31.48-.16.13-.06.34-.08.54.15-.29.09.34.2-.18,0-.31.07-.46,0-.61a.66.66,0,0,1,.85.23.26.26,0,0,1,.07-.32c-.07.49.13.58.31.43l.05-.3.07.32c.07-.09.12-.63.25-.33a1.67,1.67,0,0,0,0,.33c.19-.24.44-.64.59-.37l.12.45c.08,0,.22-.31.1-.44.28.28.47.32.56.7a1.75,1.75,0,0,1,1.86-.9v.23c.17.2.07-.4.18-.25,0,.22.15.46,0,.73.25.23.28-.4.42-.51,0-.3-.11.19-.1-.19,0-.1.33.22.33-.23a1.77,1.77,0,0,1,0,.69l.13-.23c.21.51-.33,1-.11,1.6l.13-.08c.17.46-.33.56,0,.69a1.46,1.46,0,0,0,.07-1.08c.29-.15.05-1.08.37-1.07.11.26-.25.08-.15.45s.28-.23.42-.12c-.16-.15-.08-.61,0-.71.18.19-.06.44.17.46,0-.27.19-.48,0-.64,0-.6.24.13.31-.33.12.4-.11,1,.16,1.15-.09-.39.23-.58,0-1.15a.89.89,0,0,1,.13.67c.17.22.22-.77.38,0v-.41c.06.13.14.22.24.42.13,0,.27-.61.38,0,0-.07.28-.09.1-.49-.2-.23-.12.34-.31-.21.19.44.21-.1.26-.27l.07.23c0-.1.16-.08.14-.34a.47.47,0,0,0,.1.35l0-.37c.16-.23.2.61.38.46l-.09.31c0-.07.17.24.24.11,0-.33-.07-.74-.1-1s.15.34.17,0l0,.42c0,.11.24.5.4.45s.08-.65-.12-.77c.07,0,.23.13.25.38.13-.17-.13-.34,0-.58a7.35,7.35,0,0,0,.64.69l0,.58.11,0c0,.47.19.29.26.76.11,0,.15-.15.18-.29-.48-.62-.12-1-.44-1.66.19-.27.82,1.47.68.36-.12-.14-.21-.68-.29-.42.19,0-.18-.68.12-.5,0,.31.46.55.43,1-.09-.21-.2-.1-.2,0,.18.2.27.63.45.54s.23-.19.05-.5-.14.12-.25-.27c.14-.21.45.28.21-.37-.1.11-.32-.23-.44-.47l.06-.22.09.25c.31,0-.16-.45.07-.5l.36.39c.17.41-.41,0,0,.61.16-.06,0-.4.25-.32,0,.08,0,.11,0,.18s.61.78.52.17c0-.25-.11-.23-.26-.46.17-.21.08-.47.16-.6.3.44.25-.13.44.41-.24-.19-.51,0-.32.5.43.47-.22,0,.07.61.19-.11.52.41.78.72.07,0,0-.19,0-.27-.19-.33-.26-.27-.48-.59.28-.05.34-.39.22-.76.18.1.4.41.34.5a1.52,1.52,0,0,1,.73-.57c-.56-.3.11-.32-.35-.59a1.08,1.08,0,0,1-.73-.47c.09,0,.19.19.31.26-.17-.3.5.25.18-.19,0,.32.52.55.85.92-.07-.34.25.24.38.08a3.43,3.43,0,0,1,0-.89c.55.05.38-.58.47-.78.29,0,.73.32.88.22s-.59-.13-.26-.26l.09.07c-.09-.12.55-.31-.17-.65l.53.28c.07,0,0-.12-.1-.18.19.06.37.06.47.18.43,0,0-.37.08-.55l-.37,0c-.17-.35.18-.47.12-.79l.34.07-.17-.21c.33.09.57-.05.29-.18a6.43,6.43,0,0,1,.76.62c-.23.1-.38-.23-.73-.2s-.27.31,0,.43c0-.1,0-.12-.12-.23.47.06.42.22.72.38,0-.06.15-.12,0-.17a.43.43,0,0,1,.17.52c-.13-.18-.3,0-.42-.09.4.13.46.36.27.58-.5,0,.13.58-.13.83a2.67,2.67,0,0,1-.69-.78c-.27.08-.06.19-.33.26.26.21.68.47.74.79l-.28-.13c0,.26.44.49.21.71-.38.37-.7.77-1,1l-.25-.19c.37.59-.27.7-.28,1.09-.54.13-.62.94-1.15.66a4,4,0,0,1-1.93,1.55l-.06-.47c0,.37-.2-.2-.31-.08.31.26,0,.52,0,.83-.5-.19-.8.36-1.05.76l-.11-.29c-.15.67-.72.31-1.15.31-.08-.11-.23-.38-.34-.32-.11.56-.24.54-.51.92a1.55,1.55,0,0,1-.95-.17c-.81.85-1.8.49-2.73,1l-.09-.37c-.9.85-2.06.13-2.86.5l.1-.63c-.23-.2-.56.14-.53.59-.23-.2-.64.26-.76-.26-.25-.14-.34.27-.56.33a1.46,1.46,0,0,0-1.17-.2l.11.06c.07-.13.11-.4,0-.45-.2.15-.63-.26-.56.51-.44-.5-1.26.17-1.65-.51,0,.21-.13.22-.21.35-.46-.08-.83-.6-1.27-.34,0-.12.2-.31,0-.38s-.06.26-.22.34c-.83.19-1.35-.77-2-.88a9.62,9.62,0,0,1-3.42-1l.07-.13c-.62.36-.6-.93-1.29-.31,0-.17-.31-.24-.1-.46-.5.19-.61-.8-1.31-.65,0,0,.07,0,.15,0-.22-.56-.85-.46-1-1a.41.41,0,0,0,.29-.09c0-.34-.78.17-.37-.44-.08-.07-.3.21-.24.24a14,14,0,0,0-2.51-2.23c-.13-.87.94-.79.15-.93.08-.12-.25.14-.13,0-.3-.06.44-.77,0-.66-.32.32-.26.06-.48.22,0-.53.24-.84-.24-.92l.21-.11c-.78.06-.76-.53-1.59-.36a41.18,41.18,0,0,1-4.28-5.46c-.49-1.09-1-2.18-1.46-3.36a9.07,9.07,0,0,1-.58-4.06c.59-.66.59-.68.35-1.37.1,0,.12.07.22,0-.51-.06,0-.47-.5-.58.18-1,.2-1.89.46-2.88,0,.17.39.35.41.16l-.26-.28h.15c0-.14-.24-.35-.43-.27a7.06,7.06,0,0,1,1.63-3.51c.82-1,1.72-1.83,2.48-2.74a4.92,4.92,0,0,0,1.3-1.42c1.71-.66,3.14-1.08,4-2.45C30.22,162.87,31,164,30.65,164.64Z"/><path class="cls-2" d="M62.91,191c-.26,0-.41.21-.74,0A6.19,6.19,0,0,1,62.91,191Z"/><path class="cls-2" d="M58.87,194.08c.05.06-.12,0-.15,0s-.12-.22,0-.16S58.8,194,58.87,194.08Z"/><path class="cls-2" d="M58.07,194.65a.53.53,0,0,1,0-.54A4.73,4.73,0,0,1,58.07,194.65Z"/><path class="cls-2" d="M56.81,194.42c-.16-.12-.2-.22-.12-.26A.88.88,0,0,1,56.81,194.42Z"/><path class="cls-2" d="M57,194.89c-.06,0-.16,0-.26-.14C56.89,194.91,56.86,194.56,57,194.89Z"/><path class="cls-2" d="M55,195.17s-.06.25-.19,0C54.93,195.34,54.93,194.85,55,195.17Z"/><path class="cls-2" d="M54.24,195.79s-.05,0-.07,0a.26.26,0,0,1,0-.29Z"/><polygon class="cls-2" points="35.43 194.17 35.58 194.13 35.45 194.31 35.43 194.17"/><path class="cls-2" d="M29.79,187.85c-.19,0,.12-.19.13-.22S29.67,187.75,29.79,187.85Z"/><polygon class="cls-2" points="26.2 184.38 26.22 184.41 25.81 184.63 26.2 184.38"/><path class="cls-2" d="M129.65,193.85c.16.38.35-.27.21.23C129.67,194.06,129.52,194,129.65,193.85Z"/><path class="cls-2" d="M66.94,187.63a2,2,0,0,1-.46-1.92,3.69,3.69,0,0,0,0-2c0-.15.63.15.53-.2-.73-1.37.34-3.21,1.51-4.31l.14.15c.23-.21-.22-.75,0-1,.11,0,.12.15.3.15-.32-.21,0-.56-.15-.78.18,0,.44.08.65,0l-.31-.32c-.72-.86.55-1,.4-1.81.07.07.11.16.21.16,0-1.21.76-2.28,1.26-3.38a1,1,0,0,0,.46.36c-.33-.31-.2-.66-.07-1,.45.16,0-.68.44-.83l.06.09c-.2-.52.47-.14.18-.68l.39.1c-.4-.51.51-.09.41-.47l-.1-.09c0-.26.33-.14.4-.35l.06,0c.21-.46.66-.4.29-.74.4.16-.18.45.41.67a9.27,9.27,0,0,1,3.22-3.36c.26.06.39.05.53.18.07-.17.41-.41.39-.7,0,0,.22.16.3.13.34,0,0-.62.35-.59a.48.48,0,0,0,.15.46c0-.46.34-.6.54-.87a.45.45,0,0,0,0,.31c.07-.55.59-.22.71-.61l0,.3c.58.08-.17-.59.3-.61-.05.13,0,.21.07.32.09-.65.74-.77,1-1.09a.32.32,0,0,0,0,.11c.35-.25.81-.29,1.16-.67.2.06.22.67.58.4-.23-.52.61-.51.13-1,.4-.05,1-.05,1.22-.32-.09.26.4.6.12.75l.34.25c0,.24-.25,0-.09.26.14-.07.49-.44.65-.38.17-.42.24-1.13.68-1.34-.16.28.29.58.17.71q.16-.63.36-1.23c.15-.07.14.43.33.23,0-.15,0-.26.07-.4.07.05.62-.3.81.24.12.2-.23.17,0,.33.28-.08.26-.26.54-.33l0,.07a.36.36,0,0,0,.25-.61c-.14,0,.12.33-.11.2a.8.8,0,0,1,.69-.57c-.09.11,0,.26-.06.43a2.65,2.65,0,0,1,1.14-1c0-.27-.1.5-.18.37.61.28,1.12-.69,1.66-.18-.07,0-.08-.38-.06-.31.28,0,.3.4.47.24,0,.23.22-.09.4-.18s.06.11-.1.15a2.18,2.18,0,0,1,1.89-.31c0-.15.37-.56.51-.54l0,.36c.13.21.47,0,.49.27.29-.43-1.14.36-.74,0,.1.3.55-.56.47-.08.28,0,.56-.41.82-.07-.08-.06-.24.48,0,.46.4-.06.12-.17.44-.27l.21-.13c0-.35.35.06.23-.33,0,.28.59-.15.51.42l-.08.45c.17,0,.31-.46.46-.65a.33.33,0,0,1,0,.21c.08-.69.4.09.66-.42.33.28.92.12,1,.57.3-.17.59-.38.89-.18-.08,0-.17.06-.21.2.17.23.25.06.44,0,0,.09.33.45.5.73.31-.15.28-.53.35-.75.12.71.86-.28,1,.39-.12.07-.47.24-.28.46.09.72.61-.38.93,0l0-.57c.09.38.68-.16.49.38.19-.16.42.32.53-.22.52.63,1.74.28,1.76,1.37.13,0,.32.14.39-.14s-.31.11-.28-.11c.09,0,.17-.11.21-.18.15.21.29.31-.09.65.29.5.85-.65,1.33-.16-.14.19-.13.28,0,.34l.5-.18c.3.29-.07.57-.25.91.21,0,.42.19.65,0l0,.54c0-.39.27-.1.4-.13l-.13,0c-.06.16.19.2.32.23.11-.21,0-.43-.11-.56.18-.08.3,0,.53,0-.26.28.13.41.23.54s.38-.15.42-.1c-.12.16.22.21-.06.34-.09,0,0-.24-.19-.17,0,.2-.2.46.15.41s.41-.62.56-.21a1.92,1.92,0,0,0-.38.19l.15.36.22-.26c0,.1-.06.1-.07.15.31-.22.48.24.79,0,.16.08.13.41.23.55h0c0,.28.31.35.58.28l0,.05a.51.51,0,0,0,.52.15c0,.38-.79,1-.28.91.21.17.74-.19.8-.43.21.5,1,.45,1,1.15.15-.06.17-.15.34-.12.43.58,1.39.72,1.34,1.6-.25,0-.25.25-.38.39.34-.11-.07.38.34,0,.2-.24.31-.34.25-.57.43.17.9.62.87,1,0-.19.15-.19.28-.19-.36.33-.19.61.1.64l.24-.19-.11.33c.13,0,.51-.39.48,0a1.05,1.05,0,0,0-.17.28c.35,0,.89-.06.9.31l-.15.46c.11,0,.44,0,.38-.24.14.51.33.74.16,1.11a3.11,3.11,0,0,1,2.63,1.38l-.18.13c0,.33.38-.18.38.05-.21.1-.21.46-.53.51.07.42.6,0,.83.14.24-.18-.27,0,0-.23.1,0,.17.51.53.24-.07.19-.36.37-.52.46h.31c-.2.55-1.09.22-1.37.87l.18.09c-.21.46-.74,0-.52.46.31,0,.91-.32.92-.59.4.23.92-.59,1.22-.22-.1.28-.31-.23-.51.09s.46.19.5.42c0-.28.43-.45.59-.4,0,.32-.42.17-.21.46.23-.14.59,0,.53-.36.52-.31.13.37.59.2-.23.36-.94.39-.84.81.25-.32.72,0,1-.58,0,.19-.2.42-.46.5,0,.33.89-.11.35.48l.35-.22c0,.14-.06.27-.15.5.12.15.82.08.35.48.09,0,.36.34.56-.07,0-.37-.44,0-.11-.52-.22.46.31.25.53.26l-.16.18c.13,0,.23.19.46.06a.32.32,0,0,0-.24.27l.34-.17c.38.16-.42.49-.1.69H126c.08,0-.09.32.11.37.29-.17.67-.34.91-.46.24.05-.22.31.17.24l-.48.07a.56.56,0,0,0-.1.69c.2.06.74-.06.69-.38a.29.29,0,0,1-.18.45c.29.16.24-.26.57-.2-.09.23-.1.7-.21,1.06l-.6.15.11.15c-.49.11-.17.31-.61.52,0,.14.24.15.42.16.32-.77,1-.35,1.49-.88.47.27-1.06,1.32.1,1,.08-.18.64-.33.28-.45.15.29.67-.28.69.19-.39,0-.34.68-.9.64.19-.13,0-.29-.11-.29-.11.27-.54.42-.33.67s.36.31.61.05-.23-.21.16-.37c.35.22-.06.65.58.33-.21-.16.06-.46.27-.63l.31.12-.23.12c.15.48.45-.2.69.19l-.26.49c-.41.2-.27-.62-.78-.1.17.24.51.08.55.41-.09,0-.16-.06-.25-.06s-.62.78.08.75c.3,0,.23-.12.44-.29.37.31.67.24.89.45-.45.28.32.48-.32.54.13-.33-.32-.83-.81-.64-.38.53-.17-.34-.72,0,.23.29-.26.67-.53,1,0,.1.24.07.32.08.32-.21.23-.31.53-.56a1.06,1.06,0,0,0,1,.53c-.06.23-.38.43-.52.31a3.06,3.06,0,0,1,.91,1.42c.36-.64.44.52.77.06,0-.36.21-.85.55-.81.07.22-.24.12-.31.27.44.11-.29.63.31.67-.45-.52-.74.2-1.23.29.41.25-.31.12-.18.47a2.48,2.48,0,0,1,.89,1.09c-.37.6.1,1.33.1,1.79-.26.21-.8,0-.9.27s.6-.17.32.22l-.1,0c.12.13-.43.71.35.89l-.59-.17c-.06.07.07.15.13.21-.19,0-.37.06-.49-.07-.43.21,0,.52,0,.78l.36-.14c.24.46-.12.74,0,1.16h-.35l.21.25c-.34-.06-.54.19-.26.31a9,9,0,0,1-.85-.68c.21-.19.41.22.75.1s.22-.49-.11-.58c0,.16,0,.17.15.29-.48,0-.45-.2-.76-.34,0,.09-.14.2,0,.23a.64.64,0,0,1-.24-.63c.17.2.3-.08.43,0-.42-.05-.53-.33-.38-.65.5-.2-.26-.64-.1-1a1.94,1.94,0,0,1,.89.65c.23-.22,0-.27.24-.49-.31-.14-.79-.26-1-.56H130c-.16-.28-.62-.29-.53-.6a3.38,3.38,0,0,0,0-1.46l.29-.1c-.7,0-.48-.58-.91-.69,0-.6-.91-.75-.68-1.33a9.3,9.3,0,0,1-2.25-2.13l.47-.16c-.38.07.12-.27-.06-.37-.13.41-.53.11-.83.18,0-.6-.75-.82-1.28-.93l.23-.22c-.73.06-.69-.67-1-1.14.06-.14.21-.41.08-.5-.58.12-.65,0-1.18-.13a2.56,2.56,0,0,1-.53-1.07c-1.33-.38-1.82-1.58-3-2.17l.2-.32c-1.39-.31-1.91-1.84-2.92-2.28l.51-.38c-.09-.36-.64-.39-.89,0-.09-.36-.78-.34-.57-.85-.15-.31-.49-.07-.74-.19a2.15,2.15,0,0,0-1.05-1.09l.08.13c.14,0,.33-.25.25-.38-.29,0-.5-.7-.85,0-.19-.76-1.36-.78-1.44-1.64-.1.19-.25.11-.39.17-.43-.38-.61-1.1-1.18-1.13,0-.14.34-.17.18-.34s-.18.2-.38.18c-.93-.3-1.12-1.47-1.82-1.86-1.35-.51-2.34-1.31-3.54-1.69l.06-.13c-.57.39-.76-.9-1.35-.16,0-.17-.35-.17-.2-.43-.44.3-.87-.62-1.5-.21,0,0,.08,0,.15-.06-.45-.44-1-.06-1.5-.44.06,0,.17-.08.21-.23-.17-.32-.6.55-.62-.19-.12,0-.13.35-.06.34a8.07,8.07,0,0,0-3.81.08c-.92-.44-.06-1.22-.79-.68-.06-.14,0,.28,0,.12-.27.22-.46-.79-.65-.4.1.44-.12.26-.12.53-.57-.27-.72-.67-1.14-.29v-.23c-.47.71-1.11.4-1.44,1.23a30.14,30.14,0,0,0-7.67,2.83c-2.48,1-4.47,2.63-6.67,4.12-.88,0-.92,0-1.22.7-.05-.09,0-.14-.14-.17.34.38-.31.39,0,.77a8.23,8.23,0,0,0-1,1.08c-.28.38-.54.79-.85,1.2,0-.16-.23-.48-.32-.3l.14.35-.13-.05c0,.15.11.41.32.39a23,23,0,0,1-2,3.19,10.58,10.58,0,0,0-1.71,3.36,3.94,3.94,0,0,0-.45,2c-1.05,1.71-1.76,3.56-1.18,5.53C68.58,188.7,67.27,188.52,66.94,187.63Z"/><path class="cls-2" d="M129.54,193.38c.24-.12.36-.39.71-.2A5.07,5.07,0,0,1,129.54,193.38Z"/><path class="cls-2" d="M131.83,186c-.07,0,0-.16.08-.2s.29.12.2.26C132.05,186,132,186,131.83,186Z"/><path class="cls-2" d="M130.87,184.05c.19-.12.6.13.78.36Q131.25,184.2,130.87,184.05Z"/><path class="cls-2" d="M130.53,182.15c.06-.23.17-.27.28-.12C130.73,182.12,130.64,182.11,130.53,182.15Z"/><path class="cls-2" d="M130.06,182.39c-.09-.1,0-.24,0-.37C129.94,182.15,130.38,182.18,130.06,182.39Z"/><path class="cls-2" d="M128.29,179.27c-.07-.05-.33-.07-.19-.29C128,179.16,128.59,179.1,128.29,179.27Z"/><path class="cls-2" d="M127,178.26s0-.09-.1-.1a.2.2,0,0,1,.28-.12Z"/><polygon class="cls-2" points="103.09 159.96 103.29 159.9 103.21 160.11 103.09 159.96"/><path class="cls-2" d="M89.66,159.58c-.16.18-.16-.18-.2-.21C89.62,159.31,89.45,159.65,89.66,159.58Z"/><polygon class="cls-2" points="83.09 162.63 83.14 162.61 83.3 163.04 83.09 162.63"/><path class="cls-2" d="M248.83,128.87c.2-.4-.44-.09,0-.33C249,128.69,249,128.85,248.83,128.87Z"/><path class="cls-2" d="M188.45,82.55c1,1.28-.34,2.62.31,3.93,0,.15-.64-.09-.51.25.8,1.27.17,3.08-.55,4.55l-.19-.09c-.13.28.47.63.38.93-.12,0-.17-.1-.34,0,.36.08.17.54.45.66-.14.12-.43.11-.59.26l.42.17c1,.46-.05,1.15.48,1.78-.1,0-.17-.09-.27,0,.64,1,.61,2.29.92,3.41a1,1,0,0,0-.58,0c.44,0,.58.36.7.66-.44.18.46.48.25.86l-.1,0c.49.21-.23.42.36.57l-.33.21c.64,0-.28.42.06.6l.13,0c.18.18-.12.33,0,.5l-.07,0c.23.42-.08.73.41.65-.37.21-.24-.41-.78-.08a18.06,18.06,0,0,1,1.22,4.34c-.15.21-.18.33-.35.42.13.12.25.52.52.57,0-.05-.21.17-.21.25-.08.32.62.1.51.45a.51.51,0,0,0-.49.05c.44.11.52.44.75.67-.1,0-.17-.06-.31,0,.52.13.16.58.53.73l-.31,0c-.12.57.6-.13.59.31-.13,0-.21,0-.32.07.63.11.74.72,1.08,1a.25.25,0,0,0-.11,0c.25.32.31.77.73,1,0,.2-.62.31-.31.62.48-.3.58.5,1,0,.11.36.24,1,.53,1.06-.27,0-.5.53-.7.3l-.17.38c-.22.1-.06-.24-.27,0,.1.12.54.37.53.54.45,0,1.15-.09,1.46.25-.31-.06-.46.45-.62.38l1.27-.07c.11.11-.36.28-.11.38.12-.1.25-.07.39-.08,0,.08.47.45,0,.82-.15.18-.24-.14-.32.11.17.23.33.14.5.37l-.06,0c0,.2.5.32.65,0-.06-.12-.26.23-.22,0a.76.76,0,0,1,.76.38c-.13,0-.25.07-.4.12a3,3,0,0,1,1.3.56c.22-.15-.49.15-.41,0,0,.65,1.05.59.87,1.26-.09,0,.28-.26.22-.21.12.22-.2.44,0,.49-.17.15.18.12.34.2s-.07.11-.17,0c.3.07,1.13.55,1.23,1.15.11-.11.63-.15.69,0l-.28.21c-.08.23.3.26.1.49.48-.11-1-.46-.48-.44-.15.27.74,0,.35.24.18.17.61,0,.55.44,0-.09-.48.22-.32.34s.19-.06.48,0h.22c.24-.25.2.24.36-.14-.16.25.49.18.09.6l-.32.32c.14.07.49-.21.71-.3a.5.5,0,0,1-.09.2c.44-.53.25.27.7-.06.09.37.61.45.5.89.31,0,.63-.14.78.14-.08,0-.15,0-.24.12s.17.13.37.12c-.09.07.09.52.15.83.32,0,.42-.42.56-.6-.14.7.81,0,.76.62-.11,0-.47.13-.37.37-.12.71.64-.22.81.23l.18-.54c0,.39.62-.06.33.44.2-.13.3.36.51-.16.34.69,1.4.34,1.35,1.38.12,0,.28.11.34-.17s-.26.13-.23-.08c.07,0,.15-.12.18-.19.12.18.24.27-.09.63.28.47.7-.73,1.12-.36-.1.2-.09.3.07.31l.4-.28c.3.19,0,.55-.08.92.2,0,.41.08.57-.17l.07.53c-.05-.39.22-.18.33-.24l-.11.06c0,.17.21.14.33.12a.59.59,0,0,0-.23-.49c.14-.14.27-.06.44-.21-.15.36.21.34.34.41s.28-.27.32-.25c0,.19.25.1.05.33-.07.05-.07-.21-.21-.07.07.17,0,.49.25.31s.16-.73.41-.42c-.11.07-.16.22-.26.33l.24.27.1-.33c0,.09,0,.11,0,.16.18-.32.48,0,.65-.36.15,0,.25.32.39.38l0,0c.13.24.4.16.6,0l0,.07a.48.48,0,0,0,.49-.13c.19.3-.19,1.29.17.92.26.05.52-.53.46-.77.4.34,1-.15,1.32.45.09-.13.06-.22.21-.28.63.26,1.43-.18,1.86.55-.21.12,0,.34-.07.54.19-.29.15.34.27-.18,0-.31.06-.46-.11-.61a1.16,1.16,0,0,1,1.19.27c-.09-.15,0-.24.1-.32-.08.49.2.59.44.43l.06-.3.11.33c.1-.09.15-.63.34-.32a1.57,1.57,0,0,0,0,.33c.25-.23.6-.62.83-.34l.17.45c.11,0,.3-.3.13-.44.4.29.67.34.79.73a2.94,2.94,0,0,1,2.67-.82l0,.22c.23.22.12-.39.28-.23-.07.21.17.47,0,.73.33.25.43-.39.64-.49,0-.3-.17.19-.13-.19,0-.11.45.23.5-.22a1.35,1.35,0,0,1,0,.69l.2-.22c.25.52-.56.94-.29,1.59l.19-.07c.18.47-.5.53,0,.69.21-.22.38-.88.19-1.08.43-.12.19-1.07.64-1,.13.26-.36.07-.27.44s.42-.21.62-.08c-.22-.17,0-.63.08-.71.24.2-.14.43.19.46.05-.26.34-.47.08-.64.1-.59.34.15.5-.31.12.41-.3,1,.06,1.17-.07-.4.43-.56.21-1.15a.62.62,0,0,1,.08.67c.21.24.46-.74.56,0l0-.41c.07.13.16.22.27.44.18,0,.54-.59.56,0,0-.07.46-.06.28-.48-.26-.24-.27.33-.44-.24.2.46.36-.08.49-.25l0,.24c.08-.1.28-.06.32-.32a.32.32,0,0,0,.06.36L232,128c.34-.2.13.63.46.51l-.24.29c0-.06.19.27.35.15,0-.34.13-.74.17-1s.11.37.27,0l-.22.42c0,.11.21.53.47.5s.37-.62.1-.78c.13,0,.32.17.24.42.28-.14-.07-.35.17-.58.12.21.47.5.69.81l-.22.57h.17c-.19.46.15.33.06.81.12.06.26-.11.36-.24-.41-.72.31-1.05.15-1.73.46-.23.45,1.63.86.52-.1-.17.09-.71-.2-.49.31.05.14-.7.52-.45-.24.31.34.67,0,1.11,0-.23-.22-.16-.27-.09.14.25,0,.69.34.66s.44-.12.37-.47-.28.07-.2-.33c.36-.18.48.41.56-.29-.23.07-.32-.32-.35-.59l.26-.19,0,.26c.46.15.09-.48.52-.45l.25.49c-.06.45-.64-.13-.49.58.28,0,.33-.38.61-.22-.05.07-.13.1-.18.17.1,0,.3,1,.64.35.18-.24,0-.26,0-.53.44-.13.54-.41.82-.49,0,.53.51,0,.26.57-.18-.29-.82-.19-.93.32.23.61-.35,0-.39.59.36,0,.41.59.51,1,.1,0,.18-.16.24-.23,0-.38-.13-.36-.18-.75a.91.91,0,0,0,1-.58c.16.17.16.56,0,.61a3.08,3.08,0,0,1,1.44-.11c-.36-.58.49-.2.23-.69a.77.77,0,0,1-.41-.81c.16,0,0,.26.1.39.16-.36.37.5.49,0-.41.25,0,.76,0,1.25.28-.31,0,.34.34.31a3.14,3.14,0,0,1,1-.71c.49.41,1.11-.12,1.49-.19.23.22.16.78.39.85s-.27-.56.14-.36l0,.11c.09-.14.75.26.7-.54v.61c.08,0,.12-.11.16-.18,0,.18.16.34.07.49.32.35.48-.18.71-.27L246,129c.3-.37.67-.14,1-.42l.15.31c0-.1.07-.2.1-.3.12.32.44.38.38.07a3.74,3.74,0,0,1-.17,1.08c-.27-.09,0-.47-.26-.71s-.5,0-.45.34c.15,0,.13-.1.19-.25.24.41,0,.49,0,.83.07,0,.25,0,.21-.11-.07.29-.24.39-.52.49.13-.24-.19-.25-.16-.4.11.4-.14.62-.51.58-.34-.42-.59.44-1,.36a2.25,2.25,0,0,1,.44-1c-.27-.17-.26.06-.53-.12-.06.33-.08.83-.37,1.06l-.06-.31c-.26.19-.2.65-.57.61a9.64,9.64,0,0,0-1.71,0l-.05-.31c-.18.7-.83.34-1.14.68-.62-.23-1.25.44-1.61-.06a8.33,8.33,0,0,1-3,.66l.14-.47c-.16.35-.15-.25-.33-.17.25.35-.22.5-.33.79-.52-.3-1.1.13-1.51.48l0-.31c-.39.62-.95.15-1.5.09-.07-.13-.19-.42-.35-.37-.26.52-.41.49-.83.84a2.53,2.53,0,0,1-1.17-.27c-1.16.77-2.41.34-3.65.77l-.09-.37c-1.23.78-2.71,0-3.77.37l.13-.62c-.31-.22-.75.12-.69.57-.32-.2-.85.25-1-.29-.32-.14-.43.26-.72.32a2.57,2.57,0,0,0-1.55-.23l.15.06c.09-.13.13-.4,0-.46-.25.15-.84-.28-.7.5-.62-.51-1.64.13-2.2-.57,0,.21-.15.22-.25.35-.6-.09-1.14-.62-1.68-.39-.07-.12.22-.31,0-.38s-.06.26-.26.34c-1.05.18-1.84-.84-2.71-1a8.29,8.29,0,0,1-2.37-.45c-.38-.11-.76-.24-1.17-.4l-1.14-.44.08-.14c-.73.33-.86-1-1.61-.42,0-.19-.39-.27-.18-.49-.55.18-.83-.86-1.6-.69,0,0,.09,0,.17,0-.36-.57-1-.44-1.43-1,.09,0,.21,0,.3-.12-.05-.37-.83.23-.55-.45-.13-.07-.29.25-.2.28-1.05-1-2.54-1.6-3.75-2.58-.45-1.08.83-.89-.14-1.13.05-.15-.24.15-.14,0-.37-.11.27-.91-.15-.83-.29.36-.29,0-.5.22-.19-.69.05-1-.52-1.21l.21-.12c-.88-.06-1-.81-1.89-.77-1-1.29-1.84-2.4-2.78-3.56a34.36,34.36,0,0,1-2.69-3.74,38.15,38.15,0,0,1-2.08-4.45c-.15-.4-.27-.83-.4-1.26s-.21-.9-.26-1.25a17.58,17.58,0,0,1-.25-2.3c.49-.82.47-.86.11-1.61.1,0,.13.07.22,0-.51,0-.13-.54-.63-.55,0-1.14-.31-2.17-.42-3.33.07.18.5.23.44,0l-.34-.2.14-.05c-.09-.15-.35-.29-.5-.12-.68-2.93.26-5.86.24-8.71a6.65,6.65,0,0,0,0-2.4c.83-2.15,1.58-4,1.46-6.26C187,81.14,188.28,81.63,188.45,82.55Z"/><path class="cls-2" d="M248.49,129.28c-.25-.13-.53-.07-.58-.47C248.08,129,248.36,129.09,248.49,129.28Z"/><path class="cls-2" d="M241.44,128.44c0,.08-.1-.09-.13-.13s.13-.25.21-.12C241.44,128.22,241.46,128.33,241.44,128.44Z"/><path class="cls-2" d="M239.77,128.48c0-.23.33-.44.54-.49Z"/><path class="cls-2" d="M238.13,127.72c-.15-.17-.13-.28.05-.3C238.21,127.54,238.16,127.61,238.13,127.72Z"/><path class="cls-2" d="M238.08,128.24c-.13,0-.21-.1-.28-.22C237.82,128.21,238.08,127.86,238.08,128.24Z"/><path class="cls-2" d="M234.69,127.91c-.08,0-.23.22-.33,0C234.46,128.06,234.72,127.57,234.69,127.91Z"/><path class="cls-2" d="M233.18,128.37c-.05,0-.07-.05-.12,0a.2.2,0,0,1,.06-.3Z"/><polygon class="cls-2" points="206.15 125.34 206.34 125.32 206.22 125.5 206.15 125.34"/><path class="cls-2" d="M197.66,117.53c-.21-.06.11-.22.12-.26C197.89,117.38,197.52,117.38,197.66,117.53Z"/><polygon class="cls-2" points="193.05 112.49 193.08 112.53 192.68 112.75 193.05 112.49"/><path class="cls-3" d="M199,70.68c-.08-.28-.4.12-.16-.19C199,70.54,199.14,70.6,199,70.68Z"/><path class="cls-3" d="M147.86,63.9c1.4.36.62,1.79,1.61,2.4.08.09-.62.18-.4.35,1.15.55,1.05,2,.72,3.27h-.19c-.06.23.59.27.58.5-.11,0-.18,0-.32.1.36-.07.28.31.57.31-.11.13-.38.21-.5.37l.44,0c1,0,.21.81.86,1.07-.09,0-.18,0-.26.07.83.49,1.07,1.4,1.63,2.06a1.28,1.28,0,0,0-.54.23.69.69,0,0,1,.8.2c-.36.29.54.15.43.49l-.1,0c.51,0-.11.39.47.24l-.25.28c.59-.25-.15.4.21.37l.11-.07c.2,0,0,.28.14.33l-.05,0c.31.16.13.52.53.22-.26.33-.32-.14-.69.34a22.21,22.21,0,0,1,2.61,2c0,.23,0,.33-.08.49.15,0,.39.16.61,0,0,0-.08.25,0,.3.07.27.47-.34.53,0a.66.66,0,0,0-.32.37c.36-.24.54,0,.79-.06a.46.46,0,0,0-.21.21c.42-.27.34.29.66.14l-.2.22c.16.46.35-.49.52-.19-.1.06-.12.17-.18.27.46-.35.78,0,1.09-.11a.8.8,0,0,0-.05.11c.29,0,.53.27.89.15.08.16-.22.67.11.64.13-.56.57-.11.53-.78.22.15.59.41.78.25-.15.2,0,.71-.18.73l.13.37c-.06.23-.17-.11-.15.2.12,0,.48-.22.58-.11.24-.33.44-1,.75-1.07-.15.23.1.63,0,.73a8.68,8.68,0,0,0,.38-1.12c.1,0,.06.45.2.29a.78.78,0,0,1,.05-.38c0,.07.37-.19.52.35.09.2-.15.15,0,.32.2,0,.17-.24.35-.28l0,.07c.16.06.3-.34.08-.59-.08,0,.12.31,0,.19a.5.5,0,0,1,.32-.54,1.33,1.33,0,0,0,.06.4,2.13,2.13,0,0,1,.49-1c-.09-.25.08.49,0,.38.49.2.54-.79,1.06-.41,0,.06-.18-.35-.14-.28.19,0,.33.33.39.14.1.21.12-.12.22-.24s.07.09,0,.16c.09-.25.67-.85,1.22-.68-.06-.15.09-.62.2-.64l.07.35c.15.17.34-.13.44.15.08-.48-.72.61-.53.2.16.26.23-.67.32-.19.19-.07.3-.51.59-.24-.07,0-.05.51.11.45s0-.19.29-.36l.15-.17c0-.34.34,0,.15-.36.07.26.54-.24.54.35l0,.45c.14,0,.22-.48.36-.68a.41.41,0,0,1,.05.21c0-.7.37.06.6-.44.32.26.85.18.89.63.29-.15.58-.3.79-.07-.07,0-.15,0-.21.17s.19.08.37,0c-.07.08.14.5.19.79.28-.11.38-.47.49-.66-.13.69.77-.12.68.55-.11,0-.42.15-.36.38-.17.68.58-.26.67.18l.23-.52c-.07.37.54,0,.22.43.19-.13.19.34.46-.15.15.65,1.1.38.79,1.35.1,0,.19.13.31-.13s-.24.11-.16-.09c.06,0,.15-.11.19-.17,0,.18.12.28-.23.59.07.46.76-.62,1-.25-.13.19-.15.28,0,.3l.37-.23c.15.19-.15.51-.33.85.14,0,.27.1.46-.13l-.09.5c.06-.37.19-.16.29-.22l-.1.06c-.05.15.13.13.21.11a.52.52,0,0,0,0-.46c.13-.13.2,0,.35-.2-.18.33.06.32.13.39s.23-.26.26-.24c-.08.18.14.09,0,.32-.06,0,0-.21-.13-.07s-.12.47.11.29.24-.7.35-.41a2.22,2.22,0,0,0-.24.32l.13.25.12-.32a.91.91,0,0,1,0,.16c.17-.32.32,0,.48-.38.1,0,.13.28.21.34l0,0c.05.23.24.14.38-.06l0,.07c.06,0,.21,0,.33-.17.1.28-.19,1.29.07.9.17,0,.35-.58.32-.81.26.26.63-.25.86.3.05-.14,0-.23.12-.31.42.17.87-.39,1.24.27-.12.15,0,.35,0,.55.09-.32.15.3.16-.23,0-.31,0-.46-.16-.57a.53.53,0,0,1,.79,0,.32.32,0,0,1,0-.34c0,.49.25.54.37.35l0-.31.14.3c0-.11,0-.64.15-.37a1.25,1.25,0,0,0,.1.31c.1-.28.22-.73.43-.51l.23.4c.05-.06.1-.35,0-.44.33.19.51.17.7.52a1.64,1.64,0,0,1,1.37-1.41l.07.21c.22.14-.08-.4.08-.29s.29.39.28.68c.3.13.11-.48.19-.62-.1-.28,0,.21-.15-.14,0-.11.37.1.2-.33a1.79,1.79,0,0,1,.28.63l0-.25c.38.4.05,1,.48,1.53l.09-.13c.32.38-.1.64.28.64a1.47,1.47,0,0,0-.33-1c.21-.24-.35-1-.07-1.13.2.2-.18.17,0,.47s.18-.3.34-.25c-.2-.08-.3-.55-.27-.66.23.11.12.42.33.36-.09-.25,0-.51-.25-.59-.22-.55.27,0,.14-.41.27.32.28.94.6,1-.23-.32,0-.61-.43-1.06a1,1,0,0,1,.37.56c.24.14-.11-.79.34-.13l-.18-.37c.11.09.21.14.39.29.11-.05,0-.67.34-.15,0-.07.23-.2-.1-.49-.28-.13,0,.36-.37-.07.35.33.15-.18.14-.36l.15.19c0-.11.12-.13,0-.36a.52.52,0,0,0,.22.27l-.16-.32c.06-.28.41.48.52.26l0,.33c0-.07.26.16.27,0-.16-.29-.35-.65-.48-.87s.28.26.16-.08l.12.41c.05.1.43.37.55.25s-.17-.63-.41-.66c0-.06.27,0,.38.25.06-.2-.25-.26-.26-.51.19.13.55.24.85.39l.24.53.09-.08c.19.44.29.2.54.61.11,0,.07-.19.05-.34-.68-.39-.51-.93-1-1.37.08-.33,1.3,1,.77.07-.16-.09-.44-.56-.43-.29.19-.08-.41-.56-.05-.51.09.3.63.34.76.79-.15-.17-.22,0-.2,0,.25.12.49.49.63.34s.14-.27-.14-.49-.09.16-.33-.16c.05-.27.53.09.06-.43,0,.14-.38-.1-.58-.28l0-.22.18.19c.31-.08-.31-.37-.1-.5l.47.23c.32.33-.39.15.2.58.13-.11-.11-.38.13-.39a1.49,1.49,0,0,0,0,.18s.84.51.55,0c-.09-.23-.18-.18-.39-.34.1-.26-.09-.49,0-.65.42.32.21-.23.55.23-.31-.1-.48.24-.15.61.56.29-.21.13.26.56.15-.18.64.2,1,.41.06,0,0-.2-.06-.27-.29-.24-.34-.17-.66-.39.24-.16.21-.5,0-.81.2,0,.51.25.48.36a1.51,1.51,0,0,1,.54-.79c-.63-.13,0-.37-.5-.49a1,1,0,0,1-.84-.23c.08-.06.24.13.37.16-.25-.26.56.09.14-.26.06.33.65.39,1.06.66-.15-.32.3.16.4,0a2.38,2.38,0,0,1-.24-.89c.55-.09.26-.69.33-.93.27-.05.77.2.9.07s-.6,0-.29-.22l.1,0c-.11-.1.5-.39-.26-.64l.56.21c.06,0-.06-.11-.11-.17.19,0,.37,0,.48.13.43-.08,0-.37,0-.55l-.37,0c-.2-.35.15-.5.08-.82l.34,0-.18-.2c.32.08.56-.07.28-.19a9.28,9.28,0,0,1,.78.58c-.22.11-.39-.2-.74-.16s-.24.33.08.43c.05-.11,0-.12-.14-.23.48,0,.44.2.74.34,0-.07.15-.13,0-.17a.44.44,0,0,1,.21.49c-.16-.17-.31,0-.43-.06.41.09.5.31.33.54-.5.07.2.53,0,.79a2.6,2.6,0,0,1-.8-.66c-.25.12,0,.19-.29.3.28.17.74.36.86.65l-.31-.08c.09.25.53.39.35.63a12.22,12.22,0,0,0-.68,1.18l-.29-.12c.51.46-.07.71,0,1.09-.48.25-.27,1-.86.93a4.06,4.06,0,0,1-1.23,2.09l-.23-.42c.14.34-.26-.11-.31,0,.38.14.2.48.32.75-.52,0-.6.63-.66,1.1l-.21-.23c.12.67-.54.55-.93.72-.12-.07-.36-.27-.43-.16.12.55,0,.58-.11,1a1.55,1.55,0,0,1-.93.22c-.43,1.11-1.51,1.16-2.24,1.94l-.21-.31c-.58,1.12-2,.84-2.65,1.42l-.09-.63c-.29-.12-.52.31-.35.73-.3-.13-.59.43-.85,0-.29-.06-.28.34-.49.46a1.81,1.81,0,0,0-1.28.09l.14,0c0-.15,0-.42-.11-.44-.17.19-.71-.12-.48.62a1.07,1.07,0,0,0-.94,0,.9.9,0,0,1-.93-.21c0,.21-.1.24-.18.37-.52,0-1-.51-1.44-.25-.06-.12.19-.32,0-.38s-.05.26-.22.35c-.93.21-1.55-.81-2.26-1A8.77,8.77,0,0,1,174,83.9l.09-.12c-.61.29-.36-.94-1-.35,0-.16-.2-.2,0-.42-.42.22-.41-.7-.94-.38,0,0,.05,0,.11,0-.14-.45-.57-.15-.72-.52a.63.63,0,0,0,.18-.22c0-.31-.46.52-.3-.2-.06,0-.14.34-.1.33a.68.68,0,0,0-.77-.11c-.25.1-.38.29-.75.48-.67-.25-.4-1.17-.68-.5-.08-.12.06.27,0,.13-.11.25-.56-.67-.56-.26.21.4,0,.27.09.52-.47-.13-.71-.47-.88,0L167.7,82c-.11.76-.66.61-.7,1.45l-.83.39c-.34.13-.69.29-1,.4a11.63,11.63,0,0,1-2.16.49,10.59,10.59,0,0,1-4.25-.33c-2.53-1-4.89-2.15-6.49-4.3a2.31,2.31,0,0,0-.14-.91,1.78,1.78,0,0,0-.58-.5c.1,0,.14,0,.19-.11-.43.27-.32-.38-.76-.16-.47-.9-1-1.59-1.38-2.42.11.11.51,0,.41-.15l-.37,0,.12-.09c-.12-.07-.4-.08-.49.1-1.37-1.95-1.08-4.3-1.84-6.19a3.19,3.19,0,0,0-.61-1.58c.17-1.65.26-3.17-.71-4.29C146.07,63.76,147.34,63.41,147.86,63.9Z"/><path class="cls-3" d="M199,71c-.26,0-.41.21-.74,0A4.65,4.65,0,0,1,199,71Z"/><path class="cls-3" d="M195.34,74.76c.07,0-.11,0-.16,0s-.16-.19,0-.16S195.26,74.7,195.34,74.76Z"/><path class="cls-3" d="M194.71,75.61a.55.55,0,0,1-.19-.54Z"/><path class="cls-3" d="M193.41,75.86c-.2-.06-.27-.14-.21-.21S193.33,75.78,193.41,75.86Z"/><path class="cls-3" d="M193.78,76.22c-.05.06-.17,0-.3,0C193.64,76.3,193.49,76,193.78,76.22Z"/><path class="cls-3" d="M191.94,77.28s0,.26-.18.1C191.92,77.47,191.74,77,191.94,77.28Z"/><path class="cls-3" d="M191.45,78.16s-.07,0-.06.06-.17-.21-.14-.26Z"/><polygon class="cls-3" points="174.74 79.24 174.92 79.21 174.79 79.39 174.74 79.24"/><path class="cls-3" d="M164.65,79.72c0,.16-.13-.19-.15-.21S164.56,79.78,164.65,79.72Z"/><polygon class="cls-3" points="160.5 80.91 160.54 80.91 160.41 81.36 160.5 80.91"/><path class="cls-3" d="M231.13,211.39c.21-.08-.06-.41.15-.16C231.23,211.41,231.18,211.54,231.13,211.39Z"/><path class="cls-3" d="M250.61,191.74c-.65.11-.85-.11-1-.41s-.38-.6-.86-.53c-.09,0,.44-.47.21-.46-1.06.28-1.4-.69-1.64-1.71l.15-.13c-.05-.19-.54.21-.62.06s.14-.12.2-.28c-.23.29-.32,0-.52.19,0-.16.18-.4.2-.57l-.29.3c-.72.72-.47-.37-1-.08a.59.59,0,0,0,.14-.22c-.74.27-1.26-.11-1.87-.08a1.89,1.89,0,0,0,.2-.55.71.71,0,0,1-.52.5c0-.46-.33.34-.42.07l0-.1c-.17.46-.15-.28-.28.27l0-.36c0,.28-.07.24-.11.15s-.12-.34-.17-.16v.13c-.09.16-.16-.16-.25-.05v-.07c-.21.18-.36-.17-.32.33-.11-.39.2-.19,0-.76a4.77,4.77,0,0,1-2.17.72,1.25,1.25,0,0,1-.24-.41c-.06.12-.26.15-.28.41a.53.53,0,0,0-.14-.25c-.17-.16,0,.56-.23.37a.91.91,0,0,0,0-.48c0,.41-.23.38-.36.53a.66.66,0,0,0,0-.29c-.1.46-.32,0-.42.25v-.29c-.28-.31,0,.6-.21.43a.93.93,0,0,0,0-.33c-.12.55-.45.41-.63.6a.45.45,0,0,0,0-.12c-.21.09-.43-.06-.66.17-.09-.12,0-.7-.21-.59,0,.58-.37.25-.23.9-.19-.1-.48-.31-.6-.11.08-.22-.1-.7.05-.75l-.12-.35c0-.23.12.08.08-.22-.08,0-.3.26-.37.17-.14.36-.25,1-.46,1.1.09-.23-.1-.63,0-.73-.09.37-.17.74-.24,1.12-.07,0-.05-.45-.15-.29a1.11,1.11,0,0,1,0,.37c0-.06-.27.17-.37-.38-.07-.22.1-.14,0-.33-.13,0-.11.22-.24.25l0-.08c-.1-.07-.21.29-.06.58.06,0-.08-.34,0-.19,0,.34-.13.45-.24.48a1.5,1.5,0,0,0,0-.4,2.62,2.62,0,0,1-.29.87c.07.26-.08-.49,0-.36-.33-.28-.24.63-.6.2,0-.06.16.35.13.28s-.26-.35-.27-.19c-.1-.2,0,.11-.08.19s-.06-.09,0-.14c0,.22-.15.7-.52.55a1.14,1.14,0,0,1,.16.55l-.19-.3c-.16-.15-.13.11-.31-.12.15.41.14-.55.21-.19-.2-.22.15.58-.1.17-.09.07.09.45-.2.25.06,0-.23-.44-.29-.36s.07.16.05.33l0,.16c.22.26-.13.06.17.31-.21-.2,0,.27-.42-.16l-.29-.34c0,.07.24.42.34.6l-.16-.13c.48.49-.15.08.18.5-.27-.06-.26.24-.62,0,.08.23.21.46,0,.46a.56.56,0,0,0-.14-.2c-.21-.06-.08.06,0,.19a3.14,3.14,0,0,0-.67-.18c.1.21.42.4.6.54-.62-.31.18.51-.4.27-.06-.09-.18-.33-.38-.35-.62-.28.3.46-.07.43l.5.26c-.33-.12.15.38-.33.07.15.15-.26.07.22.34-.54,0-.08.71-1,.41.06.08-.07.13.19.24s-.15-.19.05-.11c0,0,.13.11.19.15-.15,0-.22.07-.59-.21-.39,0,.75.59.45.72-.2-.1-.29-.12-.28,0l.29.29c-.15.11-.51-.13-.86-.29,0,.11,0,.21.21.36l-.49-.09c.35.06.18.16.25.23l-.07-.07c-.15-.05-.1.09-.08.15a.62.62,0,0,0,.44,0c.14.11.08.16.24.29-.34-.17-.3,0-.37.08s.29.21.27.23c-.19-.08-.08.1-.32-.05,0,0,.2,0,.06-.1s-.47-.13-.28.06.7.25.42.31a3.58,3.58,0,0,0-.32-.21l-.24.07.32.13a.76.76,0,0,1-.16,0c.33.18,0,.26.4.43,0,.08-.28.07-.34.12l0,0c-.22,0-.13.17.07.32l-.07,0s0,.16.14.28c-.28,0-1.25-.37-.88-.11,0,.13.55.38.77.4-.29.14.18.54-.39.58.12.07.21.07.27.15-.21.27.23.73-.48.82-.12-.12-.34-.09-.53-.13.28.15-.33,0,.18.16.3.07.45.11.59.05a.33.33,0,0,1-.24.53.39.39,0,0,1,.33.09c-.49-.11-.59,0-.43.14l.29.07H227c.09.06.62.15.32.2a1.22,1.22,0,0,0-.32,0c.22.14.62.34.35.41l-.45,0a.51.51,0,0,0,.44.09c-.29.16-.33.28-.72.3.89.42.92.83.85,1.19h-.22c-.22.1.39,0,.24.11a3.56,3.56,0,0,1-.74,0c-.23.15.4.17.51.25.3,0-.19-.06.19-.06.1,0-.23.2.22.19a3.14,3.14,0,0,1-.69,0l.23.07c-.52.15-1-.17-1.6,0l.08.09c-.46.12-.55-.21-.69,0a2.09,2.09,0,0,0,1.08,0c.14.18,1.08,0,1.06.18-.26.08-.08-.14-.45-.07s.22.16.11.26a1.15,1.15,0,0,1,.7-.05c-.19.12-.43,0-.45.13.26,0,.47.07.63-.05.59-.05-.14.15.32.15-.4.11-1,0-1.15.2.39-.09.57.08,1.14-.1a1.51,1.51,0,0,1-.66.14c-.22.14.75,0,0,.24l.41-.07-.42.2c0,.07.59.07,0,.22.07,0,.08.17.47,0,.23-.16-.32,0,.22-.22-.44.18.09.11.25.11l-.22.07c.09,0,.07.08.32,0a.87.87,0,0,0-.34.12l.36-.08c.21,0-.59.23-.46.31h-.29c.06,0-.24.15-.12.17l1-.26c.16,0-.33.16,0,.1l-.41.06c-.1,0-.48.26-.44.35a1.2,1.2,0,0,0,.74-.25s-.14.18-.37.25c.14.05.32-.16.54-.16a8.25,8.25,0,0,0-.67.56l-.55.15,0,.07c-.45.11-.28.19-.73.35,0,.08.13.07.26.06.61-.47,1-.32,1.57-.69.24.05-1.39.92-.37.55.14-.12.63-.31.41-.3,0,.13.62-.29.44,0-.29.07-.53.45-.95.55.19-.11.1-.16,0-.15-.19.18-.59.35-.52.46s.17.12.46-.09-.1-.07.26-.25c.19,0-.29.4.32.06-.1,0,.23-.29.45-.44l.19,0-.23.14c-.07.23.41-.23.43-.09l-.37.36c-.38.24,0-.28-.54.15,0,.11.36-.08.26.1l-.16,0s-.72.66-.19.44c.22-.07.22-.14.43-.31.16.08.41-.08.5,0-.41.33.08.16-.39.45.19-.26,0-.39-.41-.13-.44.45,0-.16-.54.2.09.13-.4.51-.69.78,0,.06.17,0,.23,0,.31-.23.26-.27.56-.52,0,.19.31.17.63,0-.1.16-.38.41-.45.39a.64.64,0,0,1,.4.47c.32-.54.26,0,.53-.42a1.46,1.46,0,0,1,.47-.72c0,.06-.18.2-.25.31.27-.21-.27.48.13.12-.25,0-.51.56-.84.91.28-.12-.23.26-.12.35a2.65,2.65,0,0,1,.72-.2c-.11.5.39.26.52.32,0,.26-.34.71-.29.84s.18-.56.23-.26l-.06.09c.09-.1.15.48.49-.23l-.27.53c0,.06.09-.06.14-.1a1.59,1.59,0,0,1-.2.45c0,.42.26,0,.38.05l0-.36c.27-.18.3.17.52.1l-.08.34.16-.17c-.1.31,0,.55.09.29a7.57,7.57,0,0,1-.52.74c0-.22.21-.37.22-.72s-.17-.25-.3.06c.06.05.09,0,.18-.13-.1.47-.21.43-.36.71,0,0,.07.15.12,0-.15.2-.25.22-.4.18.15-.15,0-.3.12-.42-.14.4-.32.47-.46.29.06-.48-.44.16-.59-.06a3.21,3.21,0,0,1,.67-.72c0-.25-.13-.05-.14-.3-.19.27-.44.69-.69.78l.13-.28c-.2.06-.43.47-.57.29a5.9,5.9,0,0,0-.71-.71l.18-.25c-.52.43-.53-.11-.87,0,0-.44-.75-.31-.46-.81a2.34,2.34,0,0,1-1.33-1.17l.44-.15c-.34.08.19-.2.08-.26-.25.3-.48.12-.76.19.16-.41-.32-.54-.73-.64l.28-.14c-.64,0-.3-.49-.3-.81.11-.08.37-.23.3-.31a1.44,1.44,0,0,1-.9-.25,1,1,0,0,1,.15-.74c-.86-.53-.49-1.32-.95-2l.37-.07c-.82-.68-.08-1.54-.41-2.14l.62.12c.21-.16-.12-.42-.57-.43.21-.16-.25-.5.28-.54.15-.16-.25-.27-.3-.44a.81.81,0,0,0,.23-.83l-.06.08c.13.06.39.12.45.05-.15-.17.27-.42-.5-.47.51-.25-.13-.93.54-1.12-.21,0-.22-.12-.34-.2.08-.31.58-.5.33-.85.11,0,.3.19.36.07s-.25-.09-.33-.21c-.19-.62.72-.84.8-1.31a5.21,5.21,0,0,1,.82-2.43l.13.08c-.36-.53.82-.28.2-.91.16,0,.19-.19.41,0-.23-.42.66-.32.42-.89,0,0,0,.05,0,.12.46-.08.28-.59.74-.69a.4.4,0,0,0,.13.25c.31.08-.28-.66.33-.25,0-.06-.25-.28-.26-.23.71-.41,1-1.33,1.62-2,.78,0,.74,1,.83.25.12.1-.13-.24,0-.12.05-.29.68.53.59.14-.28-.36-.05-.26-.19-.49.49,0,.72.38.84-.05l.08.23c0-.76.56-.58.62-1.4a16.88,16.88,0,0,1,2.84-.85c.87-.19,1.69-.29,2.19-.37a5.51,5.51,0,0,0,1.7-.23,7.56,7.56,0,0,1,2.45-.23c.49.58.5.55.94.27,0,.11,0,.13,0,.22,0-.51.32-.06.34-.55a3.4,3.4,0,0,0,.58,0,7,7,0,0,1,2.08.28c-.14,0-.32.39-.17.4l.25-.25,0,.14a.4.4,0,0,0,.27-.42c2.13.34,2.9,2.09,4.24,2.91.17.39.7.56,1.09.75a14,14,0,0,0,.77,1.82,7,7,0,0,0,1.35,1.65A4.17,4.17,0,0,1,250.61,191.74Z"/><path class="cls-3" d="M230.88,211.4c0-.26-.11-.42.05-.73C230.9,210.9,230.93,211.18,230.88,211.4Z"/><path class="cls-3" d="M229.14,207.82c0,.06,0-.1.06-.14s.19-.15.13,0S229.22,207.75,229.14,207.82Z"/><path class="cls-3" d="M228.77,207.28a.57.57,0,0,1,.46-.16Z"/><path class="cls-3" d="M229.09,206.24c.12-.16.21-.21.24-.16A1.67,1.67,0,0,1,229.09,206.24Z"/><path class="cls-3" d="M228.66,206.53s.06-.13.15-.23C228.66,206.42,229,206.31,228.66,206.53Z"/><path class="cls-3" d="M228.56,205.18s-.22,0,0-.12C228.41,205.16,228.87,205.05,228.56,205.18Z"/><path class="cls-3" d="M228,204.83s0,0,0,0a.39.39,0,0,1,.28-.08Z"/><polygon class="cls-3" points="229.42 192.99 229.47 193.11 229.29 192.99 229.42 192.99"/><path class="cls-3" d="M233.25,189.93c0-.15.09.2.1.23S233.32,189.88,233.25,189.93Z"/><polygon class="cls-3" points="236.28 188.59 236.25 188.59 236.25 188.13 236.28 188.59"/><path class="cls-3" d="M72.25,221c.15,0,.26-.31.18-.06S72.17,221.13,72.25,221Z"/><path class="cls-3" d="M73.63,195c.12,1.22-.77.31-.78,1.17,0,.06-.29-.58-.31-.4.1,1-.6.76-1.41.47l-.09-.16c-.15-.05.12.5,0,.49a1.1,1.1,0,0,0-.2-.27c.21.3,0,.24.11.48-.12-.09-.3-.32-.44-.41l.22.36c.53.84-.32.18-.12.7a1.12,1.12,0,0,0-.18-.2c.2.66-.13.85-.15,1.26a3.59,3.59,0,0,0-.47-.35c.35.28.38.43.4.55-.39-.22.26.34,0,.29l-.08-.06c.37.3-.29,0,.17.29l-.33-.13c.54.32-.34-.06-.08.15l.11,0c.12.12-.18,0-.11.1l-.07,0c.1.17-.24.11.21.29-.38-.1-.12-.18-.68-.33a1.92,1.92,0,0,1,.08,1.38,1.85,1.85,0,0,1-.46,0c.1.06.08.18.33.23a1,1,0,0,0-.28,0c-.19.08.55.1.32.18a1.71,1.71,0,0,0-.47,0c.38.08.32.17.45.25a2.11,2.11,0,0,0-.29,0c.45.07-.08.19.21.25H69c-.33.19.6,0,.41.12a1.22,1.22,0,0,0-.32,0c.53,0,.39.22.59.28l-.12,0c.09.1,0,.26.22.3-.1.08-.66.22-.52.31.54-.21.3.1.87-.22,0,.12-.17.35,0,.31-.21.06-.59.39-.68.33l-.26.24c-.21.1,0-.11-.22,0,0,0,.32.07.26.13.34-.12,1-.37,1.15-.27-.25.05-.57.32-.68.33a10.53,10.53,0,0,1,1.17-.3c.06,0-.43.19-.23.19a1.38,1.38,0,0,1,.39-.09c-.05,0,.29.15-.26.34-.2.09-.17,0-.33.09.07.06.26,0,.32.08l-.07,0c0,.06.34.09.61,0,0,0-.33.11-.2,0,.35,0,.49,0,.54.16a1.72,1.72,0,0,0-.42,0,1.25,1.25,0,0,1,.85.35c.26,0-.49,0-.35,0-.37.24.51.42-.09.62,0,0,.4,0,.32,0s-.46.1-.33.17c-.24,0,.05.08.1.16s-.12,0-.13-.05c.17.09.38.56,0,.74.15,0,.49.26.45.32l-.33-.1c-.23,0,0,.19-.33.12.37.22-.21-.52.06-.29-.3,0,.48.35,0,.2,0,.1.32.33,0,.33.06,0-.44-.23-.45-.14s.16.08.25.2l.12.09c.33.11-.07.07.31.15-.28-.07.13.19-.42,0l-.43-.15a3.6,3.6,0,0,0,.62.3,1.15,1.15,0,0,1-.2,0c.66.2-.08.09.42.28-.26,0-.09.21-.52.15.19.11.42.23.26.28a.77.77,0,0,0-.22-.1c-.21,0,0,.06.07.13a3.86,3.86,0,0,0-.67,0,2.91,2.91,0,0,0,.78.22c-.68-.07.39.28-.23.24a1,1,0,0,0-.49-.14c-.68-.06.47.22.12.26l.56.07c-.35,0,.31.2-.26.1.2.07-.2.09.35.16-.49.1.22.43-.77.42.08,0,0,.08.27.1s-.21-.08,0-.07a1.2,1.2,0,0,0,.23.06c-.13,0-.17.07-.62,0-.36.09.92.22.69.34-.22,0-.31,0-.28,0l.39.11a2.71,2.71,0,0,1-.91,0c.06.05,0,.12.33.16l-.49,0c.35,0,.23,0,.32.08l-.09,0c-.17,0-.07.07,0,.1a.79.79,0,0,0,.41-.08c.16,0,.12.08.32.12-.38,0-.27.07-.32.11s.34.06.32.08c-.19,0,0,.07-.3,0-.07,0,.19,0,0-.07s-.49,0-.24.09.74,0,.5.09-.24,0-.38-.06l-.19.09h.18c.36,0,.11.14.52.16,0,0-.24.09-.28.13h0c-.2.05-.07.12.16.16H71s0,.09.23.12c-.26.07-1.3.05-.87.12,0,.08.64.09.85.05-.22.14.35.25-.17.4a1.37,1.37,0,0,1,.31,0c-.12.19.42.34-.23.55a1.54,1.54,0,0,0-.54.06c.32,0-.31.09.22,0a2,2,0,0,0,.58-.11c.18.09.2.24-.08.34a.66.66,0,0,1,.33,0c-.49.06-.55.15-.37.19l.3,0-.3.09c.1,0,.63-.07.35,0a2.21,2.21,0,0,0-.32.07c.26,0,.68,0,.44.14l-.42.14a.74.74,0,0,0,.44-.06,1.63,1.63,0,0,1-.63.35c1,0,1,.27,1,.5l-.22,0c-.19.11.39-.07.25,0a5.16,5.16,0,0,1-.71.19c-.21.15.41,0,.52,0,.29-.07-.19,0,.18-.08.1,0-.2.18.24.07a4.7,4.7,0,0,1-.67.18H72c-.49.22-1,.11-1.55.36l.08,0c-.44.18-.55,0-.67.18a3,3,0,0,0,1-.24c.15.09,1-.25,1-.12-.24.11-.08-.07-.43.06s.22.05.11.14a1.72,1.72,0,0,1,.69-.19c-.19.12-.42.09-.44.19.25-.07.47-.05.61-.17.58-.15-.12.13.33,0a7.47,7.47,0,0,0-1.11.37,9.21,9.21,0,0,0,1.1-.29,2.14,2.14,0,0,1-.63.22c-.22.14.73-.11,0,.16l.39-.12-.41.22c0,.05.57,0,0,.16.07,0,.08.11.46-.09.22-.15-.31,0,.21-.19-.42.2.09.06.25,0l-.22.09c.09,0,.06.06.31,0a1.38,1.38,0,0,0-.33.14l.34-.11c.21,0-.58.26-.45.3l-.29,0c.07,0-.24.14-.11.14l.93-.31c.16,0-.33.16,0,.07l-.39.1c-.11,0-.49.25-.46.31a1.87,1.87,0,0,0,.73-.27s-.15.15-.38.22c.14,0,.32-.15.54-.17-.19.11-.45.31-.72.49l-.54.16,0,.05c-.43.12-.3.17-.74.33,0,.06.11,0,.23,0a16.52,16.52,0,0,1,1.59-.64c.21,0-1.47.78-.45.44.15-.1.65-.27.44-.25,0,.1.64-.26.42-.06s-.58.37-1,.47c.2-.1.12-.13.06-.11-.22.14-.62.29-.58.37s.12.08.44-.1-.08,0,.29-.19c.17,0-.35.31.28,0-.07,0,.28-.23.52-.35l.17,0-.23.11c-.12.18.43-.19.42-.07l-.44.29c-.4.18.11-.23-.52.12,0,.08.34-.07.21.08a.68.68,0,0,0-.15,0s-.84.51-.3.34a1.9,1.9,0,0,0,.47-.24c.12.06.38,0,.45,0-.46.25,0,.14-.48.34.25-.19.13-.31-.32-.11-.53.35,0-.12-.54.16,0,.09-.5.39-.85.6,0,0,.15,0,.22,0,.33-.18.31-.21.65-.4,0,.15.21.13.56,0a1.51,1.51,0,0,1-.53.28c.16.06.19.21.16.38.48-.4.2,0,.6-.28a2.2,2.2,0,0,1,.68-.53c0,.05-.23.14-.33.23.31-.14-.42.35.06.11-.23,0-.65.38-1.07.63.28-.07-.29.18-.24.26a1.91,1.91,0,0,1,.65-.08c-.3.36.18.26.25.33-.16.19-.63.49-.66.6s.44-.4.3-.16l-.09.06c.12-.06-.18.39.47-.06l-.49.33c0,.05.09,0,.15,0a2.18,2.18,0,0,1-.4.3c-.27.3.15.07.21.12l.24-.26c.3-.07.09.22.26.23l-.26.22.2-.07c-.26.2-.38.39-.14.24l-.78.39c.12-.17.36-.22.6-.46s.06-.25-.21-.05c0,.06.06,0,.18,0a3,3,0,0,1-.66.43s-.06.12.06,0c-.21.11-.27.09-.33,0,.18-.08.21-.21.33-.28-.34.26-.49.27-.46.12.33-.35-.37,0-.34-.15a4.89,4.89,0,0,1,.86-.42c.13-.19-.06-.06.07-.24a3.79,3.79,0,0,1-.89.46l.25-.19c-.18,0-.56.3-.56.15a1.33,1.33,0,0,0-.16-.56l.26-.18c-.6.3-.35-.1-.66,0,.15-.32-.48-.21-.07-.56-.38-.17-.72-.34-.78-.71l.43-.15c-.32.09.22-.15.13-.18-.29.23-.46.14-.73.22.24-.3-.18-.32-.53-.33l.28-.13c-.6.11-.19-.26-.17-.46s.37-.21.32-.24a2,2,0,0,1-.84,0,.59.59,0,0,1,.18-.47c-.82-.14-.5-.68-1-1l.35-.12c-.89-.19-.29-.86-.75-1.12l.62-.09c.17-.14-.21-.2-.64-.1.16-.14-.36-.22.15-.37.1-.13-.31-.09-.41-.18.21-.26.14-.33,0-.53l0,.06a.82.82,0,0,0,.44-.08c-.18-.06.13-.31-.6-.15.4-.27-.4-.51.17-.78-.21,0-.25,0-.39,0,0-.21.38-.44,0-.59.1,0,.35,0,.37,0s-.27,0-.38,0c-.39-.33.39-.68.29-1-.35-.54-.14-1.1-.13-1.61l.15,0c-.55-.25.64-.31-.2-.58.15,0,.09-.14.37-.06-.39-.21.45-.31,0-.6,0,0,0,0,.07.07.37-.13,0-.4.3-.54a.5.5,0,0,0,.24.13c.3,0-.58-.34.14-.21,0,0-.35-.12-.34-.08a.74.74,0,0,0,.19-.68c0-.13,0-.27-.07-.4s0-.15,0-.2l-.06-.06c.46,0,1.2.29.7.08.15,0-.27-.06-.12,0-.19-.06.84.08.47,0a4.46,4.46,0,0,1-.53-.09c.32,0,.76,0,.42-.11h.25c-.67-.09-.27-.17-1.1-.14-.06-.11-.31-.12-.45-.1H67s-.09-.1-.15-.17l-.19-.26a5,5,0,0,1-.58-1.12c-.3-1.56-.55-3.11.25-4.42.69-.14.68-.14.58-.57a.39.39,0,0,0,.19.1c-.46-.21.05-.25-.38-.48.31-.44.46-1,.74-1.38,0,.1.32.37.35.27l-.21-.27.12.07a.56.56,0,0,0-.35-.34,2.46,2.46,0,0,1,1.38-1.36,7.59,7.59,0,0,0,1.59-.78c.33,0,.54-.32.74-.54,1,.19,1.83.45,2.37-.25A4.78,4.78,0,0,1,73.63,195Z"/><path class="cls-3" d="M72.13,220.94a1.88,1.88,0,0,1,.53-.52C72.48,220.59,72.31,220.79,72.13,220.94Z"/><path class="cls-3" d="M73,217.83c-.06,0,.08-.08.11-.11s.22-.09.11,0S73.14,217.78,73,217.83Z"/><path class="cls-3" d="M72.94,217.37a.65.65,0,0,1,.45-.1Z"/><path class="cls-3" d="M73.55,216.56c.15-.12.24-.16.26-.12A1.51,1.51,0,0,1,73.55,216.56Z"/><path class="cls-3" d="M73.08,216.78s.09-.1.2-.18C73.11,216.7,73.42,216.61,73.08,216.78Z"/><path class="cls-3" d="M73.29,215.73s-.21,0,0-.09C73.15,215.73,73.6,215.61,73.29,215.73Z"/><path class="cls-3" d="M72.82,215.51s.05,0,0,0a.63.63,0,0,1,.28-.1Z"/><polygon class="cls-3" points="71.12 208.29 71.22 208.36 71 208.31 71.12 208.29"/><path class="cls-3" d="M72.07,204c-.16,0,.2-.09.23-.11S72,203.93,72.07,204Z"/><polygon class="cls-3" points="69.81 202.43 69.82 202.44 69.38 202.6 69.81 202.43"/><path class="cls-3" d="M10.16,180.06c-.21-.12-.24.33-.23,0C10.1,180,10.24,179.91,10.16,180.06Z"/><path class="cls-3" d="M17,137.77a1,1,0,0,1,1.3.11c.35.27.62.62,1.17.57.11,0-.42.49-.16.5,1.2-.23,1.77,1.16,1.7,2.29l-.18.07c0,.21.61,0,.65.23s-.18.05-.29.18c.33-.17.31.18.58.1-.08.14-.33.29-.42.45l.41-.13c1-.23.3.66.93.79-.1,0-.18,0-.25.09.83.34,1,1.19,1.45,1.86a1.65,1.65,0,0,0-.56.14.64.64,0,0,1,.73.3c-.41.19.49.26.28.56h-.1c.5.09-.22.31.37.36l-.33.17c.63,0-.3.3,0,.4l.13,0c.17.13-.14.23,0,.35l-.07,0c.19.29-.16.49.34.45-.39.13-.2-.28-.77-.08a4.37,4.37,0,0,1,.31,3,1.18,1.18,0,0,1-.48.14c.09.11,0,.37.27.51,0,0-.26,0-.3.06-.22.13.5.3.24.45a.66.66,0,0,0-.45-.18c.34.24.24.45.3.68a.42.42,0,0,0-.26-.14c.37.31-.19.35,0,.61l-.26-.15c-.41.19.56.25.28.45-.07-.09-.18-.1-.29-.14.42.38.14.72.21,1l-.1,0c0,.28-.28.49-.2.85-.16,0-.63-.31-.64,0,.54.23,0,.54.68.66-.2.19-.55.45-.46.68-.14-.2-.68-.22-.63-.42l-.38,0c-.2-.12.14-.09-.14-.19,0,.1,0,.45-.08.49.22.32.71.8.61,1.11-.12-.24-.59-.26-.62-.39.24.3.48.62.71.94,0,.1-.39-.22-.35,0a.86.86,0,0,1,.25.29c-.07,0-.12.45-.61.16-.21-.08,0-.2-.24-.22-.1.16.05.27-.05.43l-.07,0c-.14.05,0,.44.31.52.07-.06-.29-.18-.08-.19a.52.52,0,0,1,0,.67c0-.11-.15-.19-.26-.31a2.06,2.06,0,0,1,.1,1.12c.2.17-.32-.39-.18-.33-.52,0-.05.9-.65.78,0-.07.31.21.25.17s-.43-.14-.38,0c-.19-.13,0,.15,0,.28s-.1-.05-.07-.14c.06.25,0,.89-.4,1,.13.08.38.44.34.48l-.3-.19c-.21,0-.07.21-.34.08.3.33-.06-.68.14-.34-.29-.1.36.51,0,.24-.05.14.27.43-.09.41.07,0-.4-.31-.42-.2s.13.13.18.32l.09.15c.32.13-.11.14.28.21-.27-.08.06.29-.47.1l-.42-.16c0,.1.42.28.59.4a.54.54,0,0,1-.2,0c.66.2-.1.19.39.41-.26.11-.13.4-.55.42.19.18.43.32.27.46a.45.45,0,0,0-.23-.1c-.21.08,0,.12.07.22-.1,0-.42.17-.67.29.19.15.57.11.79.13-.67.13.46.39-.15.57-.1-.05-.34-.21-.51-.08-.67.17.51.26.19.49l.56-.09c-.35.12.35.28-.22.31.21.06-.16.28.39.2-.42.42.38.81-.54,1.21.11,0,0,.19.31.11s-.24-.08,0-.15c0,0,.18,0,.25,0-.1.13-.12.23-.59.21-.28.33,1,.08.82.45-.22,0-.3.07-.25.16l.43.1c0,.24-.48.24-.85.33.09.1.1.25.4.24l-.44.25c.32-.18.25,0,.35.08l-.1,0c-.15.06,0,.17,0,.23a.54.54,0,0,0,.34-.32c.18,0,.16.11.37.14-.37.07-.21.26-.23.36s.37,0,.36.07c-.19,0,0,.18-.27.17-.07,0,.16-.13,0-.15s-.46.19-.18.27.72-.22.54.05a2.49,2.49,0,0,0-.4,0l-.13.25.33-.08a.64.64,0,0,1-.15.06c.37,0,.19.27.59.21.06.09-.17.27-.18.38h0c-.16.17,0,.29.26.33h-.07c0,.07.08.21.3.24-.21.23-1.24.39-.78.46.06.16.68.1.88,0-.15.36.49.58,0,1,.15,0,.22,0,.33,0,0,.48.62.9,0,1.41-.17-.11-.34.06-.53.1.33.05-.29.2.24.13.31-.07.46-.09.55-.25a.66.66,0,0,1,.05.91.26.26,0,0,1,.33,0c-.49.06-.53.28-.34.42l.31,0-.29.15c.1.05.64,0,.37.18a1.93,1.93,0,0,0-.31.09c.28.13.71.35.47.57l-.42.2c.05.07.32.19.44,0-.24.35-.26.56-.63.68a1.54,1.54,0,0,1,.81,1,2.08,2.08,0,0,1,0,1.16l-.22-.05c-.24.16.38.15.2.27-.21-.1-.49.07-.73-.12-.28.22.33.41.4.61.29.09-.16-.18.2-.07.1,0-.29.33.14.48a1.64,1.64,0,0,1-.67-.18l.18.21c-.55.06-.82-.65-1.5-.6l0,.15c-.48,0-.47-.45-.68-.18a1.55,1.55,0,0,0,1,.39c0,.34,1,.43.84.79-.29,0,0-.31-.35-.35s.09.39-.08.51c.21-.11.6.17.63.31-.26.12-.36-.26-.49,0,.23.13.33.45.57.3.51.32-.24.22.11.56-.42-.09-.76-.66-1.08-.45.39.11.33.59.94.68-.17.08-.45-.06-.63-.24-.3,0,.44.74-.29.41l.33.26c-.15,0-.28,0-.51,0-.09.13.18.75-.33.39,0,.08-.21.36.21.5.36,0-.09-.4.46-.19-.49-.12-.15.32-.12.54l-.2-.13c0,.13-.14.25,0,.46a.33.33,0,0,0-.3-.2l.22.31c-.11.39-.54-.36-.69,0,0-.12,0-.25,0-.37,0,.08-.32-.07-.34.12.2.27.39.64.53.86,0,.25-.32-.2-.24.18,0-.16-.05-.31-.08-.47s-.5-.28-.68-.11,0,.73.38.7a.3.3,0,0,1-.45-.21c-.17.28.26.26.15.59-.22-.11-.69-.17-1-.35,0-.21,0-.41-.07-.61l-.14.08c-.06-.48-.26-.23-.41-.69-.12,0-.14.18-.17.33.65.51.15,1.08.5,1.66-.46.4-.89-1.41-1-.24.14.15,0,.73.31.43-.35,0,0,.74-.54.57.23-.35-.45-.61-.14-1.1,0,.22.27.12.3,0-.19-.22-.17-.66-.44-.59s-.39.15-.3.49.28-.08.23.33c-.37.19-.49-.4-.59.31.25-.08.36.31.4.58l-.31.2,0-.27c-.53-.13-.12.49-.66.43-.08-.17-.16-.34-.23-.51.12-.44.72.19.6-.53-.29,0-.4.34-.68.15.07-.06.15-.07.22-.14-.12,0-.16-1-.58-.46-.23.19-.09.25-.13.52-.48,0-.67.23-1,.2.2-.49-.49-.21,0-.62,0,.33.73.49,1,0-.07-.64.34.13.48-.49-.32-.05-.22-.66-.21-1.06-.06,0-.16.12-.22.17-.1.37,0,.38-.06.77a.88.88,0,0,0-1,.23c-.06-.22.11-.56.25-.55a1.63,1.63,0,0,1-1.06-.52c-.09.66-.42-.09-.54.44a.87.87,0,0,1-.18.89c-.11-.11.13-.24.15-.38-.33.2,0-.6-.38-.24.44,0,.46-.6.77-1-.35.11.19-.29,0-.4a1.81,1.81,0,0,1-1,0c0-.55-.62-.53-.84-.73.06-.28.52-.6.48-.77s-.33.51-.34.14l.1-.05c-.16,0-.06-.61-.7-.14l.5-.34c0-.07-.13,0-.2,0,.14-.13.23-.29.38-.31.2-.39-.27-.21-.39-.33l-.2.31c-.41,0-.26-.43-.54-.57l.28-.21H9.53c.29-.17.36-.42.09-.32l.92-.18c-.08.22-.4.16-.62.42s.05.39.33.21c0-.1-.09-.06-.24,0,.35-.33.43-.2.72-.34,0,0,0-.18-.1-.09a.37.37,0,0,1,.45.1c-.22,0-.19.23-.32.29.33-.26.53-.23.57,0-.26.43.48.06.54.31a2.12,2.12,0,0,1-.93.39c0,.26.12.11.07.38A2.75,2.75,0,0,1,12,182l-.22.24c.24,0,.56-.34.65-.14a2.24,2.24,0,0,0,.63.76l-.17.26c.5-.46.55.06.86-.11.16.41.67,0,.66.51a7.45,7.45,0,0,1,1.37-.33l0,.46c0-.35.12.24.21.15-.21-.32,0-.5-.06-.77.32.26.43-.24.36-.59l.19.25c-.2-.58.26-.29.52-.42.12.07.37.23.4.14a2.36,2.36,0,0,1-.35-.82.92.92,0,0,1,.55-.28,1.59,1.59,0,0,1-.08-1,1.15,1.15,0,0,0,0-.91l.37,0a1.13,1.13,0,0,1-.27-1c0-.32.14-.64-.1-.91l.64,0c.18-.19-.2-.4-.64-.32.17-.19-.33-.39.17-.57.08-.2-.33-.19-.44-.32a.75.75,0,0,0-.07-.87l0,.1c.14,0,.41,0,.43-.13-.21-.1.05-.54-.65-.25.34-.47-.54-.8-.07-1.33-.2.08-.26,0-.4,0-.1-.34.21-.81-.2-1,.08-.08.36,0,.34-.15s-.26.07-.4,0c-.53-.47.06-1.29-.18-1.81a8.12,8.12,0,0,1-.94-3l.15,0c-.63-.27.48-.91-.42-1.1.13-.1,0-.33.32-.29-.44-.27.35-.86-.18-1.27,0,0,0,.06.08.11.3-.43-.11-.85.24-1.32a.42.42,0,0,0,.25.18c.3-.15-.6-.51.13-.52,0-.1-.35-.12-.34-.05a5.09,5.09,0,0,0,.34-1.63,12.22,12.22,0,0,1,.33-1.75c.77-.54,1.09.53.93-.28.14,0-.22-.18-.09-.11,0-.31.88.13.64-.2-.4-.2-.14-.23-.37-.38.5-.22.87,0,.81-.5l.17.16c-.29-.72.26-.83-.15-1.55a15.71,15.71,0,0,0,1.95-4.46c.7-1.4.66-2.89,1.08-4.35.61-.35.6-.4.32-.78a.41.41,0,0,0,.22,0c-.51,0-.06-.28-.55-.27a4.35,4.35,0,0,0-.33-1.55c.08.06.49,0,.43-.09l-.34,0,.13-.06a.53.53,0,0,0-.48.06,5.29,5.29,0,0,1-.67-1.92A3.75,3.75,0,0,0,18.8,142c-.06-.39-.53-.6-.85-.75-.28-1.18-1-2.27-2.19-2.23C15.76,139,16.35,137.83,17,137.77Z"/><path class="cls-3" d="M10.36,180.24c-.17.19-.18.4-.53.51A5,5,0,0,1,10.36,180.24Z"/><path class="cls-3" d="M11.72,185.24c0-.06,0,.12,0,.17s-.24.12-.21,0C11.58,185.41,11.64,185.31,11.72,185.24Z"/><path class="cls-3" d="M12.93,186c-.1.21-.49.24-.67.18C12.49,186.16,12.71,186.1,12.93,186Z"/><path class="cls-3" d="M14.22,187.33c.13.21.08.31-.13.27C14.09,187.48,14.17,187.43,14.22,187.33Z"/><path class="cls-3" d="M14.41,186.83c.13,0,.19.16.24.29C14.67,186.93,14.32,187.21,14.41,186.83Z"/><path class="cls-3" d="M18.17,186.8c.08-.06.15-.32.35-.15C18.36,186.55,18.26,187.12,18.17,186.8Z"/><path class="cls-3" d="M19.37,185.57s.09,0,.09-.09a.2.2,0,0,1,.13.28Z"/><polygon class="cls-3" points="19.18 165.66 19.29 165.75 19.07 165.75 19.18 165.66"/><path class="cls-3" d="M21.75,159.43c0-.19.22.06.26.06S21.81,159.29,21.75,159.43Z"/><polygon class="cls-3" points="23.19 154.83 23.18 154.86 22.76 154.67 23.19 154.83"/><path class="cls-3" d="M119.14,109.12c.13-.2-.31-.28,0-.23C119.24,109.06,119.28,109.2,119.14,109.12Z"/><path class="cls-3" d="M100.33,73.36a1.09,1.09,0,0,1-.45,1.18c-.3.25-.65.51-.55,1,0,.1-.51-.39-.5-.14.35,1.1-.6,1.68-1.6,2.27l-.15-.12c-.18.12.29.53.16.67-.11,0-.14-.12-.31-.13.33.16,0,.36.28.52a5.93,5.93,0,0,0-.61,0l.37.22c.87.54-.26.65.16,1.15a.49.49,0,0,0-.25-.08A5.08,5.08,0,0,1,97.32,82a1.52,1.52,0,0,0-.57-.08.63.63,0,0,1,.58.49c-.46,0,.38.35.1.53l-.09,0c.45.2-.3.19.25.38l-.37.06c.63.14-.35.19,0,.35h.13c.14.14-.18.17-.09.29h-.08c.14.28-.22.4.27.44-.4.05-.15-.27-.74-.19a5.78,5.78,0,0,1,.23,2.65,1.33,1.33,0,0,1-.45.17c.09.09.08.33.34.41,0,0-.26.06-.28.1-.19.17.54.17.33.34a.84.84,0,0,0-.48,0c.39.14.34.33.47.5a.69.69,0,0,0-.29,0c.44.17-.07.36.22.51l-.29,0c-.32.3.6,0,.42.27a.86.86,0,0,0-.32,0c.54.16.42.51.63.69h-.12c.11.21,0,.49.29.66-.1.13-.69.16-.51.38.54-.18.35.32.92,0,0,.22-.11.6.12.67-.23,0-.61.35-.72.2l-.28.25c-.22.07,0-.16-.23,0,0,.08.36.24.3.35.39,0,1.06-.08,1.22.16-.25,0-.56.29-.69.24l1.17,0c.06.09-.42.17-.23.25a.82.82,0,0,1,.38,0s.26.35-.27.55c-.21.1-.16-.12-.33,0,.06.16.24.12.3.29l-.08,0c0,.13.31.29.59.1,0-.09-.32.1-.19-.06a.49.49,0,0,1,.51.42,1.06,1.06,0,0,0-.41,0,1.64,1.64,0,0,1,.85.75c.27,0-.49-.08-.35-.13-.35.37.56.77,0,1.06,0,0,.38,0,.3,0,0,.18-.42.15-.29.27-.23,0,.07.14.13.26s-.12,0-.13-.08c.18.17.47.84.09,1.14.16,0,.53.28.5.35l-.34-.08c-.22,0,0,.26-.31.24.41.22-.28-.68,0-.42-.3,0,.52.38,0,.28,0,.15.37.35,0,.45.06,0-.47-.19-.46-.06s.16.08.25.26l.13.13c.34.05-.06.18.33.15-.29,0,.14.3-.43.22l-.44-.07c0,.09.46.19.65.27a.48.48,0,0,1-.21,0c.68.08-.08.2.45.34-.25.16,0,.41-.47.48.21.13.46.24.32.38a.4.4,0,0,0-.24-.07c-.2.1,0,.11.1.19-.1,0-.41.2-.63.33a1.71,1.71,0,0,0,.81,0c-.66.2.48.28-.12.51-.09,0-.35-.13-.51,0-.66.23.54.15.26.4l.54-.16c-.32.15.38.18-.19.29.21,0-.13.26.39.11-.34.41.46.58-.37,1.09.1,0,0,.15.31,0s-.25,0-.06-.12c0,0,.17,0,.25,0-.09.13-.09.22-.55.3-.23.35.93-.14.85.18-.21.08-.28.14-.21.19l.42,0c0,.2-.42.33-.76.51.1.05.14.17.41.07l-.36.34c.26-.25.24,0,.35-.05h-.11c-.13.09,0,.14.09.17a.63.63,0,0,0,.25-.37c.17,0,.17,0,.38,0-.34.18-.15.27-.15.36s.34-.1.34-.07c-.17.11,0,.13-.22.23-.07,0,.12-.16-.05-.11s-.38.31-.1.27.61-.43.5-.16a1.88,1.88,0,0,0-.36.14l-.07.24.29-.19a.53.53,0,0,1-.13.11c.33-.17.24.14.58-.08.07,0-.09.28-.07.36h0c-.09.19.09.21.32.12l-.06,0c0,.06.13.12.32,0-.12.27-1,.9-.53.72.11.09.61-.28.74-.46,0,.32.56.12.35.64.12-.08.17-.15.27-.17.16.34.78.14.58.84-.17.05-.22.27-.33.42.25-.19-.11.33.23-.08.18-.26.27-.37.27-.53.25,0,.5.14.43.45a.44.44,0,0,1,.21-.26c-.28.41-.2.56,0,.47l.17-.25-.1.3c.09-.06.37-.52.31-.21a1.45,1.45,0,0,0-.13.29c.23-.16.56-.45.54-.16l-.11.44c.07,0,.27-.22.24-.38.07.33.18.42.08.8.73-.69,1.15-.57,1.54-.39l-.08.22c0,.23.17-.37.2-.19s-.05.47-.21.7c.1.28.32-.31.44-.39.09-.29-.13.16,0-.2,0-.1.16.28.29-.15a2.59,2.59,0,0,1-.18.66l.15-.19c0,.55-.5.85-.52,1.51l.12,0c0,.48-.4.45-.17.67a1.82,1.82,0,0,0,.35-1c.25-.07.33-1,.54-.94,0,.27-.19,0-.22.4s.25-.16.33,0a1,1,0,0,1,.17-.69c.08.23-.15.41,0,.48.07-.25.24-.42.15-.62.14-.57.13.19.28-.25,0,.42-.3.92-.15,1.16,0-.4.29-.51.27-1.11a1.24,1.24,0,0,1-.05.67c.07.25.31-.7.26.09l.08-.4.08.46c.09,0,.32-.52.28.09,0-.07.23,0,.17-.46-.1-.26-.16.31-.19-.27.06.47.18-.06.25-.21v.24c0-.09.14,0,.18-.3a.61.61,0,0,0,0,.36l.06-.36c.16-.17,0,.64.19.54l-.13.28c0-.06.08.28.17.17,0-.33.08-.74.11-1s0,.37.13,0l-.11.4c0,.11.09.54.22.53a1,1,0,0,0,.06-.77c.06,0,.15.19.11.43.14-.11,0-.35.08-.56.06.22.24.52.36.83l-.1.56h.1c-.1.45.08.33.05.81.07.06.14-.1.19-.23-.25-.73.12-1,0-1.71.21-.2.33,1.64.46.54-.06-.17,0-.7-.13-.49.16.06,0-.69.21-.43-.09.29.24.66.11,1.09,0-.22-.13-.15-.15-.08.1.25.07.68.24.66s.22-.11.15-.46-.14.06-.14-.34c.17-.16.3.42.26-.28-.11.08-.2-.32-.24-.58l.1-.19,0,.26c.24.15,0-.47.19-.44l.19.48c0,.45-.34-.13-.17.57.14,0,.12-.37.29-.21,0,.07-.06.09-.07.16s.29.94.38.35c.06-.23,0-.25-.08-.52.2-.13.2-.41.33-.49.1.52.26,0,.24.55-.15-.28-.45-.17-.43.34.22.59-.19,0-.11.58.19,0,.31.58.43,1,.06,0,.08-.17.1-.23a6.91,6.91,0,0,0-.22-.74c.23.05.39-.21.4-.59.12.17.2.54.12.59a1.05,1.05,0,0,1,.77-.17c-.34-.54.22-.22,0-.67a1.21,1.21,0,0,1-.42-.77c.08,0,.08.26.15.38,0-.35.32.47.24-.07-.15.26.2.73.31,1.2.08-.32.1.33.27.27a1.94,1.94,0,0,1,.34-.75c.39.34.57-.22.75-.32.21.18.36.71.51.74s-.34-.49,0-.35l0,.1c0-.14.52.16.23-.57l.21.56c.06,0,0-.11,0-.18.09.17.21.31.21.45.31.31.23-.19.35-.27l-.24-.27c.09-.36.4-.13.56-.36l.16.3,0-.25c.14.31.37.42.29.14,0,.3.07.62.09.93-.2-.13-.1-.42-.33-.68s-.35,0-.23.27c.1,0,.07-.08.07-.22.26.4.13.45.22.76,0,0,.17.06.1-.08,0,.25,0,.33-.17.41,0-.21-.2-.23-.22-.37.18.38.11.57-.12.55-.35-.37-.2.45-.47.43a2.54,2.54,0,0,1-.09-1c-.22-.13-.14.08-.36-.06a2.33,2.33,0,0,1,.15,1l-.14-.28c-.09.21.1.63-.14.64a5.16,5.16,0,0,0-1,.2l-.12-.29c.08.69-.41.41-.53.75-.43-.17-.7.52-1,0a2.88,2.88,0,0,1-1.79.71l0-.47c-.07.35-.11-.25-.22-.17.18.35-.1.5-.15.79-.34-.32-.69.09-1,.43l0-.31c-.25.6-.61.09-1,0,0-.13-.1-.43-.2-.39-.19.5-.29.46-.59.76a1.09,1.09,0,0,1-.71-.38c-.86.65-1.58,0-2.48.26l0-.37c-1,.53-1.74-.48-2.51-.43l.33-.54c-.11-.26-.51-.06-.67.36-.11-.26-.63,0-.5-.52-.13-.21-.38.12-.59.1a1.16,1.16,0,0,0-.84-.65l.06.1c.12-.09.28-.31.22-.4-.23.06-.35-.48-.69.21-.09-.61-1.07-.41-1-1.15-.11.17-.22.12-.35.19-.31-.28-.29-.88-.77-.88,0-.12.33-.16.24-.29s-.21.17-.37.16c-.74-.27-.53-1.3-.93-1.72a6.2,6.2,0,0,1-1.66-2.79l.14,0c-.65-.17.32-.94-.58-1,.12-.11,0-.33.29-.33-.46-.2.21-.83-.34-1.16,0,0,0,.06.1.09.27-.44-.23-.76.08-1.21a.37.37,0,0,0,.26.12c.29-.16-.65-.38.08-.47,0-.1-.37-.07-.34,0a7,7,0,0,0-.13-2.68c.5-.49,1.22.12.74-.37.14,0-.27-.06-.12,0-.19-.19.83-.16.47-.31s-.24-.1-.51-.13c.32-.28.73-.31.4-.57l.24,0c-.65-.31-.29-.6-1.07-.76a2.13,2.13,0,0,0-.24-.75c-.12-.23-.28-.5-.48-.83A10.14,10.14,0,0,1,93.6,91a13.76,13.76,0,0,1,0-6.06c.66-.37.64-.41.44-.89.1,0,.12.06.21,0-.5-.08,0-.33-.49-.43a12.05,12.05,0,0,0,.17-1.88c0,.1.45.2.43.08L94,81.67h.15a.51.51,0,0,0-.48-.14,4,4,0,0,1,0-.59,4.48,4.48,0,0,1,.08-.67,6.5,6.5,0,0,1,.51-1.58c.44-1,1-1.82,1.37-2.73a3.72,3.72,0,0,0,.73-1.49c.69-.47,1.36-.86,2-1.3a8.63,8.63,0,0,0,1.7-1.59A3.44,3.44,0,0,1,100.33,73.36Z"/><path class="cls-3" d="M118.94,109.29c-.17-.19-.36-.23-.44-.58A5.9,5.9,0,0,1,118.94,109.29Z"/><path class="cls-3" d="M114.47,108.54c0,.07-.08-.08-.11-.12s0-.25.08-.13S114.45,108.43,114.47,108.54Z"/><path class="cls-3" d="M113.59,108.65a.51.51,0,0,1,.17-.5Z"/><path class="cls-3" d="M112.6,107.94c-.11-.17-.11-.28,0-.29A1.46,1.46,0,0,1,112.6,107.94Z"/><path class="cls-3" d="M112.66,108.46c-.07,0-.13-.11-.18-.23C112.52,108.42,112.6,108.08,112.66,108.46Z"/><path class="cls-3" d="M110.93,108.05s-.11.22-.16,0C110.82,108.19,110.93,107.72,110.93,108.05Z"/><path class="cls-3" d="M110.2,108.44s0-.06-.06,0a.32.32,0,0,1,0-.3Z"/><polygon class="cls-3" points="99.63 101.5 99.75 101.56 99.53 101.59 99.63 101.5"/><path class="cls-3" d="M99.81,94.28c-.16-.11.2-.12.23-.15S99.76,94.13,99.81,94.28Z"/><polygon class="cls-3" points="97.46 90.58 97.47 90.6 97.03 90.73 97.46 90.58"/><path class="cls-4" d="M205.41,68.31a60.26,60.26,0,0,0-43.87-1.51c-2.32.84-1.32,4.58,1,3.74a56.32,56.32,0,0,1,40.89,1.11,2,2,0,0,0,2.65-.69,2,2,0,0,0-.7-2.65Z"/><path class="cls-4" d="M164.72,67.19a103.61,103.61,0,0,0-9.82-14.4c-1.79-2.19-3.66-4.31-5.63-6.34A21,21,0,0,0,143,41.51a9,9,0,0,0-7.26-.23c-2.54,1.12-3.75,3.54-4.39,6.11a165,165,0,0,0-3.22,17.93,202.49,202.49,0,0,0-1.72,21.16c-.07,2.49,3.8,2.49,3.87,0a197.9,197.9,0,0,1,3.77-33.27c.27-1.34.55-2.68.85-4a9.87,9.87,0,0,1,1.11-3.28c1-1.58,3.13-1.7,4.78-1.14,2.23.74,4,2.61,5.55,4.25q2.72,2.8,5.21,5.81a96.8,96.8,0,0,1,9.79,14.31c1.22,2.17,4.57.22,3.34-2Z"/><path class="cls-4" d="M126.1,86.22c-1.82,5.17-3.64,10.33-5.19,15.58s-3.07,10.63-3.23,16.1c-.28,9.9,5.53,19.2,11.63,26.57a67.21,67.21,0,0,0,11.78,11.08,2,2,0,0,0,2.65-.69,2,2,0,0,0-.7-2.65,62.83,62.83,0,0,1-17.42-20c-2.28-4.14-4-8.61-4.08-13.4,0-5.13,1.42-10.22,2.83-15.1,1.61-5.57,3.54-11,5.46-16.51.83-2.35-2.91-3.37-3.73-1Z"/><path class="cls-4" d="M177.81,118.51c1.44,2,3.4,4.33,6.17,4.09s4.49-2.32,5.91-4.46a2,2,0,0,0-.7-2.65,2,2,0,0,0-2.65.7,7.33,7.33,0,0,1-.75,1.07c.35-.36,0-.06,0,0l-.17.2q-.21.24-.45.48c-.15.14-.35.27-.48.42.25-.3.16-.11,0,0l-.21.13a1.71,1.71,0,0,0-.33.17c.06-.06.38-.14.13-.06l-.35.1c-.34.1.33,0,.09,0h-.31c-.07,0-.45,0-.12,0s-.07,0-.12,0l-.29-.1c-.22-.06.4.23.06,0l-.27-.15-.27-.18c-.29-.19.21.19,0,0a11.64,11.64,0,0,1-.92-.94l-.22-.26c-.23-.28.16.21,0,0l-.43-.59a1.93,1.93,0,0,0-3.34,2Z"/><path class="cls-4" d="M169.39,132.56a19.32,19.32,0,0,0,15.85-11.17H181.9a51.2,51.2,0,0,0,7.91,8.47c2.85,2.39,6.26,4.48,10.13,4.16,2.46-.21,2.49-4.08,0-3.87-3.14.26-5.78-1.59-8-3.58a49.41,49.41,0,0,1-6.66-7.13c-.77-1-2.69-1.49-3.34,0a15.53,15.53,0,0,1-12.51,9.25,2,2,0,0,0-1.93,1.94,1.94,1.94,0,0,0,1.93,1.93Z"/><path class="cls-4" d="M205.16,70q4.35-6.75,9.1-13.22c1.58-2.14,3.2-4.27,4.85-6.36A43.41,43.41,0,0,1,223.79,45c1.46-1.33,3.29-2.23,5.28-1.63a7.59,7.59,0,0,1,4.36,4.11,21.72,21.72,0,0,1,1.66,6.66c.36,2.74.68,5.49,1,8.23q1.05,9.45,1.77,18.92c.19,2.47,4.06,2.49,3.87,0Q241,71.91,240,62.6c-.34-3.05-.69-6.09-1.09-9.12a25.34,25.34,0,0,0-2.11-8c-2.21-4.48-7.38-7.61-12.29-5.54a15.22,15.22,0,0,0-5.55,4.56c-1.89,2.25-3.68,4.58-5.47,6.92q-6.15,8.07-11.64,16.62c-1.35,2.1,2,4,3.34,2Z"/><path class="cls-4" d="M239.82,88.85A91.89,91.89,0,0,1,248.26,115c.72,4.37,1.39,9.07.61,13.47s-3.4,8.23-6.17,11.75a93.64,93.64,0,0,1-10.62,11.37c-1.84,1.68.9,4.41,2.74,2.74a93,93,0,0,0,10.05-10.67c3-3.73,6-7.69,7.34-12.39s.84-9.78.18-14.61a94,94,0,0,0-3.1-14.38,97.15,97.15,0,0,0-6.13-15.39c-1.11-2.23-4.45-.27-3.34,2Z"/><path class="cls-4" d="M135.58,46.08c2.86,6.66,5.23,13.52,7.54,20.39a19.06,19.06,0,0,1,1.26,4.43c0-.53.85.45,0-.19a2.48,2.48,0,0,0-.57-.27,6.22,6.22,0,0,0-2-.63c-1.61-.11-2.64.8-3.53,2-1.17,1.59-2.28,3.22-3.42,4.83-1.45,2,1.91,4,3.34,2,1.15-1.62,2.22-3.38,3.49-4.91.18-.22-.35-.07,0,0a5.75,5.75,0,0,1,.8.36,5.28,5.28,0,0,0,2.16.59,3.69,3.69,0,0,0,3.52-2.88c.46-1.82-.42-3.72-1-5.41-2.53-7.5-5.12-15-8.25-22.24a2,2,0,0,0-2.65-.69,2,2,0,0,0-.69,2.65Z"/><path class="cls-4" d="M227.18,43c-6.19,8-8.14,18.26-9.59,28.06A2,2,0,0,0,220,73.46c1.05-.26,2.11-.5,3.17-.72a13.11,13.11,0,0,1,3-.48l-1-.26c-.15-.37-.17-.36-.06,0l.1.35a9.31,9.31,0,0,0,.45,1.14A8.13,8.13,0,0,0,227,75.56a8.5,8.5,0,0,0,4,2.51c2.38.73,3.4-3,1-3.73a4.77,4.77,0,0,1-2.55-1.84c-.7-1-.67-2.39-1.56-3.29-1.17-1.19-2.8-.78-4.26-.51s-3.19.64-4.77,1l2.38,2.38c1.41-9.49,3.2-19.34,9.21-27.12a2,2,0,0,0-.7-2.65,2,2,0,0,0-2.65.69Z"/><path class="cls-4" d="M165.25,113.36a1.51,1.51,0,0,1,.28-.15l-.47.2a1.76,1.76,0,0,1,.45-.12l-.52.07a2.26,2.26,0,0,1,.52,0l-.52-.07a2.12,2.12,0,0,1,.56.16l-.46-.2a3,3,0,0,1,.54.32l-.39-.3a2.27,2.27,0,0,1,.41.41l-.3-.39a2.75,2.75,0,0,1,.24.41l-.2-.47a1.86,1.86,0,0,1,.13.46l-.07-.52a2,2,0,0,1,0,.55l.07-.52a2.46,2.46,0,0,1-.15.53l.2-.47a2.82,2.82,0,0,1-.31.53l.3-.39a2.73,2.73,0,0,1-.48.48l.39-.3a2.59,2.59,0,0,1-.58.34l.46-.19a2.46,2.46,0,0,1-.59.16l.51-.07a2.1,2.1,0,0,1-.56,0l.52.07a1.58,1.58,0,0,1-.44-.11l.46.19a.71.71,0,0,1-.22-.13l.39.31-.13-.14.3.39a1.23,1.23,0,0,1-.14-.25l.19.46a5.8,5.8,0,0,1-.25-1.17l.06.52a3.65,3.65,0,0,1,0-1l-.07.52a2.28,2.28,0,0,1,.15-.57l-.2.47a2.51,2.51,0,0,1,.26-.45l-.3.4a1.57,1.57,0,0,1,.31-.32l-.39.3a1.72,1.72,0,0,1,.37-.22l-.46.2a1,1,0,0,1,.29-.08l-.51.06h.19a2,2,0,0,0,1.37-.57,2,2,0,0,0,.56-1.36,1.93,1.93,0,0,0-.56-1.37,2,2,0,0,0-1.37-.57,3.4,3.4,0,0,0-2.54,1.2,4.48,4.48,0,0,0-.8,1.41,4.21,4.21,0,0,0-.2,1.45,7.45,7.45,0,0,0,.17,1.42,4.44,4.44,0,0,0,.45,1.36,3.15,3.15,0,0,0,2.85,1.47,4.53,4.53,0,0,0,3.87-2.45,4.14,4.14,0,0,0,.33-2.77,3.8,3.8,0,0,0-1.12-1.87,4,4,0,0,0-4.8-.61,1.93,1.93,0,0,0,.46,3.54,1.94,1.94,0,0,0,1.49-.2Z"/><path class="cls-4" d="M203.37,110a3.87,3.87,0,0,0-4.21.15,4.17,4.17,0,0,0-.82.69,4.58,4.58,0,0,0-.8,1.34,3.64,3.64,0,0,0-.06,2.33,4.49,4.49,0,0,0,3.34,3.09,3.63,3.63,0,0,0,3.16-.73,5.44,5.44,0,0,0,.51-5.79,3.59,3.59,0,0,0-2.91-1.69,1.94,1.94,0,1,0,0,3.87h.18l-.51-.06a1.11,1.11,0,0,1,.3.08l-.47-.2a1.79,1.79,0,0,1,.38.22l-.4-.3a1.94,1.94,0,0,1,.32.32l-.31-.4a2,2,0,0,1,.26.45l-.19-.47a2.82,2.82,0,0,1,.15.57l-.07-.52a4.1,4.1,0,0,1,0,1l.07-.52a5.82,5.82,0,0,1-.26,1.17l.2-.46a1.28,1.28,0,0,1-.15.25l.31-.39-.14.14.39-.31a.8.8,0,0,1-.21.13l.46-.19a1.77,1.77,0,0,1-.44.11l.51-.07a2.11,2.11,0,0,1-.56,0l.52.07a2.34,2.34,0,0,1-.59-.16l.46.19a2.66,2.66,0,0,1-.59-.34l.39.3a2.73,2.73,0,0,1-.48-.48l.3.39a2.78,2.78,0,0,1-.3-.53l.19.47a2.46,2.46,0,0,1-.15-.53l.07.52a2.53,2.53,0,0,1,0-.55l-.07.52a2.42,2.42,0,0,1,.13-.46l-.19.47a1.69,1.69,0,0,1,.24-.41l-.31.39a2.65,2.65,0,0,1,.41-.41l-.39.3a2.73,2.73,0,0,1,.55-.32l-.46.2a2.16,2.16,0,0,1,.55-.16l-.51.07a2.17,2.17,0,0,1,.51,0l-.51-.07a1.69,1.69,0,0,1,.44.12l-.46-.2a1.17,1.17,0,0,1,.27.15,2,2,0,0,0,1.5.2,1.94,1.94,0,0,0,.46-3.54Z"/><path class="cls-4" d="M150.45,179.82c5.68,3.91,12.6,5.08,19.27,6.11a2,2,0,0,0,2.38-1.36,2,2,0,0,0-1.35-2.38c-6.35-1-12.94-2-18.34-5.71a1.94,1.94,0,0,0-2,3.34Z"/><path class="cls-4" d="M177.15,187.23a19.05,19.05,0,0,1,13.35,4.11,11.92,11.92,0,0,1,4.21,5.8,9.48,9.48,0,0,1-.69,6.41c-2.1,4.46-6.63,6.61-11,8.36a39.36,39.36,0,0,1-12.06,2.3,71.11,71.11,0,0,1-14.8-.44,2,2,0,0,0-2.38,1.35,2,2,0,0,0,1.35,2.38,75.33,75.33,0,0,0,15.45.61c4.71-.29,9.58-.86,14-2.68,5.25-2.18,10.49-4.83,13-10.29a12.88,12.88,0,0,0-2.94-15.32,22.73,22.73,0,0,0-17.43-6.46c-2.47.17-2.49,4,0,3.87Z"/><path class="cls-4" d="M192.83,192.83l-6.7.92a1.89,1.89,0,0,0-1.16.89,2,2,0,0,0-.2,1.49,2,2,0,0,0,.89,1.16,2.28,2.28,0,0,0,1.5.19l6.7-.92a1.9,1.9,0,0,0,1.15-.89,1.93,1.93,0,0,0-.69-2.65,2.25,2.25,0,0,0-1.49-.19Z"/><path class="cls-4" d="M192.78,203l-.26.12.07,0a4.16,4.16,0,0,0-.4.16c-.31.12-.63.23-.95.33a16.87,16.87,0,0,1-1.86.47,9.3,9.3,0,0,0-.92.16c.28,0,.31-.05.09,0l-.29,0-.42,0a16.69,16.69,0,0,1-2,0,1.94,1.94,0,1,0,0,3.87,19.47,19.47,0,0,0,8.89-1.82,1.94,1.94,0,0,0,.7-2.64,2,2,0,0,0-2.65-.7Z"/><path class="cls-4" d="M218.89,180.09A69.13,69.13,0,0,1,203.31,185a2,2,0,0,0-1.35,2.38,2,2,0,0,0,2.38,1.36,73,73,0,0,0,16.5-5.29,1.94,1.94,0,0,0,.7-2.64,2,2,0,0,0-2.65-.7Z"/><path class="cls-4" d="M189.07,215.33c7.9,2.1,16.39,2.23,24.52,1.81a53.3,53.3,0,0,0,23.64-6.87c6.35-3.58,11.91-8.86,14.71-15.68,3-7.29,2.79-16.08,1.49-23.73a48.1,48.1,0,0,0-10.73-23.3c-1.63-1.9-4.36.85-2.74,2.73a43.52,43.52,0,0,1,9.15,18.62c1.61,7,2,14.88.07,21.83-1.82,6.53-6.62,11.66-12.25,15.21a48,48,0,0,1-21.22,7.17,108.75,108.75,0,0,1-12.64.22,57.28,57.28,0,0,1-13-1.74c-2.41-.64-3.44,3.1-1,3.73Z"/><path class="cls-4" d="M127.1,75.88C121.64,72,115,70.47,108.4,70a80,80,0,0,0-20.25,1.38A70.06,70.06,0,0,0,68.93,78a67.23,67.23,0,0,0-16.7,12.78A123.21,123.21,0,0,0,36.93,110c-1.36,2.1,2,4,3.34,2A117.53,117.53,0,0,1,53.09,95.52,68.87,68.87,0,0,1,68.49,82.7c11-6.45,24.1-9.14,36.8-8.92,7,.12,14.06,1.34,19.86,5.45,2,1.44,4-1.92,1.95-3.35Z"/><path class="cls-4" d="M31.83,135a43.37,43.37,0,0,0,3,37.33A42.9,42.9,0,0,0,48,186a48.08,48.08,0,0,0,18.34,6.94,158.19,158.19,0,0,0,21.53,1.83c7.63.31,15.27.59,22.89,1.14a152.57,152.57,0,0,1,22.13,2.94c3.27.73,7.13,1.36,9.91,3.36a17.84,17.84,0,0,1,5.41,7.43c2,4.54,2.09,10.27-1.78,13.83-3.21,2.94-8,3.92-12.12,4.56-13.87,2.15-28.17.13-41.81-2.58C85,223.94,77.65,222.1,70.36,220c-7-2-14-3.91-20.78-6.47a134.91,134.91,0,0,1-17.25-8.23,59.57,59.57,0,0,1-14.39-10.57C9,185.51,3.84,171.9,6.69,159.12c1.49-6.64,4.85-12.62,8.6-18.23a161.71,161.71,0,0,1,12.38-16.5,71.27,71.27,0,0,1,7.16-7.17c1.9-1.63-.85-4.36-2.73-2.74-5.51,4.73-10,10.42-14.33,16.24-4.12,5.61-8.27,11.31-11.3,17.6a40.83,40.83,0,0,0-4.36,20.09A44.6,44.6,0,0,0,8,187.9a49.23,49.23,0,0,0,12.66,14.45,92,92,0,0,0,16.09,9.59,132.6,132.6,0,0,0,19.56,7.93c7.28,2.22,14.58,4.41,22,6.3,14.68,3.76,30.07,6.77,45.29,6.55a65,65,0,0,0,17.28-2.19c4.48-1.32,9.05-3.78,11.13-8.19,2.72-5.8,1.13-12.53-2.12-17.77a17.13,17.13,0,0,0-7-6.76,46.53,46.53,0,0,0-10.43-3c-15.3-3.18-31.09-3.33-46.63-4-13.78-.6-28.4-1.42-39.41-10.77a38.94,38.94,0,0,1-10.87-44,2,2,0,0,0-1.35-2.38A2,2,0,0,0,31.83,135Z"/><path class="cls-4" d="M111.09,178a20.2,20.2,0,0,0-2.31,14.13,1.93,1.93,0,1,0,3.73-1,17.79,17.79,0,0,1-.09-5.59,18.31,18.31,0,0,1,.76-2.91,15,15,0,0,1,1.26-2.64,1.94,1.94,0,0,0-3.35-2Z"/></g></svg>