<svg xmlns="http://www.w3.org/2000/svg" viewBox="0 0 256 256"><defs><style>.cls-1{fill:#f7ce7c;}.cls-2{fill:#665950;}.cls-3{fill:#7b6255;}.cls-4{fill:#f2f1ed;}.cls-5{fill:#231f20;}</style></defs><g id="hamster02"><path class="cls-1" d="M95.15,15.8S73.25,2.11,66.06,7.93,55.8,16.48,57.17,23.67s1,9.92,4.79,14,11.63,8.9,11.63,8.9S33.9,96.22,28.08,114.35s-26,64-20.19,81.45,14,30.11,26,36.61,20.53,12,28.06,12,20.53-5.82,24.64-6.5,10.6.68,10.6.68,5.14,9.58,9.24,8.9,19.17-4.11,19.17-4.11l15.74,6.16s28.4-2.39,37.3-2.39,33.87-11.64,40.72-21.22,17.79-47.91,17.11-59.2S224.5,99,221.42,88.35,209.1,56.52,209.1,56.52s22.93-12,18.82-22.93-17.11-19.16-25.66-18.82S182.75,20.25,182.07,23s-5.48,7.52-5.48,7.52-15.4-11-39.35-10.26-24.3,5.47-30.11,5.47S95.15,15.8,95.15,15.8Z"/><path class="cls-2" d="M113.8,109.9,99.43,135.06l1.54,11.8s-5.14,11.29-5.14,15.91,7.7,17.46,21.56,20,21-1.54,26.18-8.21a38.64,38.64,0,0,0,6.67-13.35L142,138.14l8.21-1L135.36,105.8,133.82,115l-9.75.51L122,102.72Z"/><path class="cls-3" d="M203.49,49c-.35,0-.41,0-.37,0s.2.1.25.15A1.25,1.25,0,0,1,203.49,49Z"/><path class="cls-3" d="M203.37,49.19a.67.67,0,0,0-.06.15C203.41,49.26,203.4,49.22,203.37,49.19Z"/><path class="cls-3" d="M204,50.33c-.17.26-.36.15-.52.05a.79.79,0,0,0-.79-.06.76.76,0,0,0,.69.74C203.72,51.07,203.91,50.79,204,50.33Z"/><path class="cls-3" d="M203.86,49.7a3.26,3.26,0,0,1-.24.4,1.79,1.79,0,0,0,.46-.6A1.07,1.07,0,0,1,203.86,49.7Z"/><path class="cls-3" d="M204,49.28l-.09.15a.86.86,0,0,0,.31-.38A.6.6,0,0,1,204,49.28Z"/><path class="cls-3" d="M204.72,50.67l-.18.15c-.21-.63,0-.87-.1-1.29-.14,0,0,1.35-.36,1.11,0,.31.16.32.3.36s.27.11.29.59C205,51.84,204.63,51,204.72,50.67Z"/><path class="cls-3" d="M207.05,43.7l0,.07C207.05,43.69,207,43.62,207.05,43.7Z"/><path class="cls-3" d="M207.86,42.45l.15.15-.15-.22Z"/><path class="cls-3" d="M207.2,45.67a1.74,1.74,0,0,0-.16-.18C207.11,45.6,207.18,45.68,207.2,45.67Z"/><path class="cls-3" d="M216.4,44.11c0,.06.08.14.15.24v0l-.13-.23Z"/><path class="cls-3" d="M208.38,40.43a.13.13,0,0,0,0-.11S208.35,40.37,208.38,40.43Z"/><path class="cls-3" d="M206.82,46h0l-.07-.08,0,.08Z"/><path class="cls-3" d="M206.84,41.57s.09.08.1.07S206.86,41.56,206.84,41.57Z"/><path class="cls-3" d="M206.82,50.91c.06.06.05,0,0-.1S206.72,50.67,206.82,50.91Z"/><path class="cls-3" d="M207.21,50.59Z"/><path class="cls-3" d="M207.53,50.51v0C207.58,50.61,207.59,50.62,207.53,50.51Z"/><path class="cls-3" d="M206.83,50.81c.22.31.8,1.36.22.17l-.09-.15c.17.25,0-.23,0-.28l-.17-.28s-.06,0-.14-.08C206.46,50,206.74,50.54,206.83,50.81Z"/><path class="cls-3" d="M207.16,43.91c-.12-.21-.09-.08,0,0Z"/><path class="cls-3" d="M207.3,45l0,0S207.28,44.93,207.3,45Z"/><path class="cls-3" d="M205.77,45.44l0,.05C205.74,45.37,205.74,45.39,205.77,45.44Z"/><path class="cls-3" d="M207.39,45h0S207.41,45.06,207.39,45Z"/><path class="cls-3" d="M206.53,45.84l0,0Z"/><path class="cls-3" d="M224.3,43.87c0,.12-.18-.16-.26-.22.44.75.12-.07.49.62,0,0,0-.13-.08-.24l-.51-.65C224.08,43.68,224.14,43.59,224.3,43.87Z"/><path class="cls-3" d="M217.67,45.34l0-.06a2.53,2.53,0,0,0,.43.56c-.28-.51-.81-1.19-1.09-1.77,0,.06,0,0-.07,0A9.91,9.91,0,0,1,217.67,45.34Z"/><path class="cls-3" d="M216.89,44.07l0,0-.12-.16-.07-.06A1.69,1.69,0,0,0,216.89,44.07Z"/><path class="cls-3" d="M223.19,44.21l-.07-.05C223.22,44.29,223.23,44.28,223.19,44.21Z"/><path class="cls-3" d="M213.69,49.51l.1.24A.61.61,0,0,0,213.69,49.51Z"/><path class="cls-3" d="M216.59,45.07l-.11-.09s0,0,0,.05Z"/><path class="cls-3" d="M214.32,37.06c.5.79,0-.08.32.35L214.4,37C214.28,36.86,214.33,37,214.32,37.06Z"/><path class="cls-3" d="M224.49,44.08l-.05-.07v0Z"/><path class="cls-3" d="M215.38,36.09l.09.1Z"/><path class="cls-3" d="M216.42,43.89l-.19.06.17.16C216.17,43.71,216.7,44.38,216.42,43.89Z"/><path class="cls-3" d="M213.37,37l-.33-.47c.51,1.11-.61-.23.2,1.28-1.28-1.56.85,1.58-.29.19l.16.23c-.75.09-1.9-.42-1.92.73l-.21-.34c-1.21,0-1.6,1.17-2.61,1.42.11.36.61,1.09.77,1.52,0,0-.09.07-.34-.36-.09-.26-.34-.62-.42-.8-.07.11-.49-.31-.26.26l.39.5c.11.25,0,.13-.09.12-.15-.29-.55-.86-.6-1,.63,1.47-.49-.5-.32.13a24.34,24.34,0,0,1,1.39,3.15l-.25-.26c.09,0-.5-.85-.36-.86-.29-.28-.08.27-.27.14a4.26,4.26,0,0,1,.44.82c-.14-.13-.49-.72-.58-.74l-.16-.4c-.29-.41,0,.18,0,.28-.3-.48-.44-.52-.74-1.07.31.71.06.35.22.83a4.76,4.76,0,0,1,.59,1v-.25c-.33-.24,0-.11-.49-.94.29.34.7,1.43.74,1.23.11.5-.14.15.12.92,0-.21.3.55.49.78-.09.1-.2-.28-.54-.79,0,.06-.34-.41,0,.24-.24-.19-.35-.63-.59-.94-.3-.6.67.55-.41-1.27,0-.05-.31-.78-.22-.78-.2-.21-.64-.76-.47-.3l.59,1c0,.06.35.77.26.7-.15-.31-.44-.73-.44-.61a1.57,1.57,0,0,1,.19.27c0,.13.35.84.36,1.1a11.9,11.9,0,0,1,.78.92c.39.74,0,.14,0,.25a1.37,1.37,0,0,0-.14-.26l.15.38c-.29-.25-.59-1.06-.88-1.36-.41-.57.11.39-.14.07l.12.18-.06,0,0,.05c0,.14-.09.12.21.67-.15-.24,0,.1.06.28s.38.92-.16.08c0,0,0,0,0,0a1.49,1.49,0,0,1-.5-.61l-.24-.15-.38-.71a6.26,6.26,0,0,0,.58,1.43c-.31-.38-.25,0-.15.32,0,0,0,0,0,0l.2.26c-.1,0,.12.38.07.42s.07.1,0,0l-.07,0c0-.08,0-.08,0,0l-.15-.23c-.48-.71.14.49-.08.27,0,0,0-.09,0-.09-.15-.17-.77-1.14-.44-.52-.05-.07,0,.06.07.22l-.08-.09.08.09c.1.22.22.48.14.33l-.18-.07c-.07-.09-.05,0,0,.12l-.18-.28c0,.06-.11-.11-.15-.2-.69-.95.09.64-.54-.17a10.57,10.57,0,0,0,.58,1,10.76,10.76,0,0,1,.4,1.06,15.26,15.26,0,0,1-1.47-2.14c-.16,0,.37.59.5,1l0,0a4.55,4.55,0,0,1,.55.78c.3.52.28.73.17.6l-.39-.77a20.86,20.86,0,0,0,1,2.24,12.34,12.34,0,0,1-1-1.63l0,.24L205.3,47c0,.18.3.72.09.54-.23-.57-.41-.46-.72-1.23-.15-.17.44.94,0,.19.3.63.21.29.33.46.5.87.13.48.2.73a4,4,0,0,0-.48-.82c.18.35.28.64,0,.24.3.57,0,.16-.07.14a4.06,4.06,0,0,1,.63,1c.09.25.12.38,0,.34l.19.24c.39.87-.43-.55-.37-.24-.15-.36-.13-.37-.32-.81.1.29.25.75.33,1.05l-.52-.79c.21.42-.1,0,.2.58-.29-.34-.29-.73-.51-1.15s.42,1-.15.18l-.25-.55c-.06,0,0,.32-.11.06.1.19.08.11.1.09a18.26,18.26,0,0,1,.89,2.06l.09.06c0,.27.18,1.18-.06.76a8.36,8.36,0,0,1-.27-1.23c-.06-.07.33,1.44.12,1.35a2.11,2.11,0,0,1,.2,1c.16.07.55.22.32-.3l-.08-.11a5.26,5.26,0,0,1-.09-.65c.13,0,.27.54.39.77.39.07-.48-1.24-.28-1.29l.13.22a4.09,4.09,0,0,0-.43-1.14c.46.73,0-.37.25.06.91,1.67-.23,0,.2.93a7.14,7.14,0,0,1,.57,1.21l-.21-.82c.13.22.63,1,.34.4l0,0c0-.23-.42-.9-.23-.71s.21.43.27.54-.16-.4-.21-.57c.14.12.35.7.49.86-.28-.68.18.1.22,0a17.93,17.93,0,0,0-1-2.19l-.22-.71c.31.47.63,1.37,1.1,2.15l-.13,0c.66,1.17-.19-.89.59.39.09,0,0-.13.41.39l-.59-1a9.16,9.16,0,0,1,.62,1c0-.09,0-.08.1-.05a2.81,2.81,0,0,1,.15.37c.36.57.25.34.1,0s-.07-.26,0-.27l.18.41a2,2,0,0,0-.16-.42s0,0,0-.11-.47-.78-.67-1c.36.35.33.06.92.87.16.3.32.71.36.74s-.1-.44-.35-.9c0,0,0,0,0-.06a3.21,3.21,0,0,0,.37.56.68.68,0,0,0,.15.19c-.44-.84-.11-.48-.29-.87-.07-.07-.1,0-.12,0-.26-.58-.57-1.24-.29-.81s.57.82.57,1.11c.67,1-.37-.78-.07-.45l.29.38c.32.61.07.36.21.57v-.09c.21.47-.11.26.16,1l.38.23c-.15-.85.62-.2.09-1.64v0c0-.06-.1-.18-.22-.41l.09.15-.21-.48a9.54,9.54,0,0,0,.84,1,5.55,5.55,0,0,1-.52-.8c-.33-.61-.46-.87-.27-.68a3.91,3.91,0,0,0,.44.75,2.12,2.12,0,0,1-.3-.58,3.56,3.56,0,0,1,.54.7c0,.13-.05,0-.1-.07a5.28,5.28,0,0,1,.44.73v-.16c.24.33.29.58.44.8-.05-.36-.55-1.38-.61-1.73l.51.91c.25.24-.41-1.14-.37-1.26.15.28,0,.19.1.34a2.9,2.9,0,0,1,1.52.84l-.49-1,.44.61c.64.46.49-.3.58-.74,0-.11.45.65.65.9.25,0-.36-1.12-.31-1.44a5.22,5.22,0,0,0,.7,1.17c-.15-.29-.4-.74-.25-.59l.15.31c.3.41.1,0,.3.11.14-.12-.12-.89-.63-2,.19,0,.61,1,.76,1.25-.31-.3,0,.21.21.56-.11-.31-.15-.51.29.16.05-.08.1-.07-.11-.58.11.26-.15-.1-.3-.43.2.2.19-.15.7.72.24-.37.73-.43,1.07-.69-.21-.48-.15-.14-.31-.47-.27-.63.25.25,0-.25l.26.49c.15,0-.27-.93-.44-1.42.31.54.36.38.47.75,0-.12,1.53,2.22,1.27,1.71l-1.43-2.18c-.13-.22,0-.13-.08-.27a7.86,7.86,0,0,0,.71.87c.37.55.22.48.17.49.57.94.51.51,1,1.41,0-.21-.31-.48-.47-.85l.2.15-.25-.28c-.11-.32-.53-1-.12-.58l-.48-1c.47.73.15.09.3.23l.27.49c0-.06.15,0,.35.3.37.66-.15-.12.22.5l.2.17a6.94,6.94,0,0,0-.63-1c-.42-.81-.79-1.48-.6-1.51.52.66.32.67.8,1.36.35.2-1-2-.82-2,.3.22-.12-.43,0-.56.27.51.41.47.73.91l.27.54c-.06-.18.09,0,.31.35-.43-.65-.23-.71-.35-1.08l-.37-.54c0-.23-.19-.64,0-.54a8.2,8.2,0,0,0-.66-1.38,19.83,19.83,0,0,1,1.12,1.69c-.21-.27-.15-.07-.31-.22.18.57.83,1.8.53,1.62.8,1.38,0-.22.35.22l.07.12,0,0a4.16,4.16,0,0,0,.54,1.16c0-.19-.8-1.38-.33-.87-.17-.42.57.6.67.67-.27-.54-1-1.62-.71-1.48l.43.78c.15-.07-.65-1.14-.5-1.19-.1-.06-.44-.76-.53-.73-.22-.43-.18-.56,0-.39-.06-.12-.17-.26-.33-.51-.41-.48.21.58-.33-.13l.47.84a5.85,5.85,0,0,1-.85-1.25s.06.17-.05,0c-.79-1.22.37.38-.28-.67v.12c-.53-.78-.34-.77-.24-.75a5.44,5.44,0,0,1,.84,1l.06.31c.35.43-.05-.35,0-.36a1.47,1.47,0,0,0,.13.17l-.11-.16a1,1,0,0,1,.18.22c.07,0-.09-.4.08-.25l-.34-.5.18.29a1.64,1.64,0,0,1-.54-.67c-.13-.42.53.55.84,1,.49.8-.1.06,0,.36.53.75.15,0,.59.46.51.88-.13.06.36.86.18.09-.2-.52,0-.36.25.4.19.49.52,1l.22.21c-.11.14.71,1,.74,1.32.28.31-.38-.74,0-.25a8.8,8.8,0,0,1-.91-1.37l.25.2c.3.39.51,1,.78,1.27l-.1-.34c-.17-.26-.29-.36-.5-.72.23.24-.56-1-.75-1.44.06,0,.13,0,.34.3-.38-.82-.23-.88-.59-1.66a5.23,5.23,0,0,0,.86,1.21,7.12,7.12,0,0,0,.86,1.46A7.1,7.1,0,0,0,219,45c.3.27-.3-.59.12-.1a12.61,12.61,0,0,1,.71,1.08c.11,0-.61-1-.39-.85a1.79,1.79,0,0,0,.18.29c.16.13,0-.28-.28-.68.74,1,.08-.22.74.79-.06-.35-.39-.53-.59-.9s.09-.18.22,0,.14.34,0,.2l.49.68c.49.39-.95-1.64-.4-1.14a8.59,8.59,0,0,0,.62,1.06c-.1-.19.15-.07-.27-.55a1.19,1.19,0,0,1,.34.22,8.3,8.3,0,0,0-.48-1,3.92,3.92,0,0,1,.76.75c-.18-.61.56.14.37-.51l0,0c.22,0-.69-.87-.53-.94.56.85.47.51.83.93s-.13-.82.42-.37a1.65,1.65,0,0,1,.24.44c.3.18.28,0,.42-.09l.07.11c.65.56.24-.37.28-.7.06.12.27.44.34.56.23.12.46.14,0-.67.68.75-.11-.3.59.4a.42.42,0,0,1,.1.19c.26.23.25.11.39.16-.22-.64-.95-1.75-.54-1.55.81,1.13.09.36.72,1.27-.1-.23-.24-.48,0-.25.29.47.2.29.47.72.25.27-.69-1.29-.61-1.19-.16-.22-.26-.33-.27-.27-.45-.73.13-.18,0-.52,0,0-.29-.16-.64-.72.29.16-.45-1-.7-1.47a15.73,15.73,0,0,1,1.19,1.79,9.15,9.15,0,0,1,.9,1.22c.22.1-.2-.62-.24-.86l.16.23c.05-.18-.53-1.25-.11-.87l-.23-.22a2.09,2.09,0,0,0-.27-.6c.26.37.58.65.77,1-.81-1.23-.26-.91-1-2.08a9,9,0,0,1,.76,1.05c-.15-.05-.34-.27,0,.24,0-.06.32.21.51.49-.48-.79-.54-1.18-1.05-1.94a7.12,7.12,0,0,1,.93,1.13c-.09-.52-1.48-1.83-1.26-2,.53.53.5.88.78,1l0,.12c1.26,1.51-.76-1.18-.61-1.2a11.41,11.41,0,0,0,.9,1.23c-.06-.29-.95-1.6-.65-1.39l.25.37c0-.11.26,0,.28-.14.13.17.1.15.12.2.36.24-.28-.47.26,0l-.28-.43c-.27-.26-.67-.62-.37-.08-.3-.54-.9-1-1.41-1.77l.21.3a5.78,5.78,0,0,0-1.95-1.49c.53,1-.46-.21-.15.5.72,1,.12.22.16.5a3.4,3.4,0,0,0-.69-.88,2.39,2.39,0,0,1,.25.5c-.28-.32-1-1-.56-.31-.3-.28-.22-.34-.36-.56-.4-.5.24.45,0,.12l-.11-.17c-.08.12-.33-.1-.53-.15.71,1,.16.45.37.84-.21-.33-.33-.33-.49-.49l.47.78c.39.67-.4-.39-.23,0l.14.16c.16.34-.41-.16-.85-.66.88,2.32-1.55-.54-1.71.36.18.32.38.49.66,1,0,.15,0,.12-.05.17.23.24,0-.1.18.19l-.12-.34.17.25c0-.11-.15-.33-.08-.3.14.29.64,1,.38.8a.75.75,0,0,1-.11-.22c-.09,0,.15.34,0,.17s0,.09-.22-.23l-.43-.29c.54.94-.14.16-.22.09-.44-.68,0-.27-.45-1l-.39-.45.36.54-.18-.09-.06-.11c.13.22.26.43.12.26a1.35,1.35,0,0,1-.18-.25l.15.33c-.35-.57-.16-.13-.59-.77-.4-.2.36,1-.4.25.23.28.64,1,.51,1a2.36,2.36,0,0,1-.39-.54l.16.38c-.76-1-.4-.25-.75-.51l-.18-.29c.18.36.31.66.18.6l-.37-.57c-.35-.35.74,1.23.4.93.41.6.68.88,1.08,1.45-.44-.6-.6-.63-.28-.21.07.31-.07,0-.18-.11l.19.4a5.69,5.69,0,0,1-.76-1.15c.38.7,0,.28-.13.22l-.15-.29-.16-.05c.26.51.2.6,0,.4l-.48-.84c-.33-.39.15.29.23.44.18.45-.2-.09-.54-.51C214.23,37.82,212.68,35.75,213.37,37ZM206,45.83l.08.12C206.16,46.11,206.22,46.25,206,45.83Zm.9-.19c.09.38-.11,0-.24-.26.22.17.11-.12.35.11-.11-.16-.24-.39-.32-.52a2.14,2.14,0,0,1,.44.61C207.6,46.44,206.61,45.17,206.93,45.64Zm.56,5.15-.09-.2h0Zm0-1a3,3,0,0,0,.23.34C207.64,49.88,207.53,49.7,207.54,49.77Zm1.52.53c.22.34.21.2.2.1S209.13,50.28,209.06,50.3Zm5.62-3.81a2.29,2.29,0,0,0,.42.74c-.16-.31.2.18-.06-.28l0,0C214.87,46.72,214.7,46.5,214.68,46.49Zm.89-4.46c.21.33.43.71.61.95l0,0c.08.11.15.2.19.27s.14.12.09,0C215.73,42.15,215.66,42,215.57,42Z"/><path class="cls-3" d="M217.57,47.08s0,0,0,0S217.57,47.05,217.57,47.08Z"/><path class="cls-3" d="M216.42,43.25a1.32,1.32,0,0,0-.24-.27A1.13,1.13,0,0,0,216.42,43.25Z"/><path class="cls-3" d="M204.29,48v0c0,.08,0-.16.12.7a3.2,3.2,0,0,1,0-.48Z"/><path class="cls-3" d="M205.6,51.68a2,2,0,0,0,.4.54l-.1-.38Z"/><path class="cls-3" d="M208,52.61l-.25-.25C207.84,52.67,208.23,53.15,208,52.61Z"/><path class="cls-3" d="M204.33,46.81l.16.41c.21.28.24.21,0-.21C204.58,47.27,204.38,46.79,204.33,46.81Z"/><path class="cls-3" d="M208.24,52.56c-.35-.7.25.25-.08-.4C208.24,52.36,207.87,51.87,208.24,52.56Z"/><path class="cls-3" d="M204.65,46.1c-.38-.64-.11,0-.25-.16C204.44,45.91,204.88,46.56,204.65,46.1Z"/><path class="cls-3" d="M207.65,50.36c.27.49.21.48.11.39a5.08,5.08,0,0,1-.21-.48,4.66,4.66,0,0,1,.16.6,5.51,5.51,0,0,1,.77,1.1A10.19,10.19,0,0,0,207.65,50.36Z"/><path class="cls-3" d="M204.73,46c-.14-.17-.42-.61-.45-.54.2.34.48.82.5.71l.29.58C205.35,47.09,204.63,46,204.73,46Z"/><path class="cls-3" d="M208.63,51.54l-.17-.25c.18.49,0,.31.33,1.05A1.38,1.38,0,0,0,208.63,51.54Z"/><path class="cls-3" d="M205.53,46.88l-.43-.8c-.12-.07.15.27.23.47-.08-.11-.14-.16-.07,0C205.26,46.39,205.61,47.18,205.53,46.88Z"/><path class="cls-3" d="M205.26,45.9l-.11-.39-.54-.83C204.68,45,204.88,45.17,205.26,45.9Z"/><path class="cls-3" d="M205.64,46.37l.1.15-.53-1.24C205.41,45.81,205.37,45.74,205.64,46.37Z"/><path class="cls-3" d="M210,50.69c-.18-.34-.49-.72-.24-.36S210.24,51,210,50.69Z"/><path class="cls-3" d="M206.14,44.53c.18.24,0-.31-.07-.57C206.11,44.16,205.87,44.08,206.14,44.53Z"/><path class="cls-3" d="M206,43.86l0,.1A.22.22,0,0,0,206,43.86Z"/><path class="cls-3" d="M207,41l0-.1Z"/><path class="cls-3" d="M207.11,41.2c-.1-.09,0,.15.16.52A3.64,3.64,0,0,0,207,41C207.05,41,206.87,40.79,207.11,41.2Z"/><path class="cls-3" d="M207.67,41.11c.1.23,0,.14.2.46C208,41.7,207.82,41.33,207.67,41.11Z"/><path class="cls-3" d="M216.7,48.88c.16.15.1,0-.21-.48C216.44,48.44,216.65,48.71,216.7,48.88Z"/><polygon class="cls-3" points="216.49 48.26 216.64 48.5 216.9 48.85 216.49 48.26"/><path class="cls-3" d="M217.24,48.77a1.64,1.64,0,0,1,.12.22A.48.48,0,0,0,217.24,48.77Z"/><path class="cls-3" d="M217.37,49v0Z"/><path class="cls-3" d="M217.25,48.88l.16.26a.56.56,0,0,1,0-.12S217.34,49,217.25,48.88Z"/><path class="cls-3" d="M217.39,48.79l-.52-.69c.17.4.31.33.74,1.15Z"/><path class="cls-3" d="M217.48,48.45c.21.21-.43-1,.14-.15-.12-.56-.94-1.42-1-1.86-.45-.33,1,1.71.51,1.34C217.57,48.26,217.37,48.23,217.48,48.45Z"/><path class="cls-3" d="M216.54,47c.26.44.36.43.2.13C216.69,47.12,216.27,46.54,216.54,47Z"/><polygon class="cls-3" points="217.56 47.86 217.82 48.16 217.65 47.88 217.56 47.86"/><path class="cls-3" d="M217.85,47.92l.27.53C218,48.24,218.11,48.23,217.85,47.92Z"/><path class="cls-3" d="M218.52,48.37c.15.14-.55-1-.48-.73l.05,0A3.49,3.49,0,0,1,218.52,48.37Z"/><path class="cls-3" d="M218,46.17s0,.17.18.4l-.07-.29Z"/><path class="cls-3" d="M216.15,43.38c-.48-.68-.05.11-.25-.08C216.05,43.39,216.1,43.49,216.15,43.38Z"/><path class="cls-3" d="M218.7,47.1c.17.3,0,.14,0,.11C218.93,47.6,218.92,47.46,218.7,47.1Z"/><path class="cls-3" d="M218.69,46.77c.21.26.24.39.39.57s.3.19.08-.21-.75-1.08-.95-1.45c.06.31.85,1.63.16.67l.71,1.27C219.28,47.77,218.59,46.73,218.69,46.77Z"/><path class="cls-3" d="M217,44.58l.31.38a2.15,2.15,0,0,1-.33-.63C216.39,43.45,217,44.51,217,44.58Z"/><polygon class="cls-3" points="218.87 45.89 218.84 45.61 218.78 45.59 218.87 45.89"/><polygon class="cls-3" points="219.12 46.13 219.29 46.38 219.07 45.86 219.12 46.13"/><polygon class="cls-3" points="219.44 46.35 219.4 46.32 219.48 46.59 219.44 46.35"/><path class="cls-3" d="M219.78,46.38l-.27-.36c0,.11-.29-.27.05.23C219.47,46.07,219.57,46.09,219.78,46.38Z"/><path class="cls-3" d="M214.22,36.44a7.32,7.32,0,0,0,.46.68l-.39-.65S214.32,36.58,214.22,36.44Z"/><path class="cls-3" d="M215,37.38l-.41-.77c-.16,0,.21.52.21.69.18.2-.12-.34,0-.17Z"/><path class="cls-3" d="M216.9,36.91a3.38,3.38,0,0,1,.44.73c-.12-.34,0-.28,0-.41-.21-.28-.5-.83-.44-.68l.09.34-.2-.32C216.53,36.26,217.15,37.11,216.9,36.91Z"/><path class="cls-3" d="M224.29,38.91a6.26,6.26,0,0,0,.46.6A3.32,3.32,0,0,0,224.29,38.91Z"/><path class="cls-3" d="M65.24,12.43c-.48-.58-.24,0-.33.28Z"/><path class="cls-3" d="M64.91,12.71l-.23.2A.24.24,0,0,0,64.91,12.71Z"/><path class="cls-3" d="M63.31,15c-.29-.81.73-1.18.14-1.92A1.07,1.07,0,0,0,63.31,15Z"/><polygon class="cls-3" points="64.18 14.31 63.78 14.05 64.24 14.84 64.18 14.31"/><path class="cls-3" d="M64.74,14.14h-.19c0,.32.06.64.1.95C64.68,14.78,64.7,14.46,64.74,14.14Z"/><path class="cls-3" d="M62.26,17.08c0-.24,0-.49.07-.73.82-.48.72.6,1.26.29.23-.72-1.19-.68-.65-1.56-.31-.06-.43.29-.61.69s-.37.78-.81.59C60.94,17.33,62.05,16.52,62.26,17.08Z"/><path class="cls-3" d="M77.54,11h0Z"/><path class="cls-3" d="M76.13,13.92a1,1,0,0,0-.39,0,1.26,1.26,0,0,0,.26.13Z"/><path class="cls-3" d="M77.52,16.15a2.43,2.43,0,0,0-.37.21A.39.39,0,0,0,77.52,16.15Z"/><path class="cls-3" d="M83.06,24.51a1,1,0,0,0,.21.19h0l-.17-.23Z"/><path class="cls-3" d="M71.08,21.71a.83.83,0,0,0-.1.35C71.1,21.9,71.12,21.79,71.08,21.71Z"/><path class="cls-3" d="M75.88,19l.09-.11a.76.76,0,0,0-.18.09l.09,0Z"/><path class="cls-3" d="M78.46,13.94c0-.06-.1-.08-.13-.07S78.44,13.94,78.46,13.94Z"/><path class="cls-3" d="M62.18,28.29a.43.43,0,0,0,.38.34C62.56,28.42,62.48,28.27,62.18,28.29Z"/><path class="cls-3" d="M65.86,30.3h0C65.82,30.42,65.84,30.4,65.86,30.3Z"/><path class="cls-3" d="M68.52,30.18l0,0C68.49,30.3,68.5,30.31,68.52,30.18Z"/><path class="cls-3" d="M62.56,28.63c0,.52-.49,1.48.31,1a2.39,2.39,0,0,0,.22-.16l0-.2c.06.42.68.21,1,.32a1.45,1.45,0,0,0,.06-.33,3.08,3.08,0,0,1-.5-.49.35.35,0,0,0-.1-.17C63.34,28.43,62.91,28.67,62.56,28.63Z"/><path class="cls-3" d="M77.79,11c-.25,0-.12,0,0,0Z"/><path class="cls-3" d="M78.14,13.32a1.41,1.41,0,0,0,.13-.24C78.2,13.15,78.13,13.21,78.14,13.32Z"/><path class="cls-3" d="M72.6,21.44l.06,0C72.58,21.35,72.58,21.38,72.6,21.44Z"/><path class="cls-3" d="M78.37,12.85a1.15,1.15,0,0,1-.1.23C78.34,13,78.41,13,78.37,12.85Z"/><path class="cls-3" d="M74.93,19.9h0A0,0,0,0,0,74.93,19.9Z"/><path class="cls-3" d="M79.1,41.84c-.15.24-.47,0-.73.08,0,1,.95-.61.72.48a1.06,1.06,0,0,0,.38-.54l-.75-.49C78.5,41.9,79.14,41.42,79.1,41.84Z"/><path class="cls-3" d="M86,22.73l-.12.06c.37.11.44.22.81,0-.35-.57-1.36-.5-1.65-1.32a.51.51,0,0,1-.25.38A1.59,1.59,0,0,1,86,22.73Z"/><path class="cls-3" d="M84.83,21.81h0l-.22,0a.52.52,0,0,1-.19.17A.73.73,0,0,0,84.83,21.81Z"/><path class="cls-3" d="M66.5,34.24l.1-.3C66.43,34.07,66.43,34.17,66.5,34.24Z"/><path class="cls-3" d="M62.6,15.45a3.2,3.2,0,0,0,0-.44A.48.48,0,0,0,62.6,15.45Z"/><path class="cls-3" d="M82.38,27.27a1,1,0,0,0-.27.16c0,.06,0,.11-.07.18Z"/><path class="cls-3" d="M86,18c-.47-.82,0,.13-.64-.08l.11.57C85.76,18.38,85.86,18.12,86,18Z"/><path class="cls-3" d="M79.53,41.89l0-.07v0Z"/><path class="cls-3" d="M80.65,24.73l-.18.06A.25.25,0,0,0,80.65,24.73Z"/><path class="cls-3" d="M83.42,23.55l-.77,1.19.41-.23C82.76,24.11,83.81,24,83.42,23.55Z"/><path class="cls-3" d="M79.47,14.46l-.42,0h0a.73.73,0,0,1,.12.05.18.18,0,0,1,.1.16c0,.11-.08.25-.16.4-.18.32-.33.67.26,1.42-2.44.47,1.19,1.69-1,2.11l.28.09a43.68,43.68,0,0,1-4.22,5.46l-2,2.35A20.14,20.14,0,0,0,71,28.23l-.21-.34c-.18.07-.16,0-.22,0l-.11,0-.15-.07a2.53,2.53,0,0,0-.23-.12l0,0s0,0,0,0a.31.31,0,0,1-.08-.11,2.44,2.44,0,0,1-.26-.57,3.33,3.33,0,0,1,0-1.68,8.73,8.73,0,0,1,1.11-2.54c-.07-.63-1-.79-1.13-1.44.14-.17.36-.61.78-.35,0,.5.5.53.59.75.3-.59,1.29-1,1.18-1.87l-.83.05c-.06-.36.32-.57.48-.73.2.27,1,.43,1,.68-.43-2,1.15-.38,1.37-1.58-.88-1.05-.72-2.85-.61-4.23l.62-.07c-.51.44.65.73,0,1.23.75-.17.84-1,1.48-1.23-.3-.19-.55-.56-.44-.84.44-.09.86.43,1.26.24l-.1.59c.52.25.33-.43.51-.65.4.41.87.24,1.1.84-.06-.86.23-.51.19-1-.39-.5-.19-.72-.33-1.17l-.28.35c.66.13-.13.16.33,1-.49-.24-.3-1.63-.75-1.23.47-.77.63-.37,1-1.2-.1.1-.13-.05-.11-.27s.08-.5,0-.64c.5-.05.13.34.22.95.17,0,0,.52.37-.11,0,.18-.08.33-.17.5s-.09.17-.14.26,0,.07,0,.05l0-.05c-.06.08-.16.42-.13.3s0-.07,0-.11v-.12h0c0-.41,0,.57,0,.47h0v0a4.48,4.48,0,0,0,0,.52,5,5,0,0,0,.15.81l.09.33c0,.07,0,.12,0,.12a.63.63,0,0,1,.13.23c-.08-.26-.18-.57-.23-.8a5.19,5.19,0,0,1-.11-.59l0-.2v-.05h0c-.09-1.75,0-.49,0-.88h0v.11c0,.19,0,.16,0,.1s0,0,.09-.24l0,.12a1.86,1.86,0,0,1,.67-.86,1.52,1.52,0,0,0-.35.32c-.09.13,0,0,.07-.12a1.19,1.19,0,0,0,.09-.36c.43-.72.23,0,.32-.06a.78.78,0,0,0-.2.23,1.56,1.56,0,0,1,.34-.23c0,.08-.18.17-.24.2h0l0,0a3.25,3.25,0,0,1-1.29.15h.16c.12.06,0,.38.56.64-.28,0,0,.35.12.56s.69,1.13-.39,1.14c0,0,0,0,0,0-.29.49-.75.76-1,.52-.19.23-.36.47-.57.69l-.7-.41c-.12.77.35.9.85,1.77-.68.29-.84,1.33-.8,1.82a.43.43,0,0,0-.17.27l.45-.11c-.36.52,0,.69-.21,1.05.11,0,.16,0-.09.11a1.72,1.72,0,0,1-.19.17c0-.07,0-.14.1-.19l-.27-.1c-1-.08-.07.93-.65,1.19a.43.43,0,0,1,.06-.2c-.37.12-1.53-.29-1.07.25-.11,0-.07.18,0,.37l-.24.08a1.68,1.68,0,0,1,.24-.08c.08.26.21.55.07.45a6.67,6.67,0,0,1-.58.41c-.15,0-.18.17-.19.34l-.28-.2c-.11.18-.23,0-.27-.08-.56-.27-.6,0-.71.29s-.26.71-.65.34c0,.71.33.81.45,1.11A5,5,0,0,1,71.21,25c-.24-.33-.62-.54-.88-.92a2.34,2.34,0,0,1-.26-1.7c-.19,0-.19.27-.16.55a1.72,1.72,0,0,1,0,.95l-.06,0c.17.09.29.52.41,1,.06.75-.62,1.35-.81,1.2l.26-1.25a4.81,4.81,0,0,0-.75,1.65c-.12.36-.23.73-.37,1.1a3.54,3.54,0,0,1-.46.86.36.36,0,0,1-.27-.26,1,1,0,0,1,0-.51c.12-.49.32-1.06.41-1.61a6.16,6.16,0,0,1-.71.4l.32-.95c-.44.26-.91,1.17-1.3.68a.92.92,0,0,0,.26-1,1.35,1.35,0,0,1,.51-1.16c0-.39-1.09,1.33-.5.05-.72.86-.09.61-.13,1-.53,1.23-.87.7-1.19.49a.36.36,0,0,0-.23,0c.46-.69.69-.64.76-1.36-.4.45-.87.6-.5-.17-.65.78-.33-.26-.34-.5a3.18,3.18,0,0,1-1,1.75c-.36.09-.59,0-.64-.63-.07.23-.15.46-.21.7-.44.11-.37-.25-.22-.66s.54-1,.34-1.2c.46-.05.48.11,1-.11a2,2,0,0,1-1.31-.45c.34-.42.68-.81,1-1.17-.52.22.05-.59-.66-.25.26-.45.46-.39.67-.29s.44.26.7.14c.25-.47,0-.45-.26-.49s-.36-.16.22-.69c.21,0,.43,0,.64,0,.06-.2-.28-.5.06-.62-.23.06-.16.14-.17.27-1.41.3-.84-.82-2.27-.55l-.15.43c-.17-.56-1-1.06-.41-1.61.53-.37.85.32,1.18.49.2-.53-1.41-.48-1.08-1.28a.65.65,0,0,1-1.05-.05c-.23.5-.69,1.63-.08,1.42l.16-.19c.35,0,.43.3.59.41-.11.63-.67.37-1,.53-.35,1.19,1.35-.11,1.2.84l-.28.19c.32.35.28,1,1.17.76-.48.38-.41.6-.26.76s.32.29,0,.66c-1,.63-.91.18-.79-.34s.41-1.14-.09-1.22c-.42.64-.9,0-1.32-.11a9.17,9.17,0,0,0,.78,1.4c-.26.23-1.14,1.24-.46,1.18l0-.16c.28.54,1-.1.78.59-.15.19-.44.21-.56.25-.08.61.44.15.64.35,0,.6-.71.27-.81.83.75.07.11,1,.36,1.49.37-.5.83-.31,1.24-.26a.75.75,0,0,0,.54-.07.83.83,0,0,0,.19-.26,3.67,3.67,0,0,0,.22-.6,4.44,4.44,0,0,0,1.24-.11,2.91,2.91,0,0,1-1.12,1.25,1.73,1.73,0,0,0-1,.9,5.1,5.1,0,0,1-.49-.84c-.6.83.45,1.06,1.07,1.5a.92.92,0,0,1,.42.94c.47.28.39.11,1.13,1l.31-1.15a1.33,1.33,0,0,1,.27,1.19,3.17,3.17,0,0,1,.89.05.92.92,0,0,1-.5.39c.21.68.42.42.66.06a1.39,1.39,0,0,1,1-.35c-.13.17-.27.34-.41.5a1.11,1.11,0,0,0,.59-.53,1,1,0,0,0,.41-.2c0-.2-.15-.88-.51-1.1,1.06.24,1.91-.39,2.93.19,0,.4-.45,1.07-.32,1.05.57,0,1.1-1,1-1.57a1.83,1.83,0,0,1,.27-.21c.13.26.31.53.57.44.08.09.2.13.39,0-.06-1.11,1-1.26,1-1.87a2.61,2.61,0,0,0-.76.5c.21-.92.2-1.85.66-1.58-.19.55.06.66.29.74s.4.15-.09.71c1.27.51,0-1.12,1-1.37l.75,0c.31.65-.66,1.06-.41,1.17l.33-.4c-.11.82-1.72,1.68-2.52,3.1l1.08-.48c.37-.18.73-.39,1.1-.59.56-.68,1.14-1.36,1.75-2,.3-.32.61-.64.91-1a9.62,9.62,0,0,0,.72-.83A4.72,4.72,0,0,0,80,21.92l0,.08a2,2,0,0,0-.33-.32l.19,0-.22-.59c.77,0,1.31-.59,2.1-.92-.59.16-.59.15-1-.08-.55-.43-.77-.63-.25-1,.43.24.23.57.8.36-.33.09-.53-.27-.45-.53.45-.14.77-.64,1.22-.42,0,.21-.17.25-.28.31s.7-.39.83.23l.18-.64c.54-.17.46.51.76.49.2-1.17-.61-2.14-.57-3.14a10.17,10.17,0,0,0,1,.41c.59-.61-.56-1.94-.42-2.74.28.21.06.47.13.76a9.82,9.82,0,0,0,.79-2,6.31,6.31,0,0,0,0-3.17,6.76,6.76,0,0,0-2-3.19c-.88-.81-1.69.3-2.83-.14-.47.31-1-1-1.42-.66A10.59,10.59,0,0,0,77,4.38,7,7,0,0,0,72.41,6a24.75,24.75,0,0,0-2.52,2.59c-.54.56-.87-.29-1.36-.27-1.38,1.1-.77,2.3-1.63,3.62-.12-.38-.58-1.32-1.08-.83.16.32.49.71.05.91l-.12-.39c-.64,0-.53.58-1.21,1.09a5.08,5.08,0,0,0-.6,4.42c-.76,1-1-.75-1.29-.68.84-.55.17-.64,0-1,0,.59-.14,1.19-1,1a2.27,2.27,0,0,0-.37,1.79c-.07-.45.45-.5.62,0-.53.36-.88,1.85-1.76,1.39a22.71,22.71,0,0,0-1.39,5.81c0,.54-.05,1.1,0,1.66a13.38,13.38,0,0,0,.18,1.8A12.82,12.82,0,0,0,60,32.22c.81.47-.08-.61.44-.39,1.1.7.05.9,1,1.5l-.69-.07c.76,1.4,2.56,1.87,3.81,2.19-.55.38.57,1.09-.53.72.28.17.21.92.23,1.66s.13,1.43.53,1.31a21.62,21.62,0,0,1,.49-2.69c.15-.19.85.35.85.15.25.7.74,1.54,1.15,1.65,0,.34-.23.41-.55.35a4.8,4.8,0,0,1-1-.38c-.27.49.15.86.5,1.17s.66.53,0,.88c1.43.23,0-.6.88-.75a11,11,0,0,0,1.12.47l-.83-.53A12.79,12.79,0,0,0,68.91,39a1.49,1.49,0,0,1,1.17.2,9.28,9.28,0,0,0,1.2-1.14c.2.86.89,0,1.51.08-.08.21-.18.42-.28.64a3.48,3.48,0,0,1,1.84-.1c-.26.91-.84.09-.86.86l1.07-.09c-.15-.47.29-1.06-.46-1.08a15,15,0,0,1,.71-1.59,4.21,4.21,0,0,1,1.44-1.35c.55.12.5.39.38.7s-.33.64.05.9c1.88-.84.44-3.07,1.19-3.59,1.08-.57.47-1.07,1.18-1.95.2.66,1-.2,1.53,0l.17.74a.4.4,0,0,1,.74-.18c-.62-.45.32-1.58.46-2.41l-.61-.28a4,4,0,0,1,.77-1.9c.32-.87-.27-1-.51-2a2.73,2.73,0,0,1,1.82.91c-.42,0-.47.48-.87.7-.15,1.26.44,2.83-.53,3.59,1,1.37.34-.75,1.12-.89a.17.17,0,0,1,.06.17.19.19,0,0,1,.12-.09,1.76,1.76,0,0,0,.28,1.76c.31-.69-1-1.37.11-1.69,0-.8,1.35-.53,1.68-.81-.25-.71-1.32-1.42-.53-2.19l.5.88c.67-1-.8-1.19-.19-2.12-.29.28-.56-.77-1-.15a1.56,1.56,0,0,1,.62-1.67c0-.21-.25-.18-.5-.36-.86.26,0,1.2-1,1.2l.59.89A1,1,0,0,1,82.45,25c-.06.16,0,.36-.23.37-1.29-.68.82-.33-.13-1.15l-.13.41c-.89-.35-.2-1.25.12-1.68.68-.29,1.09-.7,1.71-.41l-.15.87c.69-.11.24-1.08.49-1.49a.52.52,0,0,0,.25,0,.6.6,0,0,1-.19-.06.56.56,0,0,1,.38-.11c.23-.36.13-1.09.5-1.35l-.57-.22.28.19c-.19.34-.76.63-1,.17,0-.95,1.12-.59,1.7-.55.75.59-.38.77-.3,1.3.95.18.49-.75,1.43-1.31.77.77-.47.95.28,1.55.49-.61-.08-1.08.49-1.71.38.32.09,1,.66,1.24l.48-.35c-.49,1.18,1.24.33,1,1.35.29-.12.17-.37.09-.62s-.13-.5.33-.74c-.49,0-1.47.24-1.54-.58.2-.2.4-.43.6-.65.6-.16.65,1.25,1.26.88l0-1c-.29-.07-.6.29-.89-.12.5-.4-.8-1.23-1.07-1.92.15-.46.29-.85.68-1-.32-.75-.46-1.55-.71-2.35A3.8,3.8,0,0,0,87,12c.87.65,1-.38,1.05-1.25a1.59,1.59,0,0,0,1.09.82,1.73,1.73,0,0,0,1-.25,1.32,1.32,0,0,0-1-.76c-.36,0-.65.08-.7.34-.19-.91-.62-.85-.86-1L83.64,7l-.81,2.07c0,.11-.15.18-.49.13-.56,0-.35-.9-.68-1.11-.75.48.47,1.09-.42,1.45,0-.13,0-.21-.16-.31a.92.92,0,0,0-.48,1.28c-1.19-.62-1.07,1.06-1.77.08-.7,1.07.56.36.66.85,0,.73-.95,1-1.3,1.08.2-.22.17-.65.51-.71l-.76-.44c-1.55.65.63,2-.88,2.55.19-.84-.29-.61-.46-1.29,0,.31-1,1,0,.92a7,7,0,0,1-1.15.74,2.94,2.94,0,0,0,0,1.69,3.18,3.18,0,0,1-1.85.75,5.37,5.37,0,0,1-1.23,2A4.45,4.45,0,0,0,71.28,21l.1-.09c-.71,1.11,1.24,0,.63,1.18-.85-.61-1,.43-1.66.61a3.88,3.88,0,0,0-.78,2.15,3.4,3.4,0,0,1-.72,2.07.46.46,0,0,1-.35-.54,9.77,9.77,0,0,0-1,3.13l-.12-.07c-1.2,1.58-.39,3.39-.27,5.19-.12-.16-.5-.22-.63-.34a4.3,4.3,0,0,0-.21,1.64,2.46,2.46,0,0,0,.19.82,5.85,5.85,0,0,0,.54.83,3.08,3.08,0,0,0,0,1.85,4.3,4.3,0,0,0,.78,1.45l.57.64c.24.23.52.5.88.8a8.73,8.73,0,0,0,3.21,1.59c.29.2-.54.14-1,0a6.46,6.46,0,0,0,3.27.27,12,12,0,0,0,2.05-.57,6.16,6.16,0,0,0,.78-.7c.21-.24.43-.5.43-.63l.28-.91A2.06,2.06,0,0,1,79.52,40c.88,1.08-.63.88,0,1.81.14-.39.21-.8.78-.8.09.61.16.31.29.84.52.09.33-2,.39-1.91-.15-.23-.33-.27-.57,0-.21-.93,1.27-1,1.67-1.82-.21.15-1,.44-1.19-.27,1-.43.45-1.69.64-2.58,1.13-.14.22,1.36,1,2,.35.17,1.17.51,1.08,1.07.83-.43.79-1.49,1.23-2.18l.17.22c.76-.85.76-2.53,1.8-2.79l-.57.12c0-.24.46-.58.26-1.19.31.35,1.11.11,1.18.59-.72-1.36,1-2.45.32-3.77.47,0,.78.58,1,.86-.54.45-.91.42-.72,1.08.37-.43.93-.51,1.12-.22-.3-1,.29-2.31-.26-3.11.61,0,1.06-.19,1.57.39.68-1.67-2.36-.76-1.2-2.29,1.12-.27.29,1.29,1.22.46l0,.25c2.12.45-.75-1.33-.14-2.08,1,.5.23,1,1.25.88.32-.92-.8-2.13,0-2.69l.31.37c.24-.53,1-1.38,1.24-1.93.19.09.12.14.12.27.88-.73-.25-.66.83-1.06L93.85,20c-.55.21-1.41.67-1.16,1.45-.24-.77-1.61,0-2.24-.67l.25.28c-2,.36-3.16,1.67-4.66,2.67.21,1.52-1.45,1.16-1.61,2.5.83,1,.06.34-.42,1.24.24-.49-.67-.68-1-.55a1.37,1.37,0,0,1,0,.86c-.46-.14-2,0-1.73.95-.7.13-.18-.38-.28-.65-.62-.29,0,.69-.43.52a.43.43,0,0,1-.08-.19,8.48,8.48,0,0,1-2,1.29c.75,1-.39.94-.42,1.54-.15-.38-.69,0-1,0l.18,1c.09.93-.88,0-1.13.72l.25.08c-.15.6-1.6.72-2.34.44A5.74,5.74,0,0,1,73,34.85a1,1,0,0,1-.13.24l-.06,0h0c0,.12.07.28.1.41A4.25,4.25,0,0,1,73,37c0,.34-.17.45-.11.38l.09-.07,0,0h0s-.24.15-.12.08h0l.06,0a2.07,2.07,0,0,1,.57-.19,12.24,12.24,0,0,1,1.75-.22h.19l0,0,0-.11c.55-1.6,1.4-3,1.47-5.07-.31-.34-.65.07-1.14-.25a2.55,2.55,0,0,1,.08-.93c-.39.27,0,.31-.3.19l.21.67c-.09,0-.12-.06-.3,0,.07.22.26.5.15.75-.25-.42-1.1-.71-.66-1.16.11.06.14.14.19.29.15-.41-.26-.52,0-.79s0-.31.39-.27l.79-1.05c-.85-.9.39-1.31.54-1.45.72.4,0,.84.64,1.36l.7-.2-.61-.24.36-.5.1.07c-.21-.15-.42-.31-.16-.37.09,0,.28,0,.29.09l-.17-.52c.53.47.33-.27,1,.08a2.21,2.21,0,0,0,.39-1.48,1.07,1.07,0,0,1,.87-1.12c-.41,0-.88-.93-.57-1.2a.49.49,0,0,1,.64.23l-.08-.62c.68.06.93-.12,1.11-.4a2.39,2.39,0,0,1,.77-.84l.24.24c-.14-.5-.17-1,.25-1.27l.47.5c.74-.13-.82-1.28,0-1.49-.55-.5-1.12-.42-1.69-.82.66.35,1.26-.1.75-.34.26-.72.35-.34.52-.26l0-.62c.38-.33.78.57,1,1-.25-.88.52-.81,1-1.06l.07.38c.2-.11.37-.24.57-.33a1.11,1.11,0,0,1,1-1.22c.09.33.18.65.29,1,.6.16,0-.38-.07-.58.2-.72.7-.27,1.25,0a.71.71,0,0,1,.12-.33L81.8,14.2c.14-.1,0,0-.44.13l-.38.08-.48.05h-1C79.38,14.46,79.43,14.45,79.47,14.46ZM73,21.69l.14.07C73.13,22,73.16,22.2,73,21.69Zm3.64-4.27c0,.81-.32.38-.58.28.6-.45.52-.94,1.09-1.34a2.48,2.48,0,0,1-.61-.15.82.82,0,0,1,.93-.17C78.2,16.79,76,17.43,76.64,17.42ZM67,30.64l.16-.23h0Zm4.41-2.38a.37.37,0,0,0,.33.26C71.66,28.29,71.56,28.11,71.44,28.26Zm7.69-5.42c.44.08.63-.36.74-.68A3.54,3.54,0,0,0,79.13,22.84ZM65.75,35.58c-.33,0-1.1-.06-.76.52.4-.13.6.68,1.06.31a.21.21,0,0,1,0,.07A6,6,0,0,0,65.75,35.58Zm17-14.94c.34.22.64.57,1,.61l-.06.05c.15,0,.27,0,.32.09.16-.12.34-.26.29-.43C83.09,20.32,83.08,19.88,82.7,20.64Z"/><path class="cls-3" d="M83.09,30.13c0-.09.09-.14.11-.2A.89.89,0,0,0,83.09,30.13Z"/><path class="cls-3" d="M84.19,21c-.06,0-.28.09-.53.26A.55.55,0,0,0,84.19,21Z"/><path class="cls-3" d="M65.14,18.46l.1.16.47-.33c-.33-.5-.88-.62-1.49-.86.46.65.08,1,.13,1.68A9,9,0,0,1,65.14,18.46Z"/><path class="cls-3" d="M60.62,19.14c-.2.12-.67.43-.73.61l.38.1C60.39,19.61,60.49,19.37,60.62,19.14Z"/><path class="cls-3" d="M62.26,31.18l-.21-.29-.37-.62c-.31.05-.15.7.17.93A.31.31,0,0,0,62.26,31.18Z"/><path class="cls-3" d="M65.65,22.42a4.91,4.91,0,0,1-.51.15c-.34.55-.21.88.31.43C65.1,23,65.71,22.66,65.65,22.42Z"/><path class="cls-3" d="M64.69,32.35c.58-.66.86.5,1.3-.2C65.66,32.35,65,31.64,64.69,32.35Z"/><path class="cls-3" d="M67.77,23.89c.38-1.08-.26-.21-.35-.58C67.56,23.41,67.33,24.63,67.77,23.89Z"/><path class="cls-3" d="M70,29.62a.66.66,0,0,1-.81.7,3.55,3.55,0,0,1,.44-.69,5.54,5.54,0,0,1-1.3,1c.47.31,1.3.31,1.17,1.09C70,31,70.47,30,70,29.62Z"/><path class="cls-3" d="M68.45,23.81c-.11-.31.08-1.06-.15-1-.22.57-.49,1.42-.11,1.3L67.7,25C67.77,25.71,68.07,23.76,68.45,23.81Z"/><path class="cls-3" d="M72.6,30l-.34-.16a4.28,4.28,0,0,1-1,1,2.42,2.42,0,0,0-.86,1.08A5,5,0,0,0,72.6,30Z"/><path class="cls-3" d="M69.19,25.27,69.44,24c-.27-.06,0,.42-.21.76-.07-.14-.18-.22-.31.05C69.35,24.47,68.75,25.83,69.19,25.27Z"/><path class="cls-3" d="M70.35,23.41a7,7,0,0,0,.31-.69,10,10,0,0,1-.27-1.11C70.11,22.22,70.37,22.35,70.35,23.41Z"/><path class="cls-3" d="M70.83,23.88l.07.18a12.69,12.69,0,0,0,.26-1.93C71,23,71,22.88,70.83,23.88Z"/><path class="cls-3" d="M82.48,19.07c-.28-.29-1,.07-.5,0C82.2,19.36,83.06,18.78,82.48,19.07Z"/><path class="cls-3" d="M75,17.51c.38-.05.35-1,.27-1.48C75.24,16.5,74.53,17.27,75,17.51Z"/><path class="cls-3" d="M75.25,15.86l0,.17A.24.24,0,0,0,75.25,15.86Z"/><path class="cls-3" d="M76.94,15.41a.28.28,0,0,0,0,.14Z"/><path class="cls-3" d="M77.06,15c.24,0,.45-.45.28-.84a2.91,2.91,0,0,0-.4,1.21C77,15.28,77.35,15.42,77.06,15Z"/><path class="cls-3" d="M74.58,16.92c-.06-.29.2-.36-.11-.59C74.28,16.28,74.32,16.82,74.58,16.92Z"/><path class="cls-3" d="M69.84,39.92c.7.2,1.12,0,.91-.54C70,39.41,70.41,39.74,69.84,39.92Z"/><path class="cls-3" d="M71.6,39.18l.12.27.51.36C72,39.61,71.8,39.39,71.6,39.18Z"/><path class="cls-3" d="M76.36,38.42a.59.59,0,0,1-.15.36C76.43,38.58,76.6,38.4,76.36,38.42Z"/><path class="cls-3" d="M76.1,38.88a.5.5,0,0,0,.11-.1Z"/><path class="cls-3" d="M75.72,38.87l.08.3a2.86,2.86,0,0,1,.3-.29A.26.26,0,0,1,75.72,38.87Z"/><path class="cls-3" d="M77.57,37.8l-1.14-.29c-.54.83,1.09-.16.83,1.09C77.39,38.32,77.47,38.07,77.57,37.8Z"/><path class="cls-3" d="M79.44,36c.71-.25.37-1.84,1.34-1.38.4-.82,0-1-.34-1.25s-.64-.46-.21-1.27c-1.52.93.9,2-.68,2.78C80.58,34.8,79.51,35.67,79.44,36Z"/><path class="cls-3" d="M78.07,35c.26.45.9,0,.83-.46C78.7,34.62,77.93,34.34,78.07,35Z"/><polygon class="cls-3" points="81.5 33.26 82.13 33.12 81.96 32.81 81.5 33.26"/><path class="cls-3" d="M82.81,31.94l.19.72C82.91,32.4,83.36,31.9,82.81,31.94Z"/><path class="cls-3" d="M84.86,30.4c.41-.23-.5-1.32-.77-.42l.17-.14C84.4,30,85.07,29.89,84.86,30.4Z"/><path class="cls-3" d="M86,24.52c-.16.24-.18.61.09.7l.15-.81Z"/><path class="cls-3" d="M83.08,23c-.84-.2-.28.63-.77.91C82.73,23.5,82.8,23.61,83.08,23Z"/><path class="cls-3" d="M87.5,24.31c.2.35-.16.54-.3.69C87.66,25.14,87.82,24.6,87.5,24.31Z"/><path class="cls-3" d="M87.84,23.06c.42-.07.39.27.68.2a1,1,0,0,0,.53-1.38,2.71,2.71,0,0,1-1.61-.65c-.11.9,1,2-.2,1.85l.93,1.34C88.72,23.89,87.53,23.45,87.84,23.06Z"/><path class="cls-3" d="M84.59,23.3l.64-.16c-.46-.15-.37-.49-.39-.77C83.85,22,84.66,23,84.59,23.3Z"/><path class="cls-3" d="M89.36,17.91c0-.43.07-.87.08-1.33l-.15.41C89.32,17.3,89.35,17.61,89.36,17.91Z"/><path class="cls-3" d="M89.91,17.19l.31,0c-.11-.4-.22-.78-.35-1.18C89.9,16.43,89.91,16.8,89.91,17.19Z"/><path class="cls-3" d="M90.53,15.73l-.07.18c0,.3.09.63.12.92C90.58,16.48,90.56,16.1,90.53,15.73Z"/><path class="cls-3" d="M90.48,11.93c-.11.16-.22.32-.34.47.24.48-.17,1.45.41,1.31A2.43,2.43,0,0,1,90.48,11.93Z"/><path class="cls-3" d="M85.21,19.43a1.15,1.15,0,0,0-.59-.58l.37.69C85,19.48,85.05,19.34,85.21,19.43Z"/><path class="cls-3" d="M83.7,19.19l.25,1c.53-.36.08-.92.4-1.4-.37,0-.16.64-.53.7Z"/><path class="cls-3" d="M77.24,28.69c-.51-.23-.48-.07-.68-.61a5.33,5.33,0,0,1-.24,1.84c.38,0,.83.62.75.34L77,29.44l.34.21C77.84,29.27,76.77,29.14,77.24,28.69Z"/><path class="cls-3" d="M91.64,23.46a1,1,0,0,0,.71.3C92.4,23.13,91.62,23.58,91.64,23.46Z"/><path class="cls-3" d="M191.28,30.54c-.73.2-.14.2.1.41Z"/><path class="cls-3" d="M191.38,31l.08.29A.23.23,0,0,0,191.38,31Z"/><path class="cls-3" d="M192.53,33.36c-.82-.14-.62-1.19-1.54-1A1,1,0,0,0,192.53,33.36Z"/><polygon class="cls-3" points="192.43 32.3 192.01 32.52 192.91 32.5 192.43 32.3"/><polygon class="cls-3" points="192.56 31.74 192.46 31.91 193.33 32.27 192.56 31.74"/><path class="cls-3" d="M193.55,35.18l-.49-.39c.14-.85.91-.26,1-.82-.47-.58-1.2.63-1.63-.24-.43.43.95,1.19.12,1.67C192.84,36.22,193,35.07,193.55,35.18Z"/><path class="cls-3" d="M200.35,32.86a.43.43,0,0,0,0-.12C200.3,32.84,200.29,32.92,200.35,32.86Z"/><path class="cls-3" d="M192,29.49a.82.82,0,0,0-.2-.29,1.23,1.23,0,0,0,0,.28Z"/><path class="cls-3" d="M205.67,35a1.63,1.63,0,0,0,.06.42A.41.41,0,0,0,205.67,35Z"/><path class="cls-3" d="M219.22,30.61a1,1,0,0,0,.24-.17v0l-.26.11Z"/><path class="cls-3" d="M196.92,24.71a.84.84,0,0,0,.37.17C197.12,24.72,197,24.69,196.92,24.71Z"/><path class="cls-3" d="M207.65,37.42l-.06-.11a.54.54,0,0,0,0,.18l.06-.07Z"/><path class="cls-3" d="M194.23,31.83a.81.81,0,0,0-.26-.24A.65.65,0,0,0,194.23,31.83Z"/><path class="cls-3" d="M199.4,42.63a.39.39,0,0,0,.4.23C199.81,42.68,199.72,42.57,199.4,42.63Z"/><path class="cls-3" d="M202.4,44.89h0C202.33,45,202.35,45,202.4,44.89Z"/><path class="cls-3" d="M204.91,46.33h-.06C204.86,46.42,204.87,46.44,204.91,46.33Z"/><path class="cls-3" d="M199.8,42.86c0,.49-.7,1.47.44.7l0-.18c0,.38.59.2.83.33a1.1,1.1,0,0,0,.12-.31,3.26,3.26,0,0,1-.37-.48C200.8,42.5,200.23,42.85,199.8,42.86Z"/><path class="cls-3" d="M200.51,32.67c-.11.22.13.23,0,0Z"/><path class="cls-3" d="M203.27,33.45l-.18-.2C203.12,33.35,203.16,33.43,203.27,33.45Z"/><path class="cls-3" d="M207.68,40.58h0C207.59,40.55,207.61,40.57,207.68,40.58Z"/><path class="cls-3" d="M202.9,33.09l.19.16C203.06,33.17,203,33.09,202.9,33.09Z"/><path class="cls-3" d="M208,38.52l0-.05A.17.17,0,0,0,208,38.52Z"/><path class="cls-3" d="M221.23,41.8c-.51.12-.77-.25-1.18-.4-.53.38,0,.45.43.48s.92,0,.11.37a3,3,0,0,0,1.22-.25,8.58,8.58,0,0,1-.68-.81C220.24,41.51,221.73,41.47,221.23,41.8Z"/><path class="cls-3" d="M218.16,27.34l0,.12c.2-.33.32-.38.15-.79-.63.22-.79,1.22-1.64,1.33a.48.48,0,0,1,.3.31A1.63,1.63,0,0,1,218.16,27.34Z"/><path class="cls-3" d="M217,28.31s0,0,0,.05a.58.58,0,0,0-.07.21.33.33,0,0,1,.11.21A.64.64,0,0,0,217,28.31Z"/><path class="cls-3" d="M211.24,37.25l-.18-.22C211.07,37.23,211.14,37.28,211.24,37.25Z"/><path class="cls-3" d="M189.89,32.56a2.94,2.94,0,0,0-.42,0A.51.51,0,0,0,189.89,32.56Z"/><path class="cls-3" d="M222,32.63a2.42,2.42,0,0,0,.06.46,1.91,1.91,0,0,1,.13.25A5.71,5.71,0,0,0,222,32.63Z"/><path class="cls-3" d="M203,27.56c.6-.74-.15,0-.21-.63l-.52.29C202.51,27.49,202.82,27.47,203,27.56Z"/><path class="cls-3" d="M221.87,42.06a.22.22,0,0,1,0-.08l-.06,0Z"/><path class="cls-3" d="M208.56,20.29c0,.07,0,.14,0,.2A.24.24,0,0,0,208.56,20.29Z"/><path class="cls-3" d="M218.37,30.06c.33.33.66.64,1,1l-.15-.46C218.76,30.8,218.9,29.78,218.37,30.06Z"/><path class="cls-3" d="M207.25,30.73l-.23.54c1.71-.32,1.8,1.9,3.59,1.14-.08,2.49,1.91-.78,1.83,1.49l.15-.25c.4.41.8.82,1.18,1.25A8.66,8.66,0,0,1,214.7,36c.08.13.11.23.09.25h0l.13-.09.24-.17.46-.29a6.81,6.81,0,0,1,.69-.36,2.67,2.67,0,0,1,.44-.17l.12,0,.18,0a.62.62,0,0,1-.2,0,2.78,2.78,0,0,1-1.18-.55c-.35-.27-.46-.47-.4-.37a1.2,1.2,0,0,1,.15.32,1.54,1.54,0,0,1,.09.28h0c.08.31-.69-2.62-.36-1.38h0s0,0,0,0a.81.81,0,0,1-.37.29l0-.4c-.3-.1-.77-.24-1.4-.47l-2.2-.81c-1.54-.59-3.08-1.2-4.59-1.87a37.49,37.49,0,0,1-8.53-5c-.72-.07-.95.86-1.66.89-.17-.17-.63-.47-.32-.86.52.07.59-.43.83-.49-.64-.42-1-1.47-1.92-1.44l0,.85c-.38,0-.59-.37-.74-.55.29-.19.48-.94.74-.92-2.12.25-.38-1.23-1.66-1.57a2.24,2.24,0,0,1-.74.37l-2.14,5.75c-.11-.08-.06-.18.1.36a2.7,2.7,0,0,1,.09.49c0,.1,0,.2,0,.3a.83.83,0,0,1,0-.12,1.22,1.22,0,0,1,.26-.58l.23.4c-.21-.05-.22.21-.27.44s-.13.46-.19.42c0,.38.56-.1,1,.29,0-.35.19-.76.47-.82.28.3.11,1,.53,1.21l-.62.21c.12.6.64.08,1,.12-.12.57.52.94.15,1.47.91-.45.94,0,1.78-.12-.42-.84.48-.6.6-1.06l-.86-.14c.93.82-.39-.06-.69.86-.33-.63,1.33-1.15.42-1.39,1.22,0,1.26.49,2.63.27-.7-.15.39-.51.18-.94.82.36.06.4,0,1.08.44.18.34.75,1.06.32.54.61-.44.59-.29,1.11-.53.46-1.51-1.68-2.24.32-.37-.14-1.13.39-1.62.13.34.45.66,1.36,1.38,1.18l.55-1.06c.42.18.87-.51,1.12-.26-.31.22-.27.82.09.89,0-.19-.16-.22,0-.39.63.23,1.09-.44,1.91-.23a7.9,7.9,0,0,1-.7-1.74c.55-.66.47.1.85.2-.11.07-.19,0-.17.25l.55-.15c.57.74-.69,1-.3,1.69,0,.85.75,0,.84.53l.06-.22a.64.64,0,0,1,.12.15l0-.05c.43.14.78.44,1.24,0-.13.26.35.16.59.09s1.28-.26.94.75c0,0,0,0,0,0,.35.44.44,1,.13,1.13.16.25.31.5.44.75l-.63.53c.67.34,1,0,1.92-.23a1.23,1.23,0,0,0,.5.88,2.63,2.63,0,0,0,.84.44.44.44,0,0,0,.18.25l.08-.45c.31.52.64.22.86.56,0-.11,0-.15.06.11a1,1,0,0,1,.06.22c-.08,0-.11,0-.12-.15l-.2.2c-.52.81.78.37.7,1,0,0-.13-.07-.14-.12-.07.36-1.06,1-.38.86-.07.08.09.1.27.13a.89.89,0,0,1-.08.17.91.91,0,0,1,.09-.17c.25,0,.55.06.38.11a2.35,2.35,0,0,1-.06.54c-.11.09,0,.22.1.3l-.34,0c0,.13-.16.1-.25.07-.61.09-.49.17-.39.36s.13.47-.26.12a2.78,2.78,0,0,0,.83.75,1.49,1.49,0,0,1,.17,1.26,2.51,2.51,0,0,1-.86-1,2.4,2.4,0,0,1-.06-1.42s-.1.11-.1.35a1.77,1.77,0,0,1-.11.71l0-.05a5.3,5.3,0,0,1,.26,1,.55.55,0,0,1-.29.58.42.42,0,0,1-.49-.09,8,8,0,0,0,.34-.8,1.89,1.89,0,0,0-.84.8,3.44,3.44,0,0,1-1,1.12c-.51-.65.26-1.14.5-1.88a6,6,0,0,1-.68-.16l.36-.54c-.44-.09-.88.34-1.24-.25.74-.2-.39-1.08.63-1.33-.14-.38-1,.53-.61-.26-.63.39,0,.47,0,.75-.5.88-.92-.12-1.41-.2.3-.41.6-.28.43-.86-.33.23-.77.25-.68-.3-.42.49-.52-.28-.71-.5a1,1,0,0,1-.33,1.26,1,1,0,0,1-1-.48l.11.49c-1,.36-.18-1.08-.89-1.33a4.41,4.41,0,0,0,1.12-.14,7.72,7.72,0,0,1-1.8-.22l.24-1.09c-.38.29-.43-.49-.89,0-.2-.82,1-.12,1.35-.42-.33-.93-1.28.24-1.17-1.07l.64-.21c-.17-.23-.81-.41-.61-.64-.16.14,0,.19.12.32-1.07.76-1.57-.37-2.49.6l.21.37c-.61-.3-1.6,0-1.56-.73s.86-.39,1.26-.45c-.31-.5-1.43.6-1.79,0,.07.43-.33.68-.75.72.21.38.59,1.23.92.74v-.2c.29-.2.54-.11.74-.14.38.42-.27.6-.39.86.48.85,1-.83,1.59-.17L196,37c.53.07,1,.5,1.68,0-.37.88.91.44.83,1.09-1.28,1.41-.93-1.11-2-.74,0,.59-.84.43-1.29.58.53.18,1.07.33,1.6.49-.11.26-.48,1.23.2.93l-.05-.12c.56.26,1-.41,1.16.12-.06.17-.38.29-.5.35.21.45.58,0,.91,0,.22.43-.7.41-.56.83.89-.18.5.7.88,1,.58-.91,2.33.09,2.22-1.26l1.28.12c-.1.65-1.53.69-1.89,1.57l-.64-.6c-.76,1.12,1.95.52,1.46,2,.35.35.34.11.69,1.22l.59-1.06a1.79,1.79,0,0,1-.12,1.33,2.45,2.45,0,0,1,.74.49.62.62,0,0,1-.54.13c0,.79.27.66.57.43s.65.06,1,.23l-.52.25c.26,0,.6,0,.71-.16a1,1,0,0,0,.48.07,4,4,0,0,0-.32-1.45,4.09,4.09,0,0,0,1.59,1l2.11.78c0,.35-.65.88-.43.89,1,.09,1.74-.89,1.42-1.33a3.85,3.85,0,0,1,.38-.23.91.91,0,0,0,1,.18.75.75,0,0,0,.59-.15,1.26,1.26,0,0,1,.3-1.21c.23-.36.48-.71.36-1a5.9,5.9,0,0,0-.7.86c-.08-.88-.52-1.56.1-1.63,0,.53.37.46.65.37s.52-.15.22.63c.82-.2.7-.49.48-.75s-.53-.56-.16-1a7.34,7.34,0,0,0,.64-.61c.69.25,0,1.34.3,1.23,0-.19.06-.38.08-.58a2.6,2.6,0,0,1-.32,1.83c-.33.79-.86,1.64-1.27,2.5a8.44,8.44,0,0,0,2.31-2.43,14.71,14.71,0,0,0,.49-3,10,10,0,0,0-.26-2.86,4.8,4.8,0,0,0-2.46-3.47l.06.07a1.27,1.27,0,0,0-.43.16l.1-.16-.65-.06c.29-.7-.05-1.47-.1-2.33-.06.61-.06.61-.45.95-.6.35-.87.48-1.06-.16.38-.31.62,0,.62-.61a.39.39,0,0,1-.65.22c0-.48-.34-.95,0-1.3.21,0,.17.25.19.38.22,0-.13-.8.51-.7l-.56-.4c0-.58.65-.25.74-.55-1-.61-2.24-.17-3.17-.54.2-.17.93-1,.71-.76-.38-.77-2-.12-2.7-.5.29-.2.46.09.76.11-1.81-1.85-3.56-2.91-5.18-4.88l-1,.74-.22-.93a6.87,6.87,0,0,0-2.94-1.54c-.5-.14-1-.23-1.54-.34s-1.28-.25-2.06-.35c-1-.14-.45-.89-.94-1.3a4.65,4.65,0,0,0-3.13.57,8.39,8.39,0,0,0-2.47,2.26l-3,3.93,3,1.17a2.34,2.34,0,0,1,.5.25c-.38.12-1.31.58-.87,1.06.32-.16.72-.48.88,0l-.38.11c-.07.63.52.52,1,1.19a4.94,4.94,0,0,0,4.21.8c.85.82-.84.88-.82,1.21-.41-.84-.58-.2-1,0,.56,0,1.1.21.8,1a2,2,0,0,0,1.56.47c-.41,0-.37-.47.08-.6.24.54,1.49,1,.86,1.81A93.54,93.54,0,0,0,201.47,40c.71-.24-.28-.36.14-.56,1-.28.41.58,1.2.36l-.46.39c.81.46,2.13-.06,3.14-.2-.38.52.48.76-.35.82.44.07-.09,2.88.45,2.47l.48-2.61c.12-.22.63.14.64,0,.17.62.4,1.35.65,1.45-.11.66-.69.29-1,.14-.45,1,.93,1.11.07,1.86.83.11.09-.57.68-.78l.58.45-.38-.53c.66-.11,1.11-.84,1.65,0l1.12-.76c-.17.85.56.33.95.64l-.42.46a1.87,1.87,0,0,1,1.18.74c-.54.66-.56-.31-.88.35.21.14.45.28.69.42.1-.48.65-.76.18-1.16.88-.78,1.29-1.39,3.05-1.25.85.86-.93.73-.62,1.56a2.06,2.06,0,0,0,2.19-1c.47-.66.68-1.31,1.28-1.44a1.71,1.71,0,0,0,1.36-.67,6,6,0,0,1,1-1.14c0,.38.3.34.68.2a2.82,2.82,0,0,1,1.14-.36,7.19,7.19,0,0,1-.05.92c.27-.51.77-.8,1-.41-.33-.21-.07-.78.22-1.55a6.35,6.35,0,0,0,.49-2.52l-.7.11a6.63,6.63,0,0,0-.28-1.69c-.17-.58-.37-1.09-.47-1.55-.37-.6-.68-.68-1-.71a8.92,8.92,0,0,1-1.19-.05,2.51,2.51,0,0,1,1.41-1.47c-.06.46.44.77.56,1.4a7.29,7.29,0,0,1,1.92,2.32,3.62,3.62,0,0,1,0,3.27c.55.77.68.4.73-.34a9.82,9.82,0,0,1,.16-2.4.26.26,0,0,1,.14.24,1.2,1.2,0,0,1,.05-.33c.26,1,.14,2.56.78,3.08a1.93,1.93,0,0,0-.38-1.66c-.26-.41-.35-.76-.06-1.83a4.61,4.61,0,0,1-.16-2.12,4.15,4.15,0,0,0,0-1.7,3.94,3.94,0,0,0-1.5-.3,1.82,1.82,0,0,1-1.34-.91,7.09,7.09,0,0,1,1.14,0c-.61-.75-1-.61-1.32-.52a.91.91,0,0,1-1.11-.22c.22.37-.9.36-.35.93a1.6,1.6,0,0,1-1.5-1c-.2,0-.23.21-.45.42,0,.89,1.15.22.94,1.25.33-.12.67-.24,1-.34a.92.92,0,0,1-.85,1.28c.15.1.36.14.32.35-1,1.05-.14-.93-1.18-.21l.37.23c-.56.77-1.25-.09-1.61-.48-.13-.73-.43-1.21,0-1.75l.8.32c.06-.69-1-.45-1.33-.78a.45.45,0,0,0,0-.25.46.46,0,0,1-.09.17.47.47,0,0,1,0-.38c-.3-.3-1-.37-1.19-.78l-.35.5.26-.23c.28.26.42.88-.08,1-.91-.21-.31-1.22-.14-1.76.74-.61.65.52,1.19.56.38-.89-.62-.63-.94-1.67.91-.57.81.67,1.55.06-.47-.59-1.06-.16-1.51-.83.37-.31,1,.12,1.33-.38l-.22-.54c1,.73.61-1.14,1.53-.71-.11-.63-1,.24-1.15-.67-.12.46-.2,1.41-.94,1.35l-.38-.67c.06-.57,1.24-.41,1.12-1l-.81-.17c-.16.25,0,.59-.39.79-.15-.52-1.26.53-1.91.6-.31-.24-.53-.47-.44-.84-1.32.17-2.35-.53-3.56-.28.84-.19.54-.9.45-1.48.68.26,1.19-.53,1.47-1.07-.43-.16-1.2.53-1.17.92-.43-.72-.77.3-1-.58-.2-.5.65-.7.71-1.08-.67-.45-.77.88-1.41.26.11-.09.19-.08.22-.27a.85.85,0,0,0-1.28.11c.15-1.34-1.29-.54-.65-1.56-1.16-.24-.15.66-.55.93-.64.26-1.2-.5-1.36-.79.26.1.64-.09.79.2l.16-.85c-1-1.17-1.62,1.3-2.53.08.81-.1.47-.47,1-.86-.28.1-1.16-.57-.84.29a4.82,4.82,0,0,1-1-.83l-.43.07-18.19,3.36,13.23,3.48a2.17,2.17,0,0,0,1.19.06,2.87,2.87,0,0,1,.26,1.85c1.43.67,1.64,2.37,3.2,3l-.05-.12c.75,1,.41-1.16,1.27-.27-.83.62.05,1,0,1.68.77,1.45,2.45,1.25,3.06,2.69a.47.47,0,0,1-.61.13,9.93,9.93,0,0,0,2.14,2l-.11.07c.71,1.64,2.47,1.74,3.92,2.5-.19,0-.44.31-.6.36a3.81,3.81,0,0,0,1.08,1,1.88,1.88,0,0,0,1.62.24c.24.73.46.78.72.83s.52.11,1.08.92c0,.21-.23.08-.35.07a5.85,5.85,0,0,0,2.19,1.25,7.71,7.71,0,0,0,2.88-.63,14.12,14.12,0,0,1,3.27-.72c.28.64-.2.86-.75,1s-1.1.2-1.11.76a4.16,4.16,0,0,1,2.25-.6c-.44.68,0,.36-.33,1,.45.1,1.19-.53,1.66-1.17s.7-1.29.77-1.26c0-.13-.17-.17-.33-.15a1.64,1.64,0,0,0-.65.26,1.49,1.49,0,0,1,.59-.75,10.1,10.1,0,0,0,1.52-1.37,5.33,5.33,0,0,0,.93-1.57,5.18,5.18,0,0,0,.33-2.14,4.27,4.27,0,0,0-.83-2.44,4.94,4.94,0,0,1,.28.74,5,5,0,0,1,.19,1.38,2.28,2.28,0,0,1-.28,1.18c-.14.2-.26.12-.4-.27a3.27,3.27,0,0,0-.58-2.39,1.06,1.06,0,0,0-.77-.45,8.33,8.33,0,0,1-1.46-.18c0-1.16,1.36-.06,2.08-.74.21-.33.63-1.12,1.19-1-.35-.92-1.44-1-2.1-1.51l.23-.15c-.8-.87-2.49-1-2.71-2.09l.1.59c-.25,0-.57-.51-1.19-.36.36-.28.15-1.1.63-1.14-1.4.64-2.44-1.2-3.8-.51,0-.47.6-.76.89-.95.44.57.41.94,1.08.77-.43-.39-.5-.95-.21-1.14-1.06.26-2.35-.36-3.14.18,0-.61-.21-1.05.38-1.57-1.69-.7-.75,2.38-2.29,1.2-.29-1.11,1.29-.3.44-1.22l.26,0c.39-2.13-1.33.76-2.1.17.47-1,1-.25.85-1.27-.94-.3-2.11.85-2.7.11l.35-.33c-.55-.22-1.45-.94-2-1.13.07-.2.13-.13.26-.13-.81-.85-.64.29-1.14-.76l-.44.37c.25.53.79,1.34,1.55,1.05-.76.3.14,1.6-.54,2.27l.27-.27c.45,2,1.75,3,2.71,4.5,1.49-.24,1.1,1.4,2.4,1.55,1-.81.34-.06,1.2.42-.47-.24-.69.65-.59,1a1.24,1.24,0,0,1,.84,0c-.16.45-.11,2,.8,1.72.07.69-.39.17-.66.25-.34.6.68,0,.47.43a.43.43,0,0,1-.19.08,6.82,6.82,0,0,1,1,2c1-.66.88.43,1.46.51-.4.12-.11.67-.17,1a1.16,1.16,0,0,0,.47-.1l.68-.38.4-.22.32-.16a4.2,4.2,0,0,1,.92-.34.92.92,0,0,1,.25,0s-.25,0-.82-.67l.26.29a4.66,4.66,0,0,1-.35-.41l-.23-.31-.31-.49a.36.36,0,0,1-.23-.13,1.67,1.67,0,0,1-.35-.83c0,.63-.83.75-1.4.48a3.89,3.89,0,0,1-1.57-1.42c-.42-.61-1-1.44-1.59-2.16a8.93,8.93,0,0,0-2.32-2c-.46.1-.22.62-.74.9a3,3,0,0,1-.85-.55c.08.49.3.14,0,.37l.73.15c0,.09-.11.07-.17.24.24.06.59,0,.77.25-.51,0-1.17.63-1.39,0,.12-.07.2,0,.36,0-.31-.35-.6,0-.72-.43s-.29-.15-.08-.49l-.68-1.21c-1.21.39-1.13-.93-1.22-1.14.65-.51.81.39,1.58,0l0-.75-.45.47-.37-.58.11-.06c-.23.13-.46.27-.43,0,0-.09.11-.26.19-.24l-.59-.06c.66-.31-.17-.43.41-.95-.83-1.31-2.14-.58-2.34-2.28-.1.41-1.17.56-1.36.16a.46.46,0,0,1,.38-.57l-.67-.11c.42-1.33-.6-1.28-1-2.29l.29-.19a1.33,1.33,0,0,1-1.32-.59l.58-.37a.44.44,0,0,0,0-.13l-7,9.65c.4.36,1-1.18,1.43-.54.3-.67,0-1.2.23-1.86-.13.75.55,1.17.6.62.8,0,.46.23.44.42l.59-.23c.46.27-.27.94-.62,1.24.77-.5,1,.23,1.44.59l-.35.19.57.45a1.29,1.29,0,0,1,1.66.54l-.83.64c.12.64.35-.19.52-.28.81-.08.61.56.63,1.2C206.25,28.72,205.73,31.45,207.25,30.73Zm.89,9.79.15,0C208.45,40.61,208.59,40.7,208.14,40.52Zm-1.64-4.34c.72.32.21.43,0,.62-.18-.69-.65-.79-.8-1.43a2.24,2.24,0,0,1-.37.5c-.12-.19-.11-.51.19-.9.45-.22.68.23.75.67S206.37,36.47,206.5,36.18Zm-3.19,9.65.21-.13h0Zm5.66-.09a.63.63,0,0,0,.57.17C209.31,45.74,209.13,45.6,209,45.74Zm3.51-9.63c.27-.38-.09-.8-.35-1.06A5.13,5.13,0,0,0,212.48,36.11Zm-6,3.65c-.28.06-.86.26-.58.69.31-.24.45.46.8,0l0,.06A4.11,4.11,0,0,0,206.43,39.76Zm9-9.63c.29-.27.7-.49.81-.79l0,.06c0-.14.08-.25.17-.29-.09-.18-.18-.38-.35-.38C215.17,29.69,214.74,29.6,215.39,30.13Z"/><path class="cls-3" d="M224.73,35.86a2.86,2.86,0,0,0,0-.51Z"/><path class="cls-3" d="M216.07,28.76c-.06,0,0,.29.13.58A.57.57,0,0,0,216.07,28.76Z"/><path class="cls-3" d="M196.73,34.12l.24.08v-.58a2.25,2.25,0,0,0-1.86.34c.89.12.91.62,1.6,1.13Z"/><path class="cls-3" d="M193.73,37.25c-.07.17-.27.61-.22.72l.37-.17Z"/><path class="cls-3" d="M199.19,45.11l-.37-.75C198.41,44.47,198.71,45.51,199.19,45.11Z"/><path class="cls-3" d="M201.23,37.86l-.55.08c0,.47.35.73.72.43C200.91,38.27,201.5,38.1,201.23,37.86Z"/><path class="cls-3" d="M200.83,46.5c.67-.47.59.83,1.16.32C201.65,46.86,201.31,45.89,200.83,46.5Z"/><path class="cls-3" d="M204.84,40.27c.29-.71-.39-.41-.61-.81C204.5,39.67,204.42,40.6,204.84,40.27Z"/><path class="cls-3" d="M206.87,46.65c-.07.55-.65.49-1.16.23.22-.12.38-.36.63-.41a4.43,4.43,0,0,1-1.72.18,6.83,6.83,0,0,0,1,.86c.33.28.62.55.5.88C206.89,48,207.58,47.17,206.87,46.65Z"/><path class="cls-3" d="M205.61,40.71c-.13-.34,0-.85-.27-1-.19.34-.42.88,0,1l-.5.44C204.88,41.78,205.19,40.38,205.61,40.71Z"/><path class="cls-3" d="M211.17,46.87a5.62,5.62,0,0,1-.58,0A3.54,3.54,0,0,1,209,48a3.68,3.68,0,0,0-1.43.89,5.27,5.27,0,0,0,2.3-.76A3.4,3.4,0,0,0,211.17,46.87Z"/><path class="cls-3" d="M206.21,42.39l.36-.83c-.22-.21-.09.29-.27.46,0-.16-.13-.29-.28-.17C206.45,41.89,205.75,42.54,206.21,42.39Z"/><path class="cls-3" d="M207.15,41.58a.74.74,0,0,0,0-.39v-.07a.17.17,0,0,1,0-.07c0-.22,0-.24,0-.19v.21Z"/><path class="cls-3" d="M207.46,42.14l.08.16a2.29,2.29,0,0,0-.51-1.23,1.72,1.72,0,0,1,.27.45A2.34,2.34,0,0,1,207.46,42.14Z"/><path class="cls-3" d="M210.14,31.33c-.37.16-.28,1-.15.49C210.33,31.71,210.07,30.68,210.14,31.33Z"/><path class="cls-3" d="M205.93,37.69c0-.17-.15-.34-.4-.47a3.59,3.59,0,0,0-.8-.25C205.13,37.15,205.53,38,205.93,37.69Z"/><path class="cls-3" d="M204.57,36.94l.16,0A.24.24,0,0,0,204.57,36.94Z"/><path class="cls-3" d="M191.16,31s-.06,0-.1.07Z"/><path class="cls-3" d="M191.51,30.88a.72.72,0,0,0,1-.16c-.23,0-.44,0-.67,0a1.21,1.21,0,0,0-.68.23c.06,0,.1.08.14.1S191.43,31.1,191.51,30.88Z"/><path class="cls-3" d="M190.57,27.49a3,3,0,0,1,.08.36c0,.13,0,.22,0,.16A3,3,0,0,0,190.57,27.49Z"/><path class="cls-3" d="M208.57,43.85c.35.33.65.26.71-.31C208.81,43.39,209,43.8,208.57,43.85Z"/><polygon class="cls-3" points="209.86 43.59 209.84 43.88 210.01 44.38 209.86 43.59"/><path class="cls-3" d="M213.19,45.16a.52.52,0,0,1-.28.21C213.16,45.32,213.36,45.27,213.19,45.16Z"/><path class="cls-3" d="M212.79,45.39l.12,0Z"/><path class="cls-3" d="M212.55,45.17l-.09.29a1.68,1.68,0,0,1,.33-.07A.22.22,0,0,1,212.55,45.17Z"/><path class="cls-3" d="M214.47,45.35a9.39,9.39,0,0,1-.76-.91c-.86.36.91.52,0,1.37C214,45.67,214.23,45.51,214.47,45.35Z"/><path class="cls-3" d="M217.6,44.84c.44,0,1-.39,1.5-.76s.84-.66,1.34-.35c1.09-.94.64-1.23.35-1.5s-.52-.55.36-1.54c-1.1.6-1.11,1.1-1.12,1.7s-.05,1.19-1.41,1.39c.71.07.57.26.17.49a6.62,6.62,0,0,1-.71.32A1.87,1.87,0,0,0,217.6,44.84Z"/><path class="cls-3" d="M216.87,43.24c0,.53.95.39,1.25-.09C217.74,43.22,217.14,42.63,216.87,43.24Z"/><path class="cls-3" d="M222.24,42c.3-.09.59-.21.89-.33l-.08-.39A9.07,9.07,0,0,1,222.24,42Z"/><path class="cls-3" d="M224.5,39.46a10.44,10.44,0,0,1,0,1.12C224.52,40.21,225.24,39,224.5,39.46Z"/><path class="cls-3" d="M226.27,33.84a1,1,0,0,0-.69-1c-.31,0-.43.31-.14,1.38l0-.51C225.65,33.79,225.9,32.42,226.27,33.84Z"/><path class="cls-3" d="M219.89,27.72c.19.21.55.3.7.05l-.76-.31Z"/><path class="cls-3" d="M217.75,30.26c-.39.78.54.41.71.94C218.17,30.71,218.29,30.67,217.75,30.26Z"/><path class="cls-3" d="M220,26.25c.38-.12.48.26.59.43C220.85,26.27,220.37,26,220,26.25Z"/><path class="cls-3" d="M218.89,25.66c0-.42.35-.32.35-.62-.18-.64-.67-1-1.2-.8a2.72,2.72,0,0,1-1,1.42c.85.3,2.18-.58,1.74.59l1.49-.63C219.89,25,219.2,26,218.89,25.66Z"/><path class="cls-3" d="M218.39,28.87l0-.66c-.24.41-.55.25-.83.21C216.94,29.3,218.15,28.74,218.39,28.87Z"/><polygon class="cls-3" points="214.73 23.23 213.8 22.87 214.02 23.1 214.73 23.23"/><polygon class="cls-3" points="214.42 22.59 214.57 22.33 213.64 22.36 214.42 22.59"/><polygon class="cls-3" points="213.78 21.71 213.85 21.82 214.48 21.93 213.78 21.71"/><path class="cls-3" d="M212.17,20.41l-.08.48c.27,0,.41.72.7.19A.61.61,0,0,1,212.17,20.41Z"/><path class="cls-3" d="M201.21,27.27a1,1,0,0,0,.34-.75l-.54.58C201.08,27.09,201.24,27.09,201.21,27.27Z"/><path class="cls-3" d="M200.86,25.72l-.92.54c.57.41.95-.17,1.57,0-.12-.36-.71,0-.91-.31Z"/><path class="cls-3" d="M211.55,25.22c-.41.38-.25.42-.85.37a5.33,5.33,0,0,1,1.69,1.06c.13-.35,1-.46.63-.53l-.84-.28.34-.2C212.36,24.93,211.82,25.86,211.55,25.22Z"/><path class="cls-3" d="M213.28,21.22a1,1,0,0,0,.27-.72C212.91,20.48,213.41,21.23,213.28,21.22Z"/><path class="cls-3" d="M184.35,32.64c.71-.08.23,0,.15,0Z"/><path class="cls-3" d="M184.5,32.59l.1,0C184.49,32.58,184.47,32.59,184.5,32.59Z"/><path class="cls-3" d="M185,32.42c.56,0-.21.08.65,0C186.15,32.38,185.93,32.41,185,32.42Z"/><polygon class="cls-3" points="184.43 32.5 184.9 32.47 184.16 32.48 184.43 32.5"/><polygon class="cls-3" points="184 32.55 184.17 32.53 183.69 32.5 184 32.55"/><path class="cls-3" d="M185.32,32.35l.13,0c-.64,0-.86,0-1.3,0,0,.06,1.34,0,1.13.06a5.47,5.47,0,0,1,.95,0Z"/><path class="cls-3" d="M182.57,27.23l.07.06C182.57,27.22,182.52,27.17,182.57,27.23Z"/><path class="cls-3" d="M183,26a.59.59,0,0,0,.16.12L183,25.9Z"/><path class="cls-3" d="M183.4,29l-.21-.12C183.3,28.92,183.38,29,183.4,29Z"/><path class="cls-3" d="M189.53,28.7l.13.25h0l-.11-.23Z"/><path class="cls-3" d="M183.06,24.07a.31.31,0,0,0,0-.11S183,24,183.06,24.07Z"/><path class="cls-3" d="M183.21,29.29h0l-.09-.05.07.06Z"/><path class="cls-3" d="M181.86,25.23c.06,0,.11.07.11.06S181.88,25.23,181.86,25.23Z"/><path class="cls-3" d="M186.39,32.36c.08,0,0,0-.08,0S186.15,32.28,186.39,32.36Z"/><path class="cls-3" d="M186.31,32.27h0C186.42,32.32,186.4,32.31,186.31,32.27Z"/><path class="cls-3" d="M186.41,32.27h0Z"/><path class="cls-3" d="M186.31,32.33l.5.16h0s.14,0-.26-.1l-.17-.06c.28.1-.2-.08-.24-.1l-.3-.11-.14,0C185.45,32,186,32.23,186.31,32.33Z"/><path class="cls-3" d="M182.74,27.41c-.17-.17-.1-.07,0,0Z"/><path class="cls-3" d="M183.21,28.34h0S183.18,28.3,183.21,28.34Z"/><path class="cls-3" d="M182.1,29.18l.05,0C182,29.13,182.05,29.14,182.1,29.18Z"/><path class="cls-3" d="M183.29,28.33s0,0,0,0S183.33,28.39,183.29,28.33Z"/><path class="cls-3" d="M182.92,29.26l0,0Z"/><path class="cls-3" d="M194,31.35c0,.12-.09-.21-.14-.31.25.84.06,0,.27.76a1.2,1.2,0,0,0,0-.25l-.28-.77C193.91,31.09,193.94,31,194,31.35Z"/><path class="cls-3" d="M190.51,30.13l0-.06c.18.33.23.43.34.6-.24-.52-.67-1.27-.92-1.85,0,.06,0,0,0,0C190.09,29.25,190.32,29.73,190.51,30.13Z"/><path class="cls-3" d="M189.84,28.8l0,0-.1-.18s0,0-.06-.08C189.73,28.63,189.8,28.74,189.84,28.8Z"/><path class="cls-3" d="M193.49,31.16l0-.07C193.51,31.24,193.51,31.23,193.49,31.16Z"/><path class="cls-3" d="M189.1,32.67l.14.22A1.42,1.42,0,0,0,189.1,32.67Z"/><path class="cls-3" d="M189.8,29.58l-.08-.1v0Z"/><path class="cls-3" d="M187.59,21.8c.37.86,0-.07.24.4l-.18-.46C187.56,21.61,187.6,21.77,187.59,21.8Z"/><path class="cls-3" d="M194.13,31.61l0-.08v0Z"/><path class="cls-3" d="M188.46,21.19l.07.12A.63.63,0,0,0,188.46,21.19Z"/><path class="cls-3" d="M189.51,28.51h-.11l.13.19C189.33,28.28,189.77,29,189.51,28.51Z"/><path class="cls-3" d="M186.83,21.56l-.26-.51c.41,1.14-.51-.34.16,1.23-1.06-1.71.73,1.65-.22.12l.13.25c-.58-.08-1.57-.73-1.48.34l-.21-.34c-1-.2-1.18.91-2,1.08.16.34.7,1,.91,1.43,0,0-.06.06-.34-.34a8.2,8.2,0,0,0-.49-.75c0,.09-.46-.31-.17.22l.42.48c.14.23,0,.11-.05.1-.18-.27-.62-.81-.69-.95.81,1.37-.5-.48-.26.13.78,1.1,1.29,2.1,1.8,2.92l-.26-.24c.07,0-.61-.77-.49-.78-.31-.26,0,.25-.21.13a7.19,7.19,0,0,1,.57.74c-.16-.11-.59-.63-.68-.65l-.22-.36c-.35-.37,0,.17.07.26-.37-.43-.51-.44-.91-.94.43.65.13.34.38.77a6,6,0,0,1,.78.93l-.07-.24c-.35-.19,0-.1-.66-.83.34.29,1,1.27,1,1.08.22.46-.09.15.35.83-.07-.19.4.48.63.67,0,.09-.24-.24-.68-.68,0,.06-.4-.33,0,.23-.26-.16-.48-.55-.78-.8-.42-.52.74.43-.69-1.13,0-.06-.46-.71-.37-.73-.23-.16-.77-.62-.52-.19l.8.89c0,.06.5.67.4.62-.22-.27-.59-.61-.56-.5a1.28,1.28,0,0,1,.25.23c0,.13.54.73.62,1a10.91,10.91,0,0,1,.93.75c.55.63.05.13.09.23a2,2,0,0,0-.21-.22l.25.32c-.32-.2-.83-.89-1.17-1.12-.53-.46.21.34-.1.09l.16.14-.06,0,0,0c.05.12,0,.12.39.57-.2-.2,0,.09.15.24s.65.75-.11.09h0a1.76,1.76,0,0,1-.64-.44l-.26-.09-.6-.55a6.53,6.53,0,0,0,1,1.15c-.41-.26-.21.1,0,.33,0,0,0,0,0,0L183,29c-.07,0,.27.3.24.34s.1.06,0,0h-.06c-.07-.05-.05-.06,0,0l-.22-.16c-.72-.48.33.38.05.25,0,0-.06-.07-.05-.07-.19-.1-1.16-.74-.6-.31-.08,0,0,.05.16.17l-.12-.05.12.05c.18.15.41.33.26.23h-.17c-.11-.05,0,0,0,.11l-.29-.17c0,.06-.15-.05-.22-.11-1.07-.51.39.5-.56.11.47.31.72.38,1,.54s.65.5.91.68c-.7-.35-1.41-.49-2.4-1-.14.09.64.27,1,.51h0a4.32,4.32,0,0,1,.88.34c.54.28.66.43.49.38l-.76-.4a19.8,19.8,0,0,0,2.17,1.18c-.33-.1-1-.45-1.74-.76l.16.16-.59-.26c.13.12.68.36.42.33-.54-.28-.6-.1-1.34-.47-.22,0,1,.42.13.15.64.27.34.07.55.13.93.34.41.25.64.39a4.05,4.05,0,0,0-.91-.28c.37.14.64.27.18.16.61.19.1.11.05.14a3.88,3.88,0,0,1,1.13.26c.24.1.37.15.27.18l.3.05c.91.29-.68-.12-.41,0l-.82-.28,1,.39-.94-.13c.46.09-.05.06.58.18a5.34,5.34,0,0,1-1.22-.31c-.44.06,1.05.27.06.23l-.59-.13s.28.17,0,.14c.21,0,.13,0,.13,0a17.27,17.27,0,0,0,2.21.39l.09,0c.25.08,1.16.16.69.15a9.23,9.23,0,0,1-1.25-.11c-.09,0,1.47.13,1.34.15.21,0,.69,0,1,0,.09,0,.34,0-.22,0h-.13l-.64-.06a7.39,7.39,0,0,1,.86.06c.21,0-1.33-.13-1.28-.18l.25,0c-.34-.07-.38-.11-1.19-.26.86.12-.32-.14.19-.08,1.86.36-.14.08.88.29.39,0,.89.14,1.32.2-.27,0-.54-.1-.8-.17.25,0,1.18.21.5.07h0c-.21-.06-1-.22-.71-.19l.59.14c.17,0-.42-.11-.58-.17.17,0,.75.19,1,.23-.71-.19.17,0,.13,0-1-.27-1.38-.51-2.31-.73l-.66-.33c.54.16,1.41.54,2.28.8l-.05,0c1.27.41-.8-.36.62.12.05,0-.12-.06.5.17l-1.11-.45c.27.09.87.34,1.07.42-.07,0,0,0,0,0l.37.17c.61.26.38.16.06,0s-.24-.12-.23-.12l.41.19-.4-.19-.1,0c-.18-.09-.82-.39-1.11-.5a4.17,4.17,0,0,1,1.12.45l.72.39-.82-.47,0,0,.58.32.21.12a5.67,5.67,0,0,1-.76-.49c-.09,0-.09,0-.06,0-.54-.34-1.15-.74-.71-.48s.86.5,1.06.67c1,.63-.72-.47-.35-.26l.41.24.5.35-.07,0,.31.21.14.1.14.08h0l.19.12c.07,0,.17.1.07,0l-.07-.05-.73-.62h0l-.36-.28.14.1-.4-.33,1,.77-.74-.6c-.53-.44-.75-.63-.54-.49.38.32.36.32.67.56a5.71,5.71,0,0,1-.49-.43c.25.2.32.23.69.55.09.09,0,0-.09-.06s.34.27.64.55l-.1-.1.69.6c-.25-.23-1.07-1-1.29-1.26l.76.71c.25.21-.84-.86-.87-.95a2.33,2.33,0,0,1,.24.27,4.28,4.28,0,0,1,1.21.89l-.74-.85.52.54c.54.48.11-.11,0-.44,0-.08.5.6.71.84.12.07-.64-1-.73-1.2.2.28.77,1.07.82,1.09-.19-.26-.49-.68-.36-.53l.2.29c.31.4,0,0,.21.15A8.54,8.54,0,0,0,188,31a11.09,11.09,0,0,1,.85,1.18c-.28-.31.09.18.3.51-.16-.28-.25-.46.23.19,0-.06,0,0-.25-.5.14.23-.12-.11-.31-.42.18.21.07-.09.64.74,0-.26.3-.19.43-.33-.25-.45-.13-.15-.31-.47-.33-.59.22.28,0-.19l.28.47a8.93,8.93,0,0,0-.63-1.31,6.2,6.2,0,0,1,.48.75c0-.1,1.47,2.25,1.18,1.76l-1.4-2.2c-.13-.22,0-.1-.11-.25.14.22.3.45.43.62l.21.3c.36.55.25.45.22.45.58.94.43.57.94,1.44-.06-.18-.3-.48-.5-.84l.16.18-.22-.3c-.14-.29-.57-1-.21-.51l-.52-.94c.45.74.11.12.24.28l.27.48s.1.08.28.34c.37.67-.12-.14.24.48l.16.21c-.25-.43-.43-.77-.6-1-.44-.8-.82-1.47-.7-1.45.46.71.34.66.77,1.37.25.27-1-1.94-.91-1.88.23.27-.16-.4-.12-.49.26.51.34.51.62,1l.27.53c-.07-.16.06,0,.26.39a3.2,3.2,0,0,1-.42-1l-.33-.57c-.07-.21-.23-.6-.11-.47-.05-.22-.34-.72-.64-1.38.31.51.64,1.13,1,1.77-.18-.29-.11-.1-.23-.27.2.54.83,1.78.61,1.54.76,1.41-.05-.19.26.29l.06.12,0,0a8,8,0,0,0,.55,1.14c0-.16-.75-1.41-.37-.83-.18-.41.45.68.52.77-.27-.54-.88-1.67-.7-1.48l.4.8c.07,0-.6-1.17-.52-1.16s-.39-.79-.44-.79c-.21-.43-.2-.54,0-.33-.05-.13-.14-.27-.28-.54-.33-.53.22.57-.23-.21l.43.87a11.85,11.85,0,0,1-.73-1.32s.06.16,0,0c-.69-1.28.29.43-.27-.66l0,.1c-.46-.82-.33-.76-.26-.72a8,8,0,0,1,.68,1.09l.08.29c.28.47-.08-.32,0-.31l.11.18-.09-.16a1.84,1.84,0,0,1,.15.24s-.11-.37,0-.19l-.28-.54.16.3a2.66,2.66,0,0,1-.44-.74c-.13-.4.42.64.67,1.1.42.84-.06,0,.06.32.44.82.1.06.43.58.44.91-.06,0,.35.86.12.13-.2-.52,0-.31.2.42.18.48.46,1l.16.24c0,.09.58,1.13.65,1.37s-.35-.75,0-.2c-.2-.39-.6-1.09-.74-1.46l.17.25c.23.43.45,1,.66,1.34l-.12-.33c-.14-.27-.23-.4-.4-.77.17.28-.49-1.07-.66-1.48,0,0,.08,0,.24.37-.34-.83-.25-.84-.56-1.64a9.8,9.8,0,0,0,.67,1.34,13,13,0,0,0,.69,1.54c0-.1-.43-1-.58-1.27.21.33-.25-.61.06-.05.16.28.39.85.55,1.17.06,0-.48-1-.34-.87l.14.31c.11.17,0-.25-.24-.68.54,1.11,0-.15.52.94a8.88,8.88,0,0,0-.45-1c-.2-.5,0-.12.13.05s.11.34,0,.17l.36.76c.32.51-.73-1.75-.36-1.12.14.41.25.58.47,1.13-.07-.2.08,0-.22-.58a1.58,1.58,0,0,1,.22.31c-.1-.3-.17-.52-.38-1a5.83,5.83,0,0,1,.51.92c-.16-.59.32.33.16-.3l0-.05c.13.12-.45-1-.37-1a8.57,8.57,0,0,0,.53,1.11c.28.45-.12-.75.21-.14a3.62,3.62,0,0,1,.16.47c.18.27.15.06.22.09l0,.12c.38.74.1-.21.11-.48,0,.12.16.49.21.62s.24.32-.05-.58c.39.94-.06-.3.33.6a1,1,0,0,1,.06.2c.14.31.13.2.2.31-.14-.64-.54-1.9-.33-1.56.45,1.33.06.35.41,1.4-.06-.24-.14-.51,0-.21l.25.82c.13.34-.38-1.41-.34-1.28-.08-.26-.13-.39-.14-.35-.24-.82.07-.1,0-.44a4.28,4.28,0,0,1-.33-.9c.15.27-.23-1-.35-1.56.25.58.3,1.13.61,2.06.12.33.37,1.07.46,1.44.11.19-.11-.62-.12-.84l.08.27c0-.13-.26-1.31-.05-.79l-.12-.29a2.86,2.86,0,0,0-.12-.64c.13.44.28.82.37,1.19-.38-1.42-.1-.9-.44-2.24.11.34.26.92.34,1.25-.07-.12-.16-.39,0,.18a1.87,1.87,0,0,1,.24.65c-.21-.89-.22-1.26-.45-2.15a14.38,14.38,0,0,1,.43,1.41c0-.49-.67-2.25-.54-2.28a12.41,12.41,0,0,0,.35,1.2v.12c.56,1.89-.32-1.36-.23-1.31.28,1,.15.75.38,1.48,0-.28-.37-1.82-.23-1.5l.11.44c0-.09.14.1.16,0,0,.2,0,.17,0,.23.17.38-.09-.54.14.17l-.11-.51c-.11-.35-.3-.85-.19-.24-.1-.61-.38-1.3-.58-2.19l.08.36a7.3,7.3,0,0,0-1-2.18c.2,1.08-.27-.38-.17.38.32,1.2,0,.24,0,.51a5.28,5.28,0,0,0-.33-1.07,3.55,3.55,0,0,1,.09.55c-.13-.41-.53-1.34-.33-.51a2.09,2.09,0,0,1-.16-.64c-.2-.61.1.49,0,.08l-.05-.19c-.07.08-.22-.22-.35-.34.35,1.17.05.46.14.9a2.2,2.2,0,0,0-.28-.64l.23.88c.19.75-.23-.5-.16-.08l.08.2c.07.37-.27-.3-.52-.91.38,2.4-1.06-1.05-1.29-.27.1.35.24.57.41,1.09,0,.15,0,.1-.05.13.15.3,0-.08.12.24l-.07-.35.11.28c0-.11-.08-.35,0-.3.08.31.39,1.16.22.86a1,1,0,0,1-.06-.24c-.07,0,.09.36,0,.15s0,.08-.14-.29l-.3-.4c.34,1-.1.09-.16,0-.29-.76,0-.26-.28-1l-.26-.53.23.6-.12-.14-.05-.11c.09.23.18.47.08.27s-.11-.25-.12-.28l.09.35a9,9,0,0,0-.4-.89c-.29-.3.21,1-.32.12a3.41,3.41,0,0,1,.34,1,3.3,3.3,0,0,1-.27-.61l.1.39c-.54-1.09-.3-.34-.56-.68l-.13-.32c.13.39.22.7.12.61l-.27-.63c-.26-.41.53,1.33.28,1,.3.67.5,1,.79,1.62-.32-.67-.44-.74-.2-.26.05.3-.06,0-.14-.16l.15.43a9.31,9.31,0,0,1-.57-1.26c.28.74,0,.25-.1.16l-.12-.31-.12-.09c.2.54.15.61,0,.37l-.37-.9c-.25-.43.12.31.18.47.14.46-.16-.13-.42-.61C187.52,22.49,186.29,20.21,186.83,21.56Zm-4.33,7.85.13.07C182.75,29.6,182.87,29.7,182.5,29.41Zm.66-.42c.24.3-.1,0-.31-.17.26.1.05-.13.34,0l-.47-.39a2.6,2.6,0,0,1,.61.44C184,29.55,182.71,28.65,183.16,29Zm3.44,3.39-.19-.09Zm-.72-.48.36.19Zm1.14.44c.33.24.23.16.17.09A1,1,0,0,0,187,32.34Zm1.86-2a5,5,0,0,0,.44.73c-.18-.3.16.2-.11-.26l0,0Zm-.16-3.69c.18.35.37.74.52,1l0,0a2.35,2.35,0,0,0,.16.29c0,.07.1.14.06,0C188.85,26.79,188.78,26.6,188.72,26.64Z"/><path class="cls-3" d="M190.76,31.59s0,0,0,0Z"/><path class="cls-3" d="M189.43,27.94a2.66,2.66,0,0,0-.19-.3A1.11,1.11,0,0,0,189.43,27.94Z"/><path class="cls-3" d="M182.22,32.08l-.13,0-.39,0a7.19,7.19,0,0,0,1.64.2c-.61-.09-.3-.13-.47-.23Z"/><polygon class="cls-3" points="186.35 32.38 186.36 32.38 186.36 32.38 186.35 32.38"/><path class="cls-3" d="M186.86,32.51l-.06,0Z"/><path class="cls-3" d="M181.75,31.15l.41.16c.35,0,.32,0-.14-.16C182.26,31.28,181.77,31.1,181.75,31.15Z"/><path class="cls-3" d="M187,32.57l.09,0Z"/><path class="cls-3" d="M181.51,30.36c-.7-.23-.12.06-.3.06C181.23,30.36,182,30.58,181.51,30.36Z"/><path class="cls-3" d="M186.36,32.21c.49.26.45.24.34.19l-.46-.24.53.28.59.3h0l-.21-.11Z"/><path class="cls-3" d="M181.49,30.18c-.22,0-.72-.2-.7-.11.36.13.89.32.84.22l.58.27C182.68,30.69,181.41,30.26,181.49,30.18Z"/><path class="cls-3" d="M187.65,32.89l-.22-.13.14.08,0,0-.08,0Z"/><path class="cls-3" d="M182.68,30.46l-.81-.4c-.14,0,.28.13.46.25-.13,0-.21,0-.06,0C182.18,30.22,182.93,30.65,182.68,30.46Z"/><path class="cls-3" d="M181.89,29.82l-.3-.27-.91-.4C180.93,29.42,181.18,29.42,181.89,29.82Z"/><path class="cls-3" d="M182.47,30l.16.07c-.37-.25-.74-.51-1.1-.78A8.46,8.46,0,0,0,182.47,30Z"/><path class="cls-3" d="M187.72,32.75c-.29-.26-.67-.56-.34-.29A4.31,4.31,0,1,1,187.72,32.75Z"/><path class="cls-3" d="M182,28.23c.25.15-.11-.29-.27-.5C181.87,27.9,181.62,27.9,182,28.23Z"/><path class="cls-3" d="M181.7,27.64l.07.09Z"/><path class="cls-3" d="M182,24.63l-.06-.09Z"/><path class="cls-3" d="M182.06,24.84c-.11-.08,0,.15.24.48a4.51,4.51,0,0,0-.34-.69C182,24.68,181.76,24.47,182.06,24.84Z"/><path class="cls-3" d="M182.57,24.69a1.55,1.55,0,0,0,.26.43C182.94,25.25,182.74,24.89,182.57,24.69Z"/><path class="cls-3" d="M190.68,32.86c.13.17.06,0-.24-.45A4.5,4.5,0,0,0,190.68,32.86Z"/><polygon class="cls-3" points="190.4 32.29 190.55 32.53 190.79 32.89 190.4 32.29"/><path class="cls-3" d="M191,32.92l.12.21A2.25,2.25,0,0,0,191,32.92Z"/><path class="cls-3" d="M191.09,33.17v0Z"/><path class="cls-3" d="M191,33l.15.26,0-.11S191.07,33.15,191,33Z"/><path class="cls-3" d="M191.05,33l-.46-.73c.19.38.25.37.69,1.17Z"/><path class="cls-3" d="M191,32.73c.16.23-.48-1,0-.1-.19-.5-.86-1.46-1-1.85-.34-.41.93,1.73.58,1.28A2.72,2.72,0,0,1,191,32.73Z"/><path class="cls-3" d="M190.14,31.25c.26.44.31.46.15.16C190.25,31.37,189.88,30.76,190.14,31.25Z"/><polygon class="cls-3" points="190.92 32.25 191.14 32.58 190.98 32.29 190.92 32.25"/><path class="cls-3" d="M191.1,32.38l.27.53A2.87,2.87,0,0,0,191.1,32.38Z"/><path class="cls-3" d="M191.57,33c.12.16-.52-1-.42-.76l0,0A7.87,7.87,0,0,1,191.57,33Z"/><path class="cls-3" d="M190.82,30.93s0,.15.17.39l-.09-.26Z"/><path class="cls-3" d="M189.27,28c-.41-.73,0,.08-.18-.14C189.2,28,189.25,28.07,189.27,28Z"/><path class="cls-3" d="M191.42,32c.14.31,0,.12,0,.08C191.64,32.45,191.6,32.33,191.42,32Z"/><path class="cls-3" d="M191.35,31.67c.15.3.21.41.32.61s.2.27,0-.15-.62-1.16-.8-1.54c.09.28.78,1.66.21.62l.63,1.31C191.86,32.71,191.28,31.6,191.35,31.67Z"/><path class="cls-3" d="M190,29.27l.25.42a4.9,4.9,0,0,1-.3-.64C189.43,28.11,190,29.21,190,29.27Z"/><polygon class="cls-3" points="191.3 30.98 191.25 30.73 191.2 30.68 191.3 30.98"/><polygon class="cls-3" points="191.49 31.26 191.62 31.54 191.41 31.01 191.49 31.26"/><polygon class="cls-3" points="191.7 31.56 191.67 31.52 191.76 31.77 191.7 31.56"/><path class="cls-3" d="M191.89,31.7l-.2-.4c0,.11-.21-.33.06.22C191.67,31.33,191.73,31.38,191.89,31.7Z"/><path class="cls-3" d="M187.53,21.2a6.51,6.51,0,0,0,.34.75l-.29-.7S187.61,21.36,187.53,21.2Z"/><path class="cls-3" d="M188.14,22.29l-.3-.82c-.13-.09.15.53.14.68.14.24-.08-.34.05-.14Z"/><path class="cls-3" d="M189.57,22.4a4.37,4.37,0,0,1,.27.8c-.06-.35,0-.25.07-.36-.14-.32-.31-.91-.28-.76l0,.34-.12-.36C189.34,21.69,189.74,22.66,189.57,22.4Z"/><path class="cls-3" d="M194.17,27.12c.06.26.13.5.2.73A5.23,5.23,0,0,0,194.17,27.12Z"/><path class="cls-3" d="M92.6,26.74c-.12-.34-.14-.39-.13-.35s-.07.23-.1.3A.71.71,0,0,1,92.6,26.74Z"/><path class="cls-3" d="M92.37,26.69a.86.86,0,0,0-.24.11A.21.21,0,0,0,92.37,26.69Z"/><path class="cls-3" d="M92.28,28.31c-.26.18-.37,0-.49-.11a1.45,1.45,0,0,0-.76-.48c-.08.64.16,1,.43,1.08S92,28.72,92.28,28.31Z"/><path class="cls-3" d="M92.36,27.68,92,28a1.72,1.72,0,0,0,.62-.43A.66.66,0,0,1,92.36,27.68Z"/><path class="cls-3" d="M92.64,27.34l-.13.11a.73.73,0,0,0,.39-.28A.43.43,0,0,1,92.64,27.34Z"/><path class="cls-3" d="M93.65,28.65A1.73,1.73,0,0,1,93,29a.62.62,0,0,1-.09-.72.8.8,0,0,0,0-.57c-.15,0-.26,1.36-.71,1-.11.28.1.39.38.47s.72.12.7.6a.77.77,0,0,0,.59-.14c.06-.07,0-.15-.07-.24A.58.58,0,0,1,93.65,28.65Z"/><path class="cls-3" d="M88.43,27.65l0-.07C88.41,27.66,88.36,27.71,88.43,27.65Z"/><path class="cls-3" d="M87.32,27.51a.76.76,0,0,0,.11-.16l-.17.19Z"/><path class="cls-3" d="M90.07,26.76l-.14.19C90,26.85,90.08,26.78,90.07,26.76Z"/><path class="cls-3" d="M88.39,20.35l.2-.19v0l-.19.18Z"/><path class="cls-3" d="M85.58,27.88a.14.14,0,0,0-.1,0S85.52,27.93,85.58,27.88Z"/><path class="cls-3" d="M90.35,26.93h0l-.06.08.06-.07Z"/><path class="cls-3" d="M86.64,28.64c0-.06.06-.1,0-.11S86.63,28.62,86.64,28.64Z"/><path class="cls-3" d="M94.48,24.9c0-.07,0,0-.09,0S94.29,25.07,94.48,24.9Z"/><path class="cls-3" d="M94.18,24.75h0C94.26,24.66,94.25,24.68,94.18,24.75Z"/><path class="cls-3" d="M94.1,24.54h0Z"/><path class="cls-3" d="M94.39,24.93c.24-.29,1.08-1.16.13-.23l-.12.13c.2-.23-.18.12-.23.14L94,25.2a.52.52,0,0,1-.06.14C93.72,25.56,94.17,25.12,94.39,24.93Z"/><path class="cls-3" d="M88.6,27.48c-.17.18-.07.1,0,0Z"/><path class="cls-3" d="M89.49,27s0,0,0-.05S89.44,27,89.49,27Z"/><path class="cls-3" d="M90,27.93l0-.05C89.93,28,89.94,28,90,27.93Z"/><path class="cls-3" d="M89.48,26.89s0,0,0,0S89.54,26.84,89.48,26.89Z"/><path class="cls-3" d="M90.26,27.2l0,0A.07.07,0,0,0,90.26,27.2Z"/><path class="cls-3" d="M88.29,14.36c.09-.07-.14.19-.2.28.64-.6,0-.08.54-.6,0,0-.11.07-.21.15l-.55.61C88.12,14.59,88,14.58,88.29,14.36Z"/><path class="cls-3" d="M89.4,18.94l0,.06a4.72,4.72,0,0,0,.46-.53c-.42.4-1,1.05-1.47,1.47.05,0,0,0,0,0C88.69,19.61,89.08,19.24,89.4,18.94Z"/><path class="cls-3" d="M88.35,20l0,0-.14.15s0,0-.05.08A2.64,2.64,0,0,0,88.35,20Z"/><path class="cls-3" d="M88.53,15.1l0,.07C88.59,15.05,88.59,15.05,88.53,15.1Z"/><path class="cls-3" d="M93,20.38l.2-.17A1.12,1.12,0,0,0,93,20.38Z"/><path class="cls-3" d="M89.19,19.87l-.08.11,0,0Z"/><path class="cls-3" d="M82.48,24.43c.66-.66-.07,0,.29-.37l-.37.33C82.31,24.52,82.44,24.43,82.48,24.43Z"/><polygon class="cls-3" points="88.46 14.14 88.4 14.2 88.42 14.19 88.46 14.14"/><path class="cls-3" d="M81.64,23.9l.08-.1Z"/><path class="cls-3" d="M88.2,20.42l.06.12.13-.19C88.06,20.67,88.61,20,88.2,20.42Z"/><path class="cls-3" d="M82.47,25.19l-.39.42c.94-.79-.17.56,1.08-.6-1.28,1.55,1.32-1.21.17.17l.2-.21c.09.56-.3,1.64.68,1.25l-.28.28c0,1,1.07.83,1.34,1.52.3-.22.89-.88,1.24-1.16,0,0,.06,0-.28.4a8,8,0,0,0-.65.62c.09,0-.24.49.23.11l.4-.5c.21-.17.11,0,.11,0-.24.22-.7.74-.82.84,1.2-1-.39.57.13.2,1-.95,1.84-1.64,2.58-2.26l-.21.29c0-.06-.68.7-.7.6-.22.33.23,0,.13.16a8,8,0,0,1,.66-.66c-.1.16-.57.65-.58.73l-.33.27c-.33.39.16-.07.24-.11-.39.41-.41.54-.86,1,.58-.51.3-.18.69-.48a7.89,7.89,0,0,1,.85-.87l-.21.11c-.18.35-.1,0-.76.74.27-.36,1.15-1.09,1-1,.42-.28.14.05.77-.45-.17.08.45-.44.63-.68.08,0-.22.26-.63.72.05,0-.32.42.2-.06-.15.26-.51.51-.75.82-.49.45.42-.73-1,.8-.05,0-.64.54-.65.47-.16.23-.6.78-.22.47l.84-.85s.62-.57.57-.47c-.25.24-.58.62-.49.58s.08-.11.22-.26.69-.6.9-.7c.17-.27.41-.53.73-.95.59-.59.11-.06.21-.1a2,2,0,0,0-.21.21l.31-.26c-.2.32-.85.86-1.09,1.2-.45.54.32-.24.07.07l.15-.15,0,.05,0,0c.11-.06.1,0,.55-.42-.2.21.08,0,.23-.16s.75-.65.07.1h0a2.23,2.23,0,0,1-.48.61l-.11.25-.57.57a10.09,10.09,0,0,0,1.16-1c-.3.39.05.18.28,0,0,0,0,0,0,0l.2-.26c0,.07.32-.24.35-.21s.08-.1,0,0a.39.39,0,0,1,0,.06c-.06.06-.06,0,0,0l-.18.2c-.57.65.4-.3.22-.05,0,0-.07.06-.07.05-.13.17-.9,1-.4.54-.06.06,0,0,.18-.15L90,27.7l.07-.11c.17-.16.39-.36.27-.23l0,.16c-.07.09,0,0,.11,0l-.23.26c.06,0-.08.12-.15.19-.75.91.52-.33-.11.47.41-.39.56-.6.77-.82s.62-.53.86-.73a24.36,24.36,0,0,1-1.68,2c0,.12.46-.51.76-.76l0,0a7,7,0,0,1,.61-.73c.41-.44.59-.51.49-.37l-.62.61c.27-.17,1.16-1.11,1.8-1.69-.19.29-.76.82-1.29,1.39l.2-.11-.45.46c.15-.09.58-.52.44-.29-.45.41-.35.5-1,1-.13.18.75-.71.17-.08.49-.48.21-.27.35-.43.68-.73.39-.3.6-.45a6.21,6.21,0,0,0-.65.69c.28-.27.51-.47.2-.11.45-.46.13-.05.12,0a6.77,6.77,0,0,1,.77-.87c.2-.17.31-.24.28-.15l.19-.24c.71-.63-.44.54-.2.35-.31.25-.31.24-.66.56a5.54,5.54,0,0,1,.86-.65l-.37.29-.16.11,0,0,.08,0,.17-.09-.11,0-.14.09a1.15,1.15,0,0,1,.33-.17l0,0a.59.59,0,0,1,.14-.05h.07l.36,0,.09,0a1.65,1.65,0,0,1,.58.27c.18.15.23.3,0,.29s-.4-.2-.57-.32a1.58,1.58,0,0,0-.27-.16l-.14-.06s0,0,0,0h0l.08,0a2.54,2.54,0,0,1,.42.26c.29.22.51.57.19.71a.64.64,0,0,1,.64.82,2.67,2.67,0,0,0,.5-.35,2.19,2.19,0,0,0,.34-.42c.09-.19.05-.34-.23-.38l-.16.05a5.82,5.82,0,0,1-.55-.4c.06-.24.62,0,.89-.05.14-.34-.22-.33-.56-.32s-.73,0-.73-.09l.25-.08c-.36-.05-.45-.12-1.19.22.39-.18.29-.18.17-.13s-.26.15-.06,0c.77-.56.78-.49.7-.35s-.29.27.21.15A1.93,1.93,0,0,1,95,26.67a1.5,1.5,0,0,0-1-.24c.22-.14.94-.77.32-.45l0,.05c-.26,0-.86.5-.71.27s.39-.28.49-.36-.38.21-.54.29c.07-.17.61-.48.72-.67-.61.41,0-.25-.09-.28-.74.78-1.14.94-1.74,1.68l-.58.46c.37-.42,1.1-1,1.71-1.71l0,.09c.93-1-.72.51.28-.6,0-.07-.11.07.3-.46l-.83.87a11.29,11.29,0,0,1,.76-.86c-.07,0-.06,0,0-.05a1.53,1.53,0,0,1,.3-.27c.44-.5.26-.33,0-.08s-.21.16-.22.13l.33-.3a2.79,2.79,0,0,0-.34.29s0,0-.1.06-.61.67-.8.91a3.88,3.88,0,0,1,.66-1c.24-.25.57-.53.59-.57s-.36.25-.72.62l0,0c.2-.22.41-.46.44-.51a1.3,1.3,0,0,0,.15-.19c-.67.67-.4.28-.71.57-.06.09,0,.1,0,.09-.46.43-1,.93-.65.55s.64-.76.89-.88c.79-.91-.62.59-.37.24l.29-.37c.49-.49.3-.2.47-.39l-.08,0c.38-.35.23,0,.82-.54l.16-.37c-.7.47-.2-.37-1.36.61h0l-.32.32.12-.13-.39.35a12.52,12.52,0,0,0,.79-1,8.75,8.75,0,0,1-.63.71c-.49.49-.7.7-.55.48a6.68,6.68,0,0,0,.6-.63,2.92,2.92,0,0,1-.47.45,4.86,4.86,0,0,1,.56-.68c.1-.09,0,0-.06.1a7.61,7.61,0,0,1,.58-.62l-.13.07c.26-.32.46-.45.64-.65-.3.18-1.11,1-1.4,1.15l.72-.75c.19-.28-.92.77-1,.79.23-.23.16-.12.29-.22a3.25,3.25,0,0,1,.62-1.46l-.82.77.48-.57c.36-.66-.26-.25-.64-.14-.09,0,.53-.59.73-.84,0-.18-.92.71-1.19.8a8.85,8.85,0,0,0,1-1c-.24.22-.6.59-.48.42l.25-.24c.33-.38,0-.06.08-.26-.1-.06-.73.43-1.67,1.26,0-.15.85-.86,1-1-.24.34.17-.11.46-.38-.25.2-.42.31.12-.28-.07,0-.06,0-.47.31.2-.18-.08.15-.35.39.16-.23-.13-.09.57-.8-.31,0-.37-.38-.59-.54-.4.34-.12.17-.39.41-.52.44.21-.28-.21.07l.4-.38c0-.12-.77.55-1.17.87.44-.44.31-.42.62-.64-.1.05,1.81-2,1.39-1.6l-1.78,1.9c-.18.18-.11,0-.22.16.33-.39.72-.85.71-.87.45-.48.39-.34.4-.31.77-.78.42-.57,1.15-1.27-.17.09-.39.42-.7.68l.12-.21-.22.3c-.26.2-.86.79-.48.3l-.79.73c.6-.63.07-.15.19-.32l.4-.38c-.05,0,0-.13.24-.38.55-.53-.1.16.41-.35l.14-.22c-.34.35-.63.61-.81.84-.67.63-1.22,1.16-1.25,1,.55-.64.56-.49,1.12-1.1.16-.34-1.63,1.46-1.61,1.34.18-.31-.36.25-.46.22a10,10,0,0,0,.75-.88l.44-.4c-.15.1,0-.08.28-.37a2.72,2.72,0,0,1-.89.66l-.45.48c-.19.12-.53.37-.45.22A13.08,13.08,0,0,0,88,21c.39-.45.89-.95,1.4-1.46-.22.25-.06.14-.18.31.47-.34,1.49-1.29,1.34-1,1.15-1.12-.18.09.18-.35l.11-.1s0,0,0,0a6.1,6.1,0,0,0,1-.84c-.16.08-1.15,1.12-.72.58-.35.28.5-.66.55-.76-.44.41-1.34,1.33-1.23,1.09l.65-.62c-.06-.08-1,.91-1,.82-.06.1-.64.61-.61.67-.36.32-.47.34-.33.11-.1.09-.21.22-.42.44-.4.48.48-.37-.11.3l.7-.67a8.15,8.15,0,0,1-1,1.1s.14-.1,0,0c-1,1,.32-.42-.56.45l.1,0c-.64.68-.64.53-.62.45a6.86,6.86,0,0,1,.82-1l.25-.16c.36-.42-.29.17-.3.12l.14-.16L88,20.4a1.89,1.89,0,0,1,.18-.22c0-.05-.33.21-.2,0l-.42.44.24-.24a2.39,2.39,0,0,1-.56.65c-.35.25.46-.61.82-1,.66-.66,0,.06.29-.15.63-.68,0-.12.39-.61.73-.71.05.07.72-.59.07-.17-.44.34-.31.11.33-.33.41-.32.83-.76l.17-.24c.12,0,.87-.91,1.1-1,.26-.32-.62.56-.21.06A11.77,11.77,0,0,1,89.9,18l.17-.26c.32-.37.79-.73,1.06-1.06l-.29.21a8.06,8.06,0,0,1-.6.63c.2-.26-.85.8-1.2,1.09,0,0,0-.1.26-.36-.69.58-.74.48-1.39,1a8.1,8.1,0,0,0,1-1.1,9.6,9.6,0,0,0,1.22-1.17,9.84,9.84,0,0,0-1,1c.22-.33-.49.44-.09-.06.21-.26.67-.66.91-.92,0-.08-.82.81-.72.6a2.65,2.65,0,0,0,.25-.24c.11-.17-.24.12-.57.45.83-.92-.18,0,.67-.84-.3.16-.45.48-.76.77s-.14,0,0-.16.28-.23.17-.08l.57-.61c.33-.51-1.38,1.3-1,.7.34-.27.45-.44.88-.84-.15.14,0-.09-.46.4a1.64,1.64,0,0,1,.18-.34c-.25.21-.44.34-.84.72a5.44,5.44,0,0,1,.64-.84c-.52.34.12-.48-.43-.11l0,0c0-.18-.74.83-.8.74a6.35,6.35,0,0,0,.79-1c.27-.47-.69.38-.3-.2a2.35,2.35,0,0,1,.37-.33c.16-.3,0-.21-.06-.3l.09-.09c.48-.69-.3-.06-.57,0l.47-.45c.11-.22.13-.4-.55.24.64-.79-.26.18.35-.6a.92.92,0,0,1,.15-.14c.2-.27.1-.23.15-.35-.54.39-1.48,1.31-1.3.93,1-1,.3-.19,1.07-1-.19.16-.4.35-.2.08l.61-.59c.23-.29-1.1,1-1,.86-.19.19-.29.31-.24.3-.62.59-.15,0-.44.16a2.7,2.7,0,0,1-.61.73c.14-.28-.82.66-1.25,1,.38-.51.86-.8,1.53-1.51.24-.27.76-.85,1-1.1.09-.2-.53.36-.72.47l.19-.2c-.15,0-1.06.82-.73.37L86.4,15a3.09,3.09,0,0,0-.51.41c.32-.33.57-.67.85-.92-1,1-.77.49-1.77,1.46.23-.28.66-.7.9-.93-.05.13-.23.35.2-.05,0,0,.18-.31.42-.55-.67.62-1,.8-1.66,1.44a14.15,14.15,0,0,1,1-1.09c-.44.24-1.59,1.74-1.7,1.61.46-.58.75-.66.85-.92l.1-.07c1.31-1.46-1,1-1,.86.73-.77.57-.5,1.06-1.09-.24.14-1.37,1.25-1.19.95l.33-.32c-.1,0,0-.2-.11-.17.15-.16.13-.13.18-.16.21-.36-.41.36,0-.22l-.38.35c-.23.3-.54.72-.08.32-.46.4-.89,1-1.54,1.66l.26-.26a8.36,8.36,0,0,0-1.32,2c.84-.71-.18.44.42,0,.89-.88.19-.17.43-.28a6,6,0,0,0-.76.82,5.16,5.16,0,0,1,.43-.36c-.28.32-.9,1.13-.28.55a1.72,1.72,0,0,1-.47.45c-.43.48.38-.32.09,0l-.14.13c.1,0-.09.3-.14.47.86-.87.39-.27.72-.55a3.4,3.4,0,0,0-.43.54l.67-.62c.58-.52-.33.44,0,.18l.14-.16c.29-.24-.14.37-.57.88,2-1.43-.47,1.41.29,1.25.28-.25.42-.46.82-.84.13-.07.1,0,.14,0,.2-.26-.08,0,.16-.2l-.28.2.21-.22c-.1.07-.29.23-.26.16.25-.2.89-.84.68-.55a1,1,0,0,1-.18.15c0,.08.28-.23.14,0s.08,0-.19.25l-.26.43c.8-.73.14.06.08.15-.57.57-.23.12-.81.67l-.38.46.46-.47L82,23l-.09.08c.18-.17.36-.35.22-.18a2.36,2.36,0,0,1-.21.22l.28-.22c-.49.46-.11.17-.66.72-.16.38.87-.62.22.23.24-.28.88-.85.81-.72a3.59,3.59,0,0,1-.45.49l.32-.25c-.8.91-.21.4-.43.76l-.24.24c.31-.26.56-.47.51-.34l-.48.48c-.29.39,1-1,.78-.63.51-.52.74-.83,1.22-1.33-.51.55-.53.68-.17.29.26-.17,0,.05-.1.18l.34-.29a8.71,8.71,0,0,1-1,1c.58-.54.23-.1.18,0l-.24.22,0,.15c.43-.38.51-.37.34-.11l-.7.67c-.33.39.24-.23.37-.34.37-.29-.07.19-.43.6C83.13,24.24,81.4,26.17,82.47,25.19Zm7.82,2.39.09-.11C90.52,27.37,90.63,27.26,90.29,27.58Zm-.22-.6c.31-.22,0,.09-.21.28.14-.23-.11,0,.07-.31-.13.15-.31.33-.41.45a2.53,2.53,0,0,1,.48-.57C90.69,26.15,89.7,27.4,90.07,27Zm4.26-2.52-.16.15h0Zm-.85.38a2.73,2.73,0,0,0,.26-.31C93.57,24.72,93.42,24.88,93.48,24.84Zm.34-1.34c.27-.3.16-.24.07-.19S93.8,23.46,93.82,23.5ZM90.4,20.8a4.19,4.19,0,0,0,.62-.6c-.26.23.14-.22-.24.15l0,0Zm-3.75.93.8-.8,0,0a3.09,3.09,0,0,1,.23-.25c0-.07.09-.15,0-.07C86.76,21.56,86.59,21.69,86.65,21.73Z"/><path class="cls-3" d="M90.85,18.38h0Z"/><path class="cls-3" d="M87.66,20.64l-.21.29A1.17,1.17,0,0,0,87.66,20.64Z"/><path class="cls-3" d="M92.81,27.2h0l.11.06h0l-.11-.06h0Z"/><path class="cls-3" d="M95.65,27.79c.18,0,.64-.18.7-.32L96,27.32A3.19,3.19,0,0,1,95.65,27.79Z"/><path class="cls-3" d="M95.81,23.35l-.19.29C95.87,23.41,96.24,22.92,95.81,23.35Z"/><path class="cls-3" d="M91.75,27.86l.1-.09-.24.23Z"/><path class="cls-3" d="M95.74,23.17c-.55.55.2-.29-.32.23C95.58,23.26,95.2,23.73,95.74,23.17Z"/><path class="cls-3" d="M90.63,28.51c-.5.54,0,.1-.11.25C90.49,28.73,91,28.14,90.63,28.51Z"/><path class="cls-3" d="M94,24.52c.39-.4.38-.35.31-.24a5,5,0,0,1-.38.35c.34-.27.28-.21.49-.37a9.46,9.46,0,0,1,.86-1A15.46,15.46,0,0,0,94,24.52Z"/><path class="cls-3" d="M90.5,28.5c-.13.18-.47.56-.41.56.26-.28.64-.69.55-.66l.46-.46C91.4,27.57,90.51,28.57,90.5,28.5Z"/><path class="cls-3" d="M94.88,23.31l-.2.23a6.23,6.23,0,0,0,.85-.68A2,2,0,0,0,94.88,23.31Z"/><path class="cls-3" d="M91.22,27.52l-.64.65c0,.12.21-.22.37-.36-.08.1-.12.17,0,.06C90.82,27.92,91.46,27.34,91.22,27.52Z"/><path class="cls-3" d="M90.41,28.13l-.31.24-.66.74A8.69,8.69,0,0,0,90.41,28.13Z"/><path class="cls-3" d="M90.78,27.65l.12-.13-1,.89C90.33,28.05,90.27,28.11,90.78,27.65Z"/><path class="cls-3" d="M94.09,22.65c-.27.28-.57.66-.29.33S94.33,22.35,94.09,22.65Z"/><path class="cls-3" d="M89.19,28c.19-.23-.26.1-.47.27C88.88,28.19,88.83,28.4,89.19,28Z"/><path class="cls-3" d="M88.64,28.35l.08-.06Z"/><path class="cls-3" d="M86.13,28.7l-.08.07Z"/><path class="cls-3" d="M86.31,28.57c-.07.11.13,0,.43-.32a4.35,4.35,0,0,0-.61.45S86,28.91,86.31,28.57Z"/><path class="cls-3" d="M86.19,28.17a1.83,1.83,0,0,0,.38-.33C86.68,27.71,86.37,28,86.19,28.17Z"/><path class="cls-3" d="M92.36,18.37c.12-.17,0-.08-.39.34C92,18.73,92.22,18.47,92.36,18.37Z"/><polygon class="cls-3" points="91.85 18.76 92.04 18.56 92.33 18.23 91.85 18.76"/><path class="cls-3" d="M92.26,18l.18-.16A.67.67,0,0,0,92.26,18Z"/><path class="cls-3" d="M92.47,17.81l0,0Z"/><path class="cls-3" d="M92.35,18l.22-.21-.1.07S92.46,17.84,92.35,18Z"/><path class="cls-3" d="M92.28,17.88l-.57.65c.33-.27.27-.35.94-1Z"/><path class="cls-3" d="M92,17.94c.16-.23-.83.7-.14-.05-.46.3-1.16,1.24-1.53,1.42-.27.47,1.42-1.36,1.11-.87C91.84,18,91.81,18.1,92,17.94Z"/><path class="cls-3" d="M90.82,19.19c.36-.36.35-.44.1-.2C90.89,19,90.42,19.57,90.82,19.19Z"/><polygon class="cls-3" points="91.51 18.11 91.75 17.8 91.52 18.02 91.51 18.11"/><path class="cls-3" d="M91.55,17.86l.43-.4A2.63,2.63,0,0,0,91.55,17.86Z"/><path class="cls-3" d="M91.92,17.19c.11-.17-.86.79-.6.63l0-.05A5.26,5.26,0,0,1,91.92,17.19Z"/><path class="cls-3" d="M90.09,18.42s.14-.07.34-.28l-.24.16Z"/><path class="cls-3" d="M87.78,20.81c-.56.61.09,0-.07.22C87.79,20.88,87.87,20.8,87.78,20.81Z"/><path class="cls-3" d="M90.86,17.52c.26-.24.12-.06.09,0C91.28,17.17,91.16,17.22,90.86,17.52Z"/><path class="cls-3" d="M90.59,17.65c.22-.26.33-.33.48-.51s.16-.3-.18,0-.9,1-1.2,1.25c.25-.16,1.35-1.24.55-.37l1.06-1C91.42,16.84,90.56,17.74,90.59,17.65Z"/><path class="cls-3" d="M88.78,19.73l.31-.38a2.34,2.34,0,0,1-.53.48C87.83,20.6,88.72,19.76,88.78,19.73Z"/><polygon class="cls-3" points="89.86 17.83 89.63 17.95 89.61 18.01 89.86 17.83"/><polygon class="cls-3" points="90.06 17.55 90.27 17.33 89.83 17.69 90.06 17.55"/><polygon class="cls-3" points="90.25 17.23 90.22 17.27 90.44 17.11 90.25 17.23"/><path class="cls-3" d="M90.27,17l-.3.33c.1-.07-.22.32.19-.12C90,17.31,90,17.23,90.27,17Z"/><path class="cls-3" d="M82,24.71a7.8,7.8,0,0,0,.57-.59l-.54.53S82.07,24.58,82,24.71Z"/><path class="cls-3" d="M82.74,23.76l-.65.58c0,.14.44-.34.58-.4.17-.21-.28.21-.14,0Z"/><path class="cls-3" d="M82.33,22.43a4.84,4.84,0,0,1,.61-.58c-.28.21-.24.08-.35.09-.23.26-.7.66-.57.57l.29-.18-.27.26C81.78,22.94,82.5,22.17,82.33,22.43Z"/><path class="cls-3" d="M84.16,16c.19-.19.36-.37.52-.55A5.15,5.15,0,0,0,84.16,16Z"/><polygon class="cls-4" points="123.55 101.18 124.07 115.55 133.05 114.53 134.59 102.97 123.55 101.18"/><path class="cls-4" d="M163.33,142.76s-20.53-8.47-21.3-4.62,2.05,7.18,2.05,7.18L148.45,161l16.94-.26,1.28-15.14Z"/><path class="cls-4" d="M79.41,138.39,74.79,151s20.79,13.34,22.84,9.75,2.82-24.12,2.82-24.12Z"/><path class="cls-4" d="M80.18,229c-3.34-.26-13.6-14.12-15.14-18s-3.34-13.85-.52-16.42,22.08-6.42,22.08-6.42l3.07,18.48s-4.1,19.51-4.87,19.51S80.18,229,80.18,229Z"/><path class="cls-4" d="M146.39,200.5s-7.18,23.1-5.9,28,1.8,6.67,6.67,6.67,19.25-19,21.56-23.87-15.14-12.57-15.14-12.57Z"/><path class="cls-5" d="M176.34,29.4A51.77,51.77,0,0,0,150.9,15.85a2.56,2.56,0,0,0-3.09,1.75,2.53,2.53,0,0,0,1.75,3.09A47,47,0,0,1,172.79,33c2.32,2.26,5.87-1.29,3.55-3.55Z"/><path class="cls-5" d="M142.37,20.53a204.28,204.28,0,0,0-22.92-1.48c-3.24,0-3.24,5,0,5a206.69,206.69,0,0,1,22.92,1.49,2.52,2.52,0,0,0,2.51-2.51,2.58,2.58,0,0,0-2.51-2.52Z"/><path class="cls-5" d="M111.57,26c-1-.29-2.09-.62-3.11-1L107,24.49l-.81-.32-.4-.17.1,0a55.94,55.94,0,0,1-5.72-2.92,2.51,2.51,0,0,0-2.53,4.34,52.68,52.68,0,0,0,12.56,5.39A2.52,2.52,0,0,0,111.57,26Z"/><path class="cls-5" d="M93.1,31.12a44.67,44.67,0,0,0-12.73,2.56,2.58,2.58,0,0,0-1.76,3.1,2.55,2.55,0,0,0,3.1,1.75,42,42,0,0,1,5.82-1.66L89,36.59l.78-.12c.06,0,.8-.11.22,0,1-.13,2.08-.22,3.13-.28a2.52,2.52,0,0,0,0-5Z"/><path class="cls-5" d="M96.91,17.31A23.76,23.76,0,0,0,84.33,6.09c-5.78-2.37-12.79-2.93-18.58-.37a19.1,19.1,0,0,0-10.38,12.9A22.83,22.83,0,0,0,59,36.56,30.29,30.29,0,0,0,76,48.11c3.11.88,4.45-4,1.33-4.84C67.67,40.55,59,32.49,59.91,21.75A14.41,14.41,0,0,1,66.53,11c4.37-2.67,10-2.25,14.73-.69a19.14,19.14,0,0,1,11.31,9.55,2.53,2.53,0,0,0,3.43.9,2.56,2.56,0,0,0,.91-3.43Z"/><path class="cls-5" d="M184.3,27.73a16.48,16.48,0,0,1,10.86-9.07c5.58-1.6,11.51-.54,16.79,1.62a46.83,46.83,0,0,1,7.77,4.17A17.3,17.3,0,0,1,225.49,30c2.54,4.45.9,10-2,13.84-4,5.18-10.41,7.93-16.18,10.55a2.52,2.52,0,0,0-.9,3.44,2.57,2.57,0,0,0,3.44.9c6.08-2.76,12.55-5.74,16.92-11,4-4.85,6.46-11.77,4.17-17.94-2.36-6.35-8.79-10.3-14.63-13.08C210,13.74,203,12,196,13.32c-6.71,1.23-13.22,5.5-16,11.88a2.57,2.57,0,0,0,.9,3.43,2.53,2.53,0,0,0,3.44-.9Z"/><path class="cls-5" d="M186.85,40a68.32,68.32,0,0,1,12.09,1.59,17.41,17.41,0,0,0,2.29.57l.29.15c-.34-.12-.43-.45-.29-1,0,0-.59.5-.35.32a24.24,24.24,0,0,1-4.62,2.83c-1.61.73-1.42,2.84-.51,4l13.7,16.7a2.53,2.53,0,0,0,3.56,0,2.58,2.58,0,0,0,0-3.55l-13.7-16.7-.51,3.94a16.8,16.8,0,0,0,6.33-4.39,4.26,4.26,0,0,0-1.51-6.66c-2.34-1.16-5.32-1.47-7.88-1.87a77.83,77.83,0,0,0-8.89-.91c-3.23-.14-3.22,4.88,0,5Z"/><path class="cls-5" d="M67,53.06A296.73,296.73,0,0,0,39.32,91.57a263.84,263.84,0,0,0-20.7,42.56A221,221,0,0,0,6.46,179.94a63.9,63.9,0,0,0-.82,13.46,39.8,39.8,0,0,0,3.05,12.7A63.45,63.45,0,0,0,20.8,224.64a68.46,68.46,0,0,0,36.34,20.43c1.81.36,3.64.63,5.48.85a2.53,2.53,0,0,0,2.51-2.52,2.57,2.57,0,0,0-2.51-2.51,62.94,62.94,0,0,1-35.23-16.75,61.31,61.31,0,0,1-12.17-15.91A40.27,40.27,0,0,1,11.13,197a43.92,43.92,0,0,1-.2-12.8,168.08,168.08,0,0,1,4.44-23c1.85-7.37,4.08-14.64,6.64-21.79A253,253,0,0,1,41.08,98.49,283.85,283.85,0,0,1,66.9,61c1.21-1.48,2.42-3,3.65-4.4a2.58,2.58,0,0,0,0-3.56,2.53,2.53,0,0,0-3.55,0Z"/><path class="cls-5" d="M66.52,240.7l5.84,2.71a2.69,2.69,0,0,0,1.93.25,2.52,2.52,0,0,0,1.76-3.09,2.44,2.44,0,0,0-1.16-1.5l-5.83-2.71a2.73,2.73,0,0,0-1.94-.25,2.58,2.58,0,0,0-1.5,1.15,2.53,2.53,0,0,0-.25,1.94,2.46,2.46,0,0,0,1.15,1.5Z"/><path class="cls-5" d="M84.54,240.41c3.4,0,6.79,0,10.18,0,.76,0,.77-.14,1.13.28.48.58.92,1.2,1.4,1.78,1,1.21,2,2.38,3.12,3.49,2.3,2.34,4.68,4.38,8.18,3.85a21.24,21.24,0,0,0,4.69-1.52l4.79-1.88a2.58,2.58,0,0,0,1.75-3.09,2.53,2.53,0,0,0-3.09-1.76l-4.56,1.8a18,18,0,0,1-4.46,1.54c-1.21.12-2-.79-2.8-1.55q-1.61-1.56-3.06-3.24c-.92-1.06-1.71-2.34-2.72-3.3a5.92,5.92,0,0,0-4.37-1.43l-10.18,0c-3.23,0-3.24,5,0,5Z"/><path class="cls-5" d="M122.22,244.94a53.34,53.34,0,0,1,16.09,5.15,2.59,2.59,0,0,0,3.44-.9,2.54,2.54,0,0,0-.9-3.44,57.37,57.37,0,0,0-17.29-5.66,2.58,2.58,0,0,0-3.09,1.76c-.27,1.2.37,2.87,1.75,3.09Z"/><path class="cls-5" d="M212.31,73.24c12.25,27.36,18.21,57.42,19.92,87.26.78,13.59.48,27.49-3.36,40.65a58.92,58.92,0,0,1-58.78,43.34c-3.23-.12-3.23,4.9,0,5a64,64,0,0,0,61.47-40.71c5.24-13.3,6.36-27.95,6-42.12a281.88,281.88,0,0,0-5.2-45.79A230.78,230.78,0,0,0,219,76.19q-1.16-2.76-2.37-5.49a2.53,2.53,0,0,0-3.44-.9,2.57,2.57,0,0,0-.9,3.44Z"/><path class="cls-5" d="M162.22,243.27a49.92,49.92,0,0,0-16.44,2,2.51,2.51,0,0,0,1.33,4.85,44.26,44.26,0,0,1,15.11-1.82,2.53,2.53,0,0,0,2.51-2.52,2.56,2.56,0,0,0-2.51-2.51Z"/><path class="cls-5" d="M142.53,231c-.55-7.72,1.17-15.26,3.28-22.64.75-2.64,1.49-5.63,3.51-7.62.62-.6,1.32-1.31,2.05-.6,1,.93.88,2.67.93,3.89a2.53,2.53,0,0,0,4.68,1.27,9.9,9.9,0,0,1,1.9-2.58c.35-.29,1.25-.86,1.7-.49.25.19.16,1,.15,1.34a14.58,14.58,0,0,0,.25,3.79,2.53,2.53,0,0,0,4.2,1.11A6.71,6.71,0,0,1,167,207a2.53,2.53,0,0,1,.66-.17,10,10,0,0,1,0,1.07,21.21,21.21,0,0,1-.44,2.38,27,27,0,0,1-4.35,9.29c-4.09,5.77-10.12,9.84-16.28,13.11-2.86,1.52-.32,5.86,2.53,4.34,8-4.26,15.65-10,20.07-18.08a30.92,30.92,0,0,0,2.61-6.33c.6-2.12,1.33-4.84.78-7a5,5,0,0,0-5.15-3.74c-2.36,0-4.2,1.58-5.79,3.15l4.2,1.11c-.41-1.66.14-3.39-.36-5.08a5.26,5.26,0,0,0-3.87-3.65c-4.17-1-7,2.26-9,5.47l4.69,1.26c-.09-2.14-.26-4.41-1.46-6.26a6.19,6.19,0,0,0-5.32-3c-4.4.21-7.07,4.92-8.42,8.54a84.85,84.85,0,0,0-3.48,13A54.72,54.72,0,0,0,137.51,231a2.56,2.56,0,0,0,2.51,2.51,2.53,2.53,0,0,0,2.51-2.51Z"/><path class="cls-5" d="M79.4,231.88c4.55-.11,7.26-4.18,9-7.89a38.44,38.44,0,0,0,3.41-12.8,50.35,50.35,0,0,0-.6-13,60.4,60.4,0,0,0-1.39-6.27,11.15,11.15,0,0,0-2.7-5.29,5.18,5.18,0,0,0-7-.18c-2,1.69-2.23,4.22-3.55,6.33l3.44-.9c-1.24-.88-1.89-2.43-3-3.45a6.16,6.16,0,0,0-5.48-1.71,5.59,5.59,0,0,0-3.79,3.88c-.56,1.8-.1,3.69-.57,5.48l3.69-1.51A5.48,5.48,0,0,1,69.46,193a5.33,5.33,0,0,0-2.46-1.8,4.87,4.87,0,0,0-5.49,2.08c-2.39,3.31-1.8,8.45-1.07,12.21.81,4.16,2.74,7.65,4.83,11.27,1.82,3.14,3.66,7,6.58,9.3a2.6,2.6,0,0,0,3.55,0,2.53,2.53,0,0,0,0-3.56c-2.25-1.75-3.65-4.62-5.06-7-1.63-2.79-3.43-5.5-4.38-8.61a20.65,20.65,0,0,1-.91-9.19,10.46,10.46,0,0,1,.61-1.59c.2-.61.23-.13.19-.16.14.12-.61.06-.56,0s1.12,1.32,1.2,1.41a6,6,0,0,0,1.88,1.58,2.55,2.55,0,0,0,3.7-1.5,27.64,27.64,0,0,0,.39-4.54c0-.34.14-.65.19-1s.49-.36,0-.32c.77-.06,1.56,1.14,1.94,1.62a14.36,14.36,0,0,0,3,3,2.54,2.54,0,0,0,3.44-.9A16.92,16.92,0,0,0,82.41,192c.18-.48.52-1.67,1.11-1.82.07,0,0-.08,0-.08.15,0,.39.34.45.42a6.44,6.44,0,0,1,1,2.31A52,52,0,0,1,87,205.64a37,37,0,0,1-1.65,12.64,27.88,27.88,0,0,1-2.59,5.7c-.72,1.18-1.79,2.84-3.33,2.87-3.23.08-3.24,5.11,0,5Z"/><path class="cls-5" d="M80.42,141.78a75.06,75.06,0,0,1,13.83-2,13.93,13.93,0,0,1,3,.12,7.64,7.64,0,0,1,1.25.32c.07,0,.91.45,1,.44s.16,0,0-.34q.36-.9-.15-.27a4.22,4.22,0,0,0-.77.64,12.87,12.87,0,0,1-2.65,1.51c-2.56,1-2.31,4.75.67,4.94a8.47,8.47,0,0,1,3.63.68,1.68,1.68,0,0,1,.82.82,2.37,2.37,0,0,1,.12.56c.1-.22-.12.16-.09.15s0-.06,0-.07c-.57.12-1.08.22-1.67.29a7.32,7.32,0,0,0-4.17,1.65,2.52,2.52,0,0,0,1.11,4.2,4,4,0,0,1,2.61,1.82l.39-3.05c-1.06,1.36-2.39,3.32-4.18,3.74a6,6,0,0,1-3.31-.59c-1.14-.41-2.27-.86-3.38-1.34a76.92,76.92,0,0,1-13.35-7.46,2.52,2.52,0,0,0-3.43.9,2.56,2.56,0,0,0,.9,3.44,79.36,79.36,0,0,0,15.61,8.41c2.71,1.1,5.69,2.34,8.64,1.38,2.58-.84,4.43-2.85,6-4.92a2.64,2.64,0,0,0,.4-3,9.18,9.18,0,0,0-5.62-4.12l1.11,4.2c.29-.25,1.22-.25,1.64-.3a8.35,8.35,0,0,0,3.18-.85,5.1,5.1,0,0,0,2.56-4.94,6.59,6.59,0,0,0-3.06-5c-1.93-1.22-4.26-1.43-6.49-1.57l.67,4.94a18.87,18.87,0,0,0,4-2.15c1.26-.92,2.7-2,3.12-3.58.91-3.45-2.74-5.62-5.57-6.22a29.69,29.69,0,0,0-9.5.06,98.57,98.57,0,0,0-10.24,1.73c-3.16.71-1.82,5.56,1.33,4.85Z"/><path class="cls-5" d="M166.76,144a31.08,31.08,0,0,0-21.84-8c-1.94.08-4.79,0-6.22,1.52s-1.16,3.93-.47,5.68c1.73,4.36,6.21,6,10.57,6.27l-.66-4.93c-1.89.57-3.89.62-5.55,1.81a5.21,5.21,0,0,0-2.32,5.19,5.38,5.38,0,0,0,3.3,3.66c1.92.86,3.94,1.51,5.91,2.23l.67-4.93c-2.88,0-6.05.64-7.28,3.6-1.11,2.67.47,5.35,2.91,6.56s5.5,1.38,8.24,1.31a69.46,69.46,0,0,0,9.53-1.16,2.54,2.54,0,0,0,1.76-3.09,2.56,2.56,0,0,0-3.09-1.75c-3.91.65-8,1.35-11.93.82a7.45,7.45,0,0,1-2-.47c-.12,0-1.08-.58-.92-.7s.16.41.1.4.86-.51.41-.3a5.65,5.65,0,0,1,2.24-.2c3,0,3.24-4,.67-4.93l-3.63-1.35a13,13,0,0,1-2.18-1l.19.32c.05.42-.21.25.1,0a3.07,3.07,0,0,1,.53-.31,31.13,31.13,0,0,1,3.64-.87,2.52,2.52,0,0,0-.67-4.93,8.35,8.35,0,0,1-4.59-1.37,4.12,4.12,0,0,1-1.23-1.49,3.13,3.13,0,0,1-.24-.75.52.52,0,0,1,0-.39c0-.62,0-.49-.19.41l-1.11.64a15.57,15.57,0,0,1,5.85-.47,24.85,24.85,0,0,1,5.68.92,25.51,25.51,0,0,1,10.27,5.57c2.4,2.15,6-1.39,3.55-3.56Z"/><path class="cls-5" d="M124.75,88.65a7.17,7.17,0,0,0,.63,2.37,6.27,6.27,0,0,0,1.08,1.57,6.2,6.2,0,0,0,3.2,1.88c2.78.58,5.23-.7,7.42-2.28a2.72,2.72,0,0,0,1.15-1.51,2.51,2.51,0,0,0-3.69-2.83,19.85,19.85,0,0,1-1.95,1.28l-.51.26c-.24.11-.17.08.21-.08l-.27.1a5.59,5.59,0,0,1-1.09.26l.67-.09a5.35,5.35,0,0,1-1,0l.67.09a5.6,5.6,0,0,1-.59-.12.7.7,0,0,0-.23-.08c.07,0,.62.29.22.08-.16-.08-.31-.17-.47-.27-.33-.22.39.34.18.13l-.22-.2L130,89c-.31-.31.27.4.13.18s-.2-.29-.29-.45-.21-.46,0,0,0,0,0,0a4,4,0,0,1-.13-.58l.09.66,0-.12a2.68,2.68,0,0,0-.73-1.77,2.51,2.51,0,0,0-3.56,0,2.4,2.4,0,0,0-.73,1.77Z"/><path class="cls-5" d="M128.1,91.81l-.66,3.54a6.6,6.6,0,0,1-.43,2.1c-.17.23-.78.31-1,.38l-1.7.48-3.41.94q-6.84,1.88-13.71,3.58c-3.14.78-1.81,5.63,1.34,4.85q7.73-1.92,15.41-4.05c2.23-.62,5.15-1,6.77-2.8a7,7,0,0,0,1.46-3.48l.78-4.21a2.58,2.58,0,0,0-1.75-3.09,2.54,2.54,0,0,0-3.09,1.76Z"/><path class="cls-5" d="M128,103.07a129.43,129.43,0,0,1,19.16,8.47c2.85,1.55,5.39-2.79,2.54-4.34a136.67,136.67,0,0,0-20.36-9,2.53,2.53,0,0,0-3.09,1.75,2.57,2.57,0,0,0,1.75,3.09Z"/><path class="cls-5" d="M120.7,104.09v7.53c0,2.47-.45,5.7,2.1,7.14,1.27.71,2.87.51,4.27.51h3.74c1.44,0,2.89,0,3.92-1.2a7.67,7.67,0,0,0,1.35-3.86,49.35,49.35,0,0,0,.81-8.74,2.52,2.52,0,1,0-5,0c0,1,0,2.05-.1,3.07q0,.73-.12,1.47c0,.24,0,.49-.08.73s0,.25-.05.37,0,.33,0,.06c-.16,1-.33,2-.54,3l-.15.69c-.11.43,0,.07.15-.13a2,2,0,0,1,.76-.5s.51,0,.23,0h-3.89c-1,0-2.15-.08-3.19,0-.28,0,.09,0,.15,0a1.41,1.41,0,0,1,.34.19,1.34,1.34,0,0,1,.32.35s.14.47.1.21a1.82,1.82,0,0,0-.07-.25s0,.52,0,.23,0-.41,0-.61c0-1,0-2.1,0-3.14v-7.16a2.52,2.52,0,1,0-5,0Z"/><path class="cls-5" d="M119.84,101.78a75.28,75.28,0,0,0-22,28.77,2.58,2.58,0,0,0,.9,3.43,2.52,2.52,0,0,0,3.44-.9,72.21,72.21,0,0,1,21.27-27.75,2.53,2.53,0,0,0,0-3.55,2.58,2.58,0,0,0-3.56,0Z"/><path class="cls-5" d="M135.29,108.66a137,137,0,0,1,10.6,26.61c.87,3.11,5.72,1.79,4.84-1.33a142.7,142.7,0,0,0-11.1-27.81c-1.51-2.87-5.85-.33-4.34,2.53Z"/><path class="cls-5" d="M93.85,166c1.59,10.42,11,17.23,20.68,19.63a37.92,37.92,0,0,0,16.18.56,26.74,26.74,0,0,0,12.44-6.12,33.64,33.64,0,0,0,9.26-11.75,2.59,2.59,0,0,0-.9-3.44,2.54,2.54,0,0,0-3.44.9,28.86,28.86,0,0,1-6.62,9.06,22.81,22.81,0,0,1-9.69,5.94c-8.48,2.38-18.89.76-26-4.59a17.85,17.85,0,0,1-7.07-11.53,2.54,2.54,0,0,0-3.09-1.76,2.59,2.59,0,0,0-1.76,3.1Z"/><path class="cls-5" d="M102.76,83.35l.8.61-.51-.39A65,65,0,0,1,108.17,88a2.65,2.65,0,0,0,1.78.74,2.58,2.58,0,0,0,1.78-.74,2.52,2.52,0,0,0,0-3.55A72.26,72.26,0,0,0,105.3,79a2.51,2.51,0,0,0-3.44.91,2.51,2.51,0,0,0-.25,1.93l.25.6a2.43,2.43,0,0,0,.9.9Z"/><path class="cls-5" d="M156.77,83.54a32.22,32.22,0,0,0-7.16,2.88,2.51,2.51,0,0,0,2.53,4.34c.88-.48,1.78-.92,2.7-1.31l-.6.26a29.78,29.78,0,0,1,3.86-1.32,2.51,2.51,0,1,0-1.33-4.85Z"/></g></svg>